<svg xmlns="http://www.w3.org/2000/svg" viewBox="0 0 660.77 660.77"><defs><style>.cls-1,.cls-14,.cls-15,.cls-2,.cls-24,.cls-25,.cls-40,.cls-8{fill:#fff;}.cls-1,.cls-10,.cls-11,.cls-12,.cls-13,.cls-14,.cls-15,.cls-16,.cls-17,.cls-18,.cls-19,.cls-2,.cls-20,.cls-21,.cls-22,.cls-23,.cls-24,.cls-25,.cls-26,.cls-27,.cls-28,.cls-3,.cls-37,.cls-38,.cls-4,.cls-40,.cls-42,.cls-44,.cls-45,.cls-5,.cls-9{stroke:#000;}.cls-1,.cls-10,.cls-11,.cls-12,.cls-13,.cls-14,.cls-15,.cls-16,.cls-17,.cls-18,.cls-19,.cls-20,.cls-21,.cls-22,.cls-23,.cls-24,.cls-25,.cls-26,.cls-27,.cls-28,.cls-3,.cls-36,.cls-37,.cls-38,.cls-39,.cls-4,.cls-40,.cls-41,.cls-42,.cls-44,.cls-45,.cls-5,.cls-6,.cls-9{stroke-miterlimit:10;}.cls-1,.cls-20,.cls-37,.cls-39,.cls-5{stroke-width:0.48px;}.cls-2{stroke-linejoin:round;stroke-width:0.84px;}.cls-10,.cls-12,.cls-13,.cls-16,.cls-17,.cls-18,.cls-19,.cls-20,.cls-21,.cls-22,.cls-23,.cls-26,.cls-27,.cls-28,.cls-3,.cls-37,.cls-38,.cls-39,.cls-4,.cls-41,.cls-42,.cls-45,.cls-46,.cls-6,.cls-9{fill:none;}.cls-3{stroke-width:0.42px;}.cls-4{stroke-width:0.09px;}.cls-5{fill:#ff931e;}.cls-36,.cls-37,.cls-38,.cls-5{stroke-dasharray:1.84 1.84 1.84 1.84;}.cls-41,.cls-6{stroke:red;}.cls-6{stroke-width:0.34px;}.cls-7{fill:red;}.cls-9{stroke-width:0.95px;}.cls-10,.cls-14{stroke-width:0.55px;}.cls-11,.cls-24{stroke-width:0.34px;}.cls-12{stroke-width:0.65px;}.cls-13{stroke-width:0.65px;}.cls-15,.cls-16,.cls-41{stroke-width:1.91px;}.cls-17{stroke-width:0.75px;}.cls-18{stroke-width:0.16px;}.cls-19{stroke-width:0.41px;}.cls-21{stroke-width:0.1px;}.cls-22{stroke-width:0.09px;}.cls-23{stroke-width:0.34px;}.cls-25,.cls-26{stroke-width:0.38px;}.cls-27{stroke-width:0.63px;}.cls-28{stroke-width:0.58px;}.cls-29,.cls-32,.cls-35{font-size:7.54px;font-family:Helvetica;}.cls-29,.cls-33{letter-spacing:-0.05em;}.cls-30,.cls-32{letter-spacing:-0.13em;}.cls-31,.cls-35{letter-spacing:-0.05em;}.cls-34{letter-spacing:-0.09em;}.cls-36{fill:#22b573;stroke:#999;}.cls-36,.cls-44,.cls-45{stroke-width:0.28px;}.cls-38{stroke-width:0.49px;}.cls-39{stroke:#ff0;}.cls-40{stroke-width:0.58px;}.cls-42{stroke-width:0.38px;stroke-dasharray:1.84 1.84 1.84 1.84;}.cls-43{opacity:0.4;}.cls-44{fill:#b3b3b3;}</style></defs><title>Blueprint</title><g id="Layer_2" data-name="Layer 2"><g id="Bracing"><path class="cls-1" d="M195.24,387.27H49.3v-1.9H195.24c7.64,0,15.36-.23,23-.67l357.73-20.92.11,1.9L218.31,386.6C210.68,387.05,202.92,387.27,195.24,387.27Z"/><path class="cls-1" d="M195.24,385.33H49.3v-1.9H195.24c7.64,0,15.36-.23,23-.67l357.73-20.92.11,1.9L218.31,384.66C210.68,385.11,202.92,385.33,195.24,385.33Z"/><path class="cls-1" d="M575.06,280.25c-283.22-7.94-516.24-3.78-526-3.6l0-1.91c9.78-.18,242.84-4.33,526.11,3.61Z"/><path class="cls-1" d="M575.06,282.09c-283.22-7.94-516.24-3.79-526-3.6l0-1.91c9.78-.18,242.84-4.34,526.11,3.6Z"/><path class="cls-1" d="M195.24,387.27H49.3v-1.9H195.24c7.64,0,15.36-.23,23-.67l357.73-20.92.11,1.9L218.31,386.6C210.68,387.05,202.92,387.27,195.24,387.27Z"/><path class="cls-1" d="M195.24,385.33H49.3v-1.9H195.24c7.64,0,15.36-.23,23-.67l357.73-20.92.11,1.9L218.31,384.66C210.68,385.11,202.92,385.33,195.24,385.33Z"/><path class="cls-1" d="M575.06,280.25c-283.22-7.94-516.24-3.78-526-3.6l0-1.91c9.78-.18,242.84-4.33,526.11,3.61Z"/><path class="cls-1" d="M575.06,282.09c-283.22-7.94-516.24-3.79-526-3.6l0-1.91c9.78-.18,242.84-4.34,526.11,3.6Z"/><path class="cls-2" d="M274.35,259.76h.41a1.7,1.7,0,0,1,1.7,1.7v3.11a0,0,0,0,1,0,0h-3.82a0,0,0,0,1,0,0v-3.11A1.7,1.7,0,0,1,274.35,259.76Z"/><rect class="cls-3" x="240.64" y="273.88" width="43.82" height="2.91"/><rect class="cls-4" x="240.64" y="273.88" width="43.82" height="2.91"/><rect class="cls-4" x="240.64" y="273.88" width="21.91" height="2.91"/><rect class="cls-4" x="240.64" y="273.88" width="10.96" height="2.91"/><rect class="cls-4" x="240.64" y="273.88" width="5.48" height="2.91"/><rect class="cls-4" x="262.55" y="273.88" width="5.48" height="2.91"/><rect class="cls-4" x="268.03" y="273.88" width="5.48" height="2.91"/><rect class="cls-4" x="273.51" y="273.88" width="5.48" height="2.91"/><rect class="cls-4" x="278.99" y="273.88" width="5.48" height="2.91"/><rect class="cls-4" x="251.6" y="273.88" width="5.48" height="2.91"/><rect class="cls-4" x="240.64" y="273.88" width="2.91" height="2.91"/><rect class="cls-4" x="246.12" y="273.88" width="2.91" height="2.91"/><rect class="cls-4" x="251.6" y="273.88" width="2.91" height="2.91"/><rect class="cls-4" x="257.07" y="273.88" width="2.91" height="2.91"/><rect class="cls-4" x="262.55" y="273.88" width="2.91" height="2.91"/><rect class="cls-4" x="268.03" y="273.88" width="2.91" height="2.91"/><rect class="cls-4" x="273.51" y="273.88" width="2.91" height="2.91"/><rect class="cls-4" x="278.99" y="273.88" width="2.91" height="2.91"/><line class="cls-5" x1="442.76" y1="349.43" x2="408.41" y2="360.59"/><path class="cls-6" d="M104.07,299.56c-.85,5.86-5.29,6.53-5.29,13.6,0,7.81,5.42,7.81,5.42,15.63s-5.42,7.81-5.42,15.62,5.42,7.82,5.42,15.63-5.42,7.81-5.42,15.63"/><path class="cls-7" d="M104.2,297.53a10,10,0,0,1-1.82,2.74l1.64-.45,1.55.71A10.13,10.13,0,0,1,104.2,297.53Z"/><path class="cls-6" d="M184.74,299.56c-.84,5.86-5.29,6.53-5.29,13.6,0,7.81,5.43,7.81,5.43,15.63s-5.43,7.81-5.43,15.62,5.43,7.82,5.43,15.63-5.43,7.81-5.43,15.63"/><path class="cls-7" d="M184.88,297.53a10,10,0,0,1-1.83,2.74l1.64-.45,1.55.71A9.87,9.87,0,0,1,184.88,297.53Z"/><path class="cls-6" d="M273.19,298.05c-.84,5.85-5.29,6.53-5.29,13.6,0,7.81,5.43,7.81,5.43,15.62s-5.43,7.82-5.43,15.63,5.43,7.81,5.43,15.63-5.43,7.81-5.43,15.62"/><path class="cls-7" d="M273.33,296a10.18,10.18,0,0,1-1.83,2.74l1.64-.45,1.55.71A10.09,10.09,0,0,1,273.33,296Z"/><path class="cls-6" d="M354.12,293.34c-.85,5.86-5.29,6.53-5.29,13.6,0,7.82,5.42,7.82,5.42,15.63s-5.42,7.81-5.42,15.63,5.42,7.81,5.42,15.62-5.42,7.82-5.42,15.63"/><path class="cls-7" d="M354.25,291.32a10.55,10.55,0,0,1-1.82,2.74l1.64-.45,1.55.7A10.19,10.19,0,0,1,354.25,291.32Z"/><path class="cls-6" d="M436.56,293.34c-.91,5.16-5.26,5.83-5.26,12.19,0,7.1,5.43,7.1,5.43,14.21s-5.43,7.1-5.43,14.21,5.43,7.11,5.43,14.21-5.43,7.11-5.43,14.21"/><path class="cls-7" d="M436.73,291.32a10.35,10.35,0,0,1-1.86,2.71l1.64-.43,1.54.73A10.06,10.06,0,0,1,436.73,291.32Z"/><path class="cls-6" d="M519.7,292.8c-.91,5.16-5.26,5.83-5.26,12.18,0,7.11,5.43,7.11,5.43,14.22s-5.43,7.1-5.43,14.21,5.43,7.1,5.43,14.21-5.43,7.1-5.43,14.21"/><path class="cls-7" d="M519.87,290.77a10.4,10.4,0,0,1-1.86,2.72l1.65-.43,1.53.73A10.26,10.26,0,0,1,519.87,290.77Z"/><line class="cls-8" x1="25.54" y1="273.74" x2="25.54" y2="389.46"/><line class="cls-9" x1="25.54" y1="279.48" x2="25.54" y2="383.72"/><path d="M25.54,273.74A28.85,28.85,0,0,1,21,281.88l4.53-1.64,4.53,1.64A28.85,28.85,0,0,1,25.54,273.74Z"/><path d="M25.54,389.46A28.85,28.85,0,0,0,21,381.32L25.54,383l4.53-1.64A28.85,28.85,0,0,0,25.54,389.46Z"/><path class="cls-10" d="M649.37,278.19,477.6,274.4l0-2.48a3,3,0,0,1,3.27-2.74l168.57,3.72Z"/><path class="cls-11" d="M491.39,268a1.05,1.05,0,0,0-1.08,1l2.12,0A1.06,1.06,0,0,0,491.39,268Z"/><line class="cls-11" x1="491.33" y1="270.78" x2="491.37" y2="269.01"/><path class="cls-11" d="M503.89,268.23a1.06,1.06,0,0,0-1.09,1l2.12.06A1.06,1.06,0,0,0,503.89,268.23Z"/><line class="cls-11" x1="503.86" y1="269.29" x2="503.81" y2="271.05"/><path class="cls-11" d="M516.78,268.52a1.05,1.05,0,0,0-1.08,1l2.12.05A1.05,1.05,0,0,0,516.78,268.52Z"/><line class="cls-11" x1="516.72" y1="271.34" x2="516.76" y2="269.57"/><path class="cls-11" d="M530.49,268.82a1.06,1.06,0,0,0-1.09,1l2.12,0A1.05,1.05,0,0,0,530.49,268.82Z"/><line class="cls-11" x1="530.42" y1="271.64" x2="530.46" y2="269.88"/><path class="cls-11" d="M544.8,269.11a1.06,1.06,0,0,0-1.08,1l2.12,0A1.06,1.06,0,0,0,544.8,269.11Z"/><line class="cls-11" x1="544.74" y1="271.94" x2="544.78" y2="270.17"/><path class="cls-11" d="M560.08,269.44a1.06,1.06,0,0,0-1.08,1l2.12,0A1.06,1.06,0,0,0,560.08,269.44Z"/><line class="cls-11" x1="560.02" y1="272.27" x2="560.06" y2="270.5"/><path class="cls-11" d="M576.44,269.8a1.06,1.06,0,0,0-1.08,1l2.12.05A1.07,1.07,0,0,0,576.44,269.8Z"/><line class="cls-11" x1="576.38" y1="272.63" x2="576.42" y2="270.86"/><path class="cls-11" d="M592.7,270.16a1.07,1.07,0,0,0-1.09,1l2.12.05A1.06,1.06,0,0,0,592.7,270.16Z"/><line class="cls-11" x1="592.63" y1="272.97" x2="592.67" y2="271.22"/><path class="cls-11" d="M610.75,270.55a1.07,1.07,0,0,0-1.09,1l2.12.05A1.06,1.06,0,0,0,610.75,270.55Z"/><line class="cls-11" x1="610.69" y1="273.37" x2="610.72" y2="271.61"/><path class="cls-11" d="M629.44,271a1.06,1.06,0,0,0-1.08,1l2.12.05A1.06,1.06,0,0,0,629.44,271Z"/><line class="cls-11" x1="629.38" y1="273.78" x2="629.42" y2="272.03"/><path class="cls-12" d="M265,291l-.63-.74a8.33,8.33,0,0,0-4.3-2.74h0L260.06,260h5Z"/><rect class="cls-13" x="258.09" y="256.46" width="9.34" height="4.24" rx="2.12"/><path class="cls-14" d="M577.17,362.1l20.84.15s-6.67-57.83,39.34-61l.16-23.43-60.85-1.2-99.07-2.22,98.76,2.53Z"/><line class="cls-15" x1="576.89" y1="362.76" x2="597.74" y2="362.9"/><path class="cls-16" d="M575.67,277.78l.88,88.58a.37.37,0,0,1-.35.38L218.47,387.66q-11.49.68-23,.67h-146a.37.37,0,0,1-.37-.37l-.25-113.78a.36.36,0,0,1,.35-.38c10.27-.19,242.85-4.33,526.07,3.61A.36.36,0,0,1,575.67,277.78Z"/><path class="cls-16" d="M545,368.07l32.27-1.88-.88-89.31q-15.81-.44-31.39-.83Z"/><path class="cls-17" d="M490.75,275.72h19.51a0,0,0,0,1,0,0v2.63a6.38,6.38,0,0,1-6.38,6.38h-6.75a6.38,6.38,0,0,1-6.38-6.38v-2.63a0,0,0,0,1,0,0Z" transform="translate(3.24 -5.71) rotate(0.66)"/><rect class="cls-17" x="490.78" y="275.72" width="19.51" height="3" transform="translate(3.21 -5.71) rotate(0.66)"/><line class="cls-18" x1="492.3" y1="275.63" x2="492.26" y2="278.63"/><line class="cls-18" x1="501.3" y1="275.73" x2="501.27" y2="278.73"/><line class="cls-18" x1="499.8" y1="275.71" x2="499.77" y2="278.72"/><line class="cls-18" x1="493.8" y1="275.65" x2="493.77" y2="278.65"/><line class="cls-18" x1="495.3" y1="275.66" x2="495.27" y2="278.66"/><line class="cls-18" x1="502.8" y1="275.75" x2="502.77" y2="278.75"/><line class="cls-18" x1="504.3" y1="275.77" x2="504.27" y2="278.77"/><line class="cls-18" x1="505.81" y1="275.78" x2="505.77" y2="278.78"/><line class="cls-18" x1="507.31" y1="275.8" x2="507.27" y2="278.8"/><line class="cls-18" x1="508.81" y1="275.82" x2="508.77" y2="278.82"/><line class="cls-18" x1="496.8" y1="275.68" x2="496.77" y2="278.68"/><line class="cls-18" x1="498.3" y1="275.7" x2="498.27" y2="278.7"/><rect class="cls-16" x="49.56" y="273.34" width="22.86" height="114.32"/><path class="cls-19" d="M72.43,273.33c-8.89,2.54-16.52-2.54-22.86,0"/><path class="cls-19" d="M49.57,277.13c6.34-2.53,14,2.55,22.86,0"/><path class="cls-19" d="M72.43,277.14c-8.89,2.54-16.52-2.54-22.86,0"/><path class="cls-19" d="M49.57,280.94c6.34-2.53,14,2.55,22.86,0"/><path class="cls-19" d="M72.43,281c-8.89,2.54-16.52-2.54-22.86,0"/><path class="cls-19" d="M49.57,284.75c6.34-2.52,14,2.55,22.86,0"/><path class="cls-19" d="M49.57,288.56c6.34-2.52,14,2.55,22.86,0"/><path class="cls-19" d="M72.43,284.76c-8.89,2.54-16.52-2.53-22.86,0"/><path class="cls-19" d="M72.43,288.57c-8.89,2.54-16.52-2.53-22.86,0"/><path class="cls-19" d="M49.57,292.37c6.34-2.52,14,2.55,22.86,0"/><path class="cls-19" d="M49.57,296.19c6.34-2.53,14,2.54,22.86,0"/><path class="cls-19" d="M72.43,292.38c-8.89,2.54-16.52-2.53-22.86,0"/><path class="cls-19" d="M72.43,296.19c-8.89,2.54-16.52-2.53-22.86,0"/><path class="cls-19" d="M49.57,300c6.34-2.53,14,2.54,22.86,0"/><path class="cls-19" d="M49.57,307.62c6.34-2.53,14,2.54,22.86,0"/><path class="cls-19" d="M72.43,303.82c-8.89,2.53-16.52-2.54-22.86,0"/><path class="cls-19" d="M72.43,307.63c-8.89,2.53-16.52-2.54-22.86,0"/><path class="cls-19" d="M49.57,311.43c6.34-2.53,14,2.55,22.86,0"/><path class="cls-19" d="M49.57,315.24c6.34-2.53,14,2.55,22.86,0"/><path class="cls-19" d="M72.43,311.44c-8.89,2.54-16.52-2.54-22.86,0"/><path class="cls-19" d="M72.43,315.25c-8.89,2.54-16.52-2.54-22.86,0"/><path class="cls-19" d="M49.57,319.05c6.34-2.53,14,2.55,22.86,0"/><path class="cls-19" d="M72.43,319.06c-8.89,2.54-16.52-2.54-22.86,0"/><path class="cls-19" d="M49.57,322.86c6.34-2.53,14,2.55,22.86,0"/><path class="cls-19" d="M49.57,326.67c6.34-2.53,14,2.55,22.86,0"/><path class="cls-19" d="M72.43,322.87c-8.89,2.54-16.52-2.54-22.86,0"/><path class="cls-19" d="M49.57,330.48c6.34-2.53,14,2.55,22.86,0"/><path class="cls-19" d="M72.43,326.68c-8.89,2.54-16.52-2.54-22.86,0"/><path class="cls-19" d="M49.57,334.29c6.34-2.53,14,2.55,22.86,0"/><path class="cls-19" d="M72.43,330.49c-8.89,2.54-16.52-2.54-22.86,0"/><path class="cls-19" d="M49.57,338.1c6.34-2.52,14,2.55,22.86,0"/><path class="cls-19" d="M72.43,334.3c-8.89,2.54-16.52-2.54-22.86,0"/><path class="cls-19" d="M49.57,341.91c6.34-2.52,14,2.55,22.86,0"/><path class="cls-19" d="M72.43,338.11c-8.89,2.54-16.52-2.53-22.86,0"/><path class="cls-19" d="M49.57,345.73c6.34-2.53,14,2.54,22.86,0"/><path class="cls-19" d="M72.43,341.92c-8.89,2.54-16.52-2.53-22.86,0"/><path class="cls-19" d="M49.57,349.54c6.34-2.53,14,2.54,22.86,0"/><path class="cls-19" d="M72.43,345.73c-8.89,2.54-16.52-2.53-22.86,0"/><path class="cls-19" d="M49.57,353.35c6.34-2.53,14,2.54,22.86,0"/><path class="cls-19" d="M72.43,349.55c-8.89,2.53-16.52-2.54-22.86,0"/><path class="cls-19" d="M49.57,357.16c6.34-2.53,14,2.54,22.86,0"/><path class="cls-19" d="M72.43,353.36c-8.89,2.53-16.52-2.54-22.86,0"/><path class="cls-19" d="M49.57,361c6.34-2.53,14,2.54,22.86,0"/><path class="cls-19" d="M72.43,357.17c-8.89,2.53-16.52-2.54-22.86,0"/><path class="cls-19" d="M49.57,364.78c6.34-2.53,14,2.55,22.86,0"/><path class="cls-19" d="M72.43,361c-8.89,2.53-16.52-2.54-22.86,0"/><path class="cls-19" d="M49.57,368.59c6.34-2.53,14,2.55,22.86,0"/><path class="cls-19" d="M72.43,364.79c-8.89,2.54-16.52-2.54-22.86,0"/><path class="cls-19" d="M49.57,372.4c6.34-2.53,14,2.55,22.86,0"/><path class="cls-19" d="M72.43,368.6c-8.89,2.54-16.52-2.54-22.86,0"/><path class="cls-19" d="M49.57,376.21c6.34-2.53,14,2.55,22.86,0"/><path class="cls-19" d="M72.43,372.41c-8.89,2.54-16.52-2.54-22.86,0"/><path class="cls-19" d="M49.57,380c6.34-2.53,14,2.55,22.86,0"/><path class="cls-19" d="M72.43,376.22c-8.89,2.54-16.52-2.54-22.86,0"/><path class="cls-19" d="M49.57,383.83c6.34-2.53,14,2.55,22.86,0"/><path class="cls-19" d="M72.43,380c-8.89,2.54-16.52-2.54-22.86,0"/><path class="cls-19" d="M49.57,387.64c6.34-2.52,14,2.55,22.86,0"/><path class="cls-19" d="M72.43,383.84c-8.89,2.54-16.52-2.54-22.86,0"/><path class="cls-20" d="M545,280.94c8.46-3.37,18.62,3.4,30.47,0"/><path class="cls-20" d="M545,284.75c8.46-3.37,18.62,3.4,30.47,0"/><path class="cls-20" d="M545.49,288.46c8.45-3.37,18.62,3.39,30.47,0"/><path class="cls-20" d="M545.38,292.37c8.46-3.37,18.62,3.4,30.48,0"/><path class="cls-20" d="M545.59,296.19c8.46-3.38,18.62,3.39,30.48,0"/><path class="cls-20" d="M545.59,300c8.46-3.38,18.62,3.39,30.48,0"/><path class="cls-20" d="M545.38,303.81c8.46-3.38,18.62,3.39,30.48,0"/><path class="cls-20" d="M545.59,307.62c8.46-3.38,18.62,3.39,30.48,0"/><path class="cls-20" d="M545.59,311.43c8.46-3.38,18.62,3.39,30.48,0"/><path class="cls-20" d="M545.8,315.34c8.45-3.37,18.62,3.4,30.47,0"/><path class="cls-20" d="M545.69,319.05c8.46-3.38,18.62,3.39,30.48,0"/><path class="cls-20" d="M545.8,322.86c8.45-3.37,18.62,3.39,30.47,0"/><path class="cls-20" d="M545.49,326.67c8.45-3.37,18.62,3.39,30.47,0"/><path class="cls-20" d="M545.9,330.48c8.46-3.37,18.62,3.4,30.48,0"/><path class="cls-20" d="M545.59,334.4c8.46-3.38,18.62,3.39,30.48,0"/><path class="cls-20" d="M545.49,338.1c8.45-3.37,18.62,3.4,30.47,0"/><path class="cls-20" d="M545.69,341.91c8.46-3.37,18.62,3.4,30.48,0"/><path class="cls-20" d="M545.8,345.73c8.45-3.38,18.62,3.39,30.47,0"/><path class="cls-20" d="M545.69,349.54c8.46-3.38,18.62,3.39,30.48,0"/><path class="cls-20" d="M545.59,353.35c8.46-3.38,18.62,3.39,30.48,0"/><path class="cls-20" d="M545.59,357.16c8.46-3.38,18.62,3.39,30.48,0"/><path class="cls-20" d="M546,361c8.46-3.38,18.62,3.39,30.48,0"/><path class="cls-20" d="M546.21,364.78c8.46-3.38,18.62,3.39,30.48,0"/><polygon class="cls-20" points="490.62 278.11 463.86 283.4 437.28 277.27 437.31 275.36 490.65 276.2 490.62 278.11"/><rect class="cls-20" x="437.29" y="275.78" width="53.35" height="1.91" transform="translate(4.42 -7.28) rotate(0.9)"/><line class="cls-21" x1="437.28" y1="277.27" x2="437.31" y2="275.36"/><line class="cls-21" x1="439.21" y1="275.39" x2="439.18" y2="277.3"/><line class="cls-21" x1="441.12" y1="275.42" x2="441.09" y2="277.33"/><line class="cls-21" x1="439.18" y1="277.3" x2="439.21" y2="275.39"/><line class="cls-21" x1="441.09" y1="277.33" x2="441.12" y2="275.42"/><line class="cls-21" x1="443.02" y1="275.45" x2="442.99" y2="277.36"/><line class="cls-21" x1="442.99" y1="277.36" x2="443.02" y2="275.45"/><line class="cls-21" x1="444.93" y1="275.48" x2="444.9" y2="277.39"/><line class="cls-21" x1="446.83" y1="275.51" x2="446.8" y2="277.42"/><line class="cls-21" x1="444.9" y1="277.39" x2="444.93" y2="275.48"/><line class="cls-21" x1="446.8" y1="277.42" x2="446.83" y2="275.51"/><line class="cls-21" x1="448.74" y1="275.54" x2="448.71" y2="277.45"/><line class="cls-21" x1="450.64" y1="275.57" x2="450.61" y2="277.48"/><line class="cls-21" x1="448.71" y1="277.45" x2="448.74" y2="275.54"/><line class="cls-21" x1="450.61" y1="277.48" x2="450.64" y2="275.57"/><line class="cls-21" x1="452.55" y1="275.6" x2="452.52" y2="277.51"/><line class="cls-21" x1="452.52" y1="277.51" x2="452.55" y2="275.6"/><line class="cls-21" x1="454.45" y1="275.63" x2="454.42" y2="277.54"/><line class="cls-21" x1="454.42" y1="277.54" x2="454.45" y2="275.63"/><line class="cls-21" x1="456.36" y1="275.66" x2="456.33" y2="277.57"/><line class="cls-21" x1="456.33" y1="277.57" x2="456.36" y2="275.66"/><line class="cls-21" x1="458.26" y1="275.69" x2="458.23" y2="277.6"/><line class="cls-21" x1="458.23" y1="277.6" x2="458.26" y2="275.69"/><line class="cls-21" x1="460.17" y1="275.72" x2="460.14" y2="277.63"/><line class="cls-21" x1="460.14" y1="277.63" x2="460.17" y2="275.72"/><line class="cls-21" x1="462.07" y1="275.75" x2="462.04" y2="277.66"/><line class="cls-21" x1="462.04" y1="277.66" x2="462.07" y2="275.75"/><line class="cls-21" x1="463.98" y1="275.78" x2="463.95" y2="277.69"/><line class="cls-21" x1="463.95" y1="277.69" x2="463.98" y2="275.78"/><line class="cls-21" x1="465.88" y1="275.81" x2="465.85" y2="277.72"/><line class="cls-21" x1="465.85" y1="277.72" x2="465.88" y2="275.81"/><line class="cls-21" x1="467.79" y1="275.84" x2="467.76" y2="277.75"/><line class="cls-21" x1="467.76" y1="277.75" x2="467.79" y2="275.84"/><line class="cls-21" x1="469.69" y1="275.87" x2="469.66" y2="277.78"/><line class="cls-21" x1="469.66" y1="277.78" x2="469.69" y2="275.87"/><line class="cls-21" x1="471.6" y1="275.9" x2="471.57" y2="277.81"/><line class="cls-21" x1="471.57" y1="277.81" x2="471.6" y2="275.9"/><line class="cls-21" x1="473.5" y1="275.93" x2="473.47" y2="277.84"/><line class="cls-21" x1="473.47" y1="277.84" x2="473.5" y2="275.93"/><line class="cls-21" x1="475.41" y1="275.96" x2="475.38" y2="277.87"/><line class="cls-21" x1="475.38" y1="277.87" x2="475.41" y2="275.96"/><line class="cls-21" x1="477.31" y1="275.99" x2="477.28" y2="277.9"/><line class="cls-21" x1="477.28" y1="277.9" x2="477.31" y2="275.99"/><line class="cls-21" x1="479.22" y1="276.02" x2="479.19" y2="277.93"/><line class="cls-21" x1="479.19" y1="277.93" x2="479.22" y2="276.02"/><line class="cls-21" x1="481.13" y1="276.05" x2="481.1" y2="277.96"/><line class="cls-21" x1="481.1" y1="277.96" x2="481.13" y2="276.05"/><line class="cls-21" x1="483.03" y1="276.08" x2="483" y2="277.99"/><line class="cls-22" x1="483" y1="277.91" x2="483.03" y2="276.08"/><line class="cls-21" x1="484.94" y1="276.11" x2="484.91" y2="278.02"/><line class="cls-21" x1="484.91" y1="278.02" x2="484.94" y2="276.11"/><line class="cls-21" x1="486.84" y1="276.14" x2="486.81" y2="278.05"/><line class="cls-21" x1="486.81" y1="278.05" x2="486.84" y2="276.14"/><line class="cls-21" x1="488.75" y1="276.17" x2="488.72" y2="278.08"/><line class="cls-21" x1="488.72" y1="278.08" x2="488.75" y2="276.17"/><path class="cls-8" d="M69.16,334l-21.73,1v-9.15l21.73,1Z"/><path class="cls-23" d="M69.16,334l-21.73,1v-9.15l21.73,1Z"/><path class="cls-24" d="M39.37,323.1a2.9,2.9,0,0,0-2.26,1.43v11.71a2.9,2.9,0,0,0,2.26,1.43,3.1,3.1,0,0,0,2.45-1.73V324.82A3.09,3.09,0,0,0,39.37,323.1Z"/><path class="cls-25" d="M48,334.47c-.3,1.29-.73,2.13-1.22,2.13-.24,0-.47-.22-.68-.58V324.75c.21-.37.44-.58.68-.58.49,0,.92.83,1.22,2.13a20.56,20.56,0,0,1,0,8.17"/><path class="cls-8" d="M46.14,324.75v-.13a5.41,5.41,0,0,1-4.32,0v.2"/><path class="cls-26" d="M46.14,324.75v-.13a5.41,5.41,0,0,1-4.32,0v.2"/><path class="cls-8" d="M41.82,335.94v.2a5.49,5.49,0,0,1,4.32,0V336"/><path class="cls-26" d="M41.82,335.94v.2a5.49,5.49,0,0,1,4.32,0V336"/><path class="cls-27" d="M445.88,277.15v-1.91s-295.67-5.73-373.45-1.9v1.9s34.29,1,52.86,13.34h1c18.29-6.79,41.06-10.73,61.72-10.73,19,0,48.44,3,65.47,8.82,7.65-.08,13.25.07,21,0Z"/><line class="cls-8" x1="49.56" y1="409.12" x2="577.48" y2="409.12"/><line class="cls-9" x1="55.31" y1="409.12" x2="571.73" y2="409.12"/><path d="M49.56,409.12a28.77,28.77,0,0,1,8.15,4.53l-1.64-4.53,1.64-4.53A28.77,28.77,0,0,1,49.56,409.12Z"/><path d="M577.48,409.12a28.85,28.85,0,0,0-8.14,4.53l1.64-4.53-1.64-4.53A28.85,28.85,0,0,0,577.48,409.12Z"/><path class="cls-28" d="M250.87,262.68h27.38a3.32,3.32,0,0,1,3.32,3.32v5.93a0,0,0,0,1,0,0H244a0,0,0,0,1,0,0v-2.35A6.9,6.9,0,0,1,250.87,262.68Z"/><text class="cls-29" transform="translate(224.59 310.83) rotate(90)">BRIDGE</text><text class="cls-29" transform="translate(28.93 316.56) rotate(90)">END PIN</text><text class="cls-29" transform="translate(644.77 290.99) rotate(90)">FINGER BOARD</text><text class="cls-29" transform="translate(258.48 300.69) rotate(90)">BRIDGE PL<tspan class="cls-30" x="36.55" y="0">A</tspan><tspan class="cls-31" x="40.62" y="0">TE</tspan></text><text class="cls-32" transform="translate(82.67 308.79) rotate(90)">T<tspan class="cls-33" x="3.64" y="0">AI</tspan><tspan class="cls-34" x="9.95" y="0">L</tspan><tspan class="cls-31" x="13.46" y="0" xml:space="preserve"> BLOCK</tspan></text><text class="cls-29" transform="translate(196.86 311.44) rotate(90)">X-BRACE</text><text class="cls-29" transform="translate(469.08 298.51) rotate(90)">FINGER BRACE</text><text class="cls-35" transform="translate(529.4 303.82) rotate(90)">HEA<tspan class="cls-34" x="14.28" y="0">L</tspan><tspan x="17.79" y="0" xml:space="preserve"> BLOCK</tspan></text><line class="cls-5" x1="486.61" y1="358.94" x2="452.26" y2="347.78"/><text class="cls-29" transform="translate(318.16 308.74) rotate(90)">KERFING</text><line class="cls-36" x1="325.71" y1="341.33" x2="334.1" y2="355.01"/><line class="cls-37" x1="270.36" y1="290.99" x2="278.75" y2="304.67"/><text class="cls-29" transform="translate(278.54 306.72) rotate(90)">BRIDGE PIN</text><text class="cls-29" transform="translate(292.2 303.05) rotate(90)">SADDLE</text><polyline class="cls-38" points="294.57 300.69 294.57 251.53 277.5 259.12"/><line class="cls-37" x1="199.44" y1="281.54" x2="199.44" y2="310.83"/><text class="cls-29" transform="translate(498.27 292.08) rotate(90)">TRANSVERSE BAR</text><path class="cls-9" d="M262.55,288.46V269.79a5.86,5.86,0,0,1,2.74-5l7.23-5.07a6,6,0,0,1,3-.72l374.78,11.12"/><circle class="cls-16" cx="262.55" cy="289.68" r="1.22"/><path class="cls-39" d="M275.58,257.69c11.71.34,11.63,3.06,23.34,3.4s11.79-2.36,23.5-2,11.63,3.06,23.34,3.4,11.8-2.36,23.51-2,11.63,3.06,23.34,3.4,11.79-2.36,23.5-2,11.63,3.06,23.34,3.41,11.79-2.36,23.5-2,11.63,3.06,23.34,3.41,11.8-2.36,23.51-2,11.63,3.06,23.34,3.41,11.8-2.36,23.51-2,11.63,3.06,23.34,3.41,11.8-2.36,23.51-2,11.64,3.06,23.35,3.41,11.8-2.37,23.51-2"/><polygon class="cls-40" points="325.71 380.72 317.78 380.72 320.42 364.85 323.07 364.85 325.71 380.72"/><line class="cls-40" x1="320.42" y1="378.08" x2="323.07" y2="378.08"/><line class="cls-40" x1="320.42" y1="375.43" x2="323.07" y2="375.43"/><line class="cls-40" x1="320.42" y1="372.79" x2="323.07" y2="372.79"/><line class="cls-40" x1="320.42" y1="370.14" x2="323.07" y2="370.14"/><line class="cls-40" x1="320.42" y1="367.5" x2="323.07" y2="367.5"/><polygon class="cls-40" points="240.04 385.29 232.1 385.29 234.75 369.42 237.39 369.42 240.04 385.29"/><line class="cls-40" x1="234.75" y1="382.65" x2="237.39" y2="382.65"/><line class="cls-40" x1="234.75" y1="380" x2="237.39" y2="380"/><line class="cls-40" x1="234.75" y1="377.36" x2="237.39" y2="377.36"/><line class="cls-40" x1="234.75" y1="374.71" x2="237.39" y2="374.71"/><line class="cls-40" x1="234.75" y1="372.07" x2="237.39" y2="372.07"/><polygon class="cls-40" points="157.85 387.01 149.92 387.01 152.56 371.14 155.21 371.14 157.85 387.01"/><line class="cls-40" x1="152.57" y1="384.37" x2="155.21" y2="384.37"/><line class="cls-40" x1="152.57" y1="381.72" x2="155.21" y2="381.72"/><line class="cls-40" x1="152.57" y1="379.08" x2="155.21" y2="379.08"/><line class="cls-40" x1="152.57" y1="376.43" x2="155.21" y2="376.43"/><line class="cls-40" x1="152.57" y1="373.79" x2="155.21" y2="373.79"/><polygon class="cls-40" points="410.01 375.6 402.07 375.6 404.72 359.73 407.36 359.73 410.01 375.6"/><line class="cls-40" x1="404.72" y1="372.95" x2="407.36" y2="372.95"/><line class="cls-40" x1="404.72" y1="370.31" x2="407.36" y2="370.31"/><line class="cls-40" x1="404.72" y1="367.66" x2="407.36" y2="367.66"/><line class="cls-40" x1="404.72" y1="365.02" x2="407.36" y2="365.02"/><line class="cls-40" x1="404.72" y1="362.37" x2="407.36" y2="362.37"/><polygon class="cls-40" points="494.88 370.65 486.94 370.65 489.59 354.78 492.23 354.78 494.88 370.65"/><line class="cls-40" x1="489.59" y1="368" x2="492.23" y2="368"/><line class="cls-40" x1="489.59" y1="365.36" x2="492.23" y2="365.36"/><line class="cls-40" x1="489.59" y1="362.71" x2="492.23" y2="362.71"/><line class="cls-40" x1="489.59" y1="360.07" x2="492.23" y2="360.07"/><line class="cls-40" x1="489.59" y1="357.42" x2="492.23" y2="357.42"/><path class="cls-41" d="M73.24,271.56c7.93-.11,16.94,4.1,27,3.95,8.22-.12,17.12-4.58,26.88-4.7,8.38-.1,17.39,4.15,27,4.06,8.48-.07,17.42-4.47,26.91-4.52,8.55,0,17.54,4.27,26.95,4.26,8.61,0,17.58-4.35,26.94-4.33,8.65,0,17.61,4.39,26.92,4.44,8.68,0,17.69-4.23,27-4.16,8.71.08,17.64,4.51,26.89,4.61,8.73.1,17.76-4.13,27-4,8.76.13,17.67,4.6,26.88,4.75,8.76.15,17.82-4,27-3.87,8.78.17,17.67,4.69,26.84,4.88,8.8.18,17.87-4,27-3.75,8.8.21,17.68,4.76,26.83,5"/><text class="cls-35" transform="translate(14.71 319.07) rotate(90)">(4 1/16&quot; )</text><text class="cls-35" transform="translate(284.84 426.98)">(19 1/8&quot;)</text><text class="cls-29" transform="translate(444.69 300.01) rotate(90)">BACK BRACES</text><polyline class="cls-42" points="226.73 308.92 226.73 251.68 248.25 260.26"/><g class="cls-43"><polygon class="cls-44" points="314.38 359.08 314.38 377.68 319.66 377.36 319.66 358.77 314.38 359.08"/><polygon class="cls-44" points="312.52 359.19 312.52 377.79 314.38 377.68 314.38 359.08 312.52 359.19"/><polygon class="cls-44" points="326.8 358.35 326.8 376.94 328.66 376.83 328.66 358.24 326.8 358.35"/><polygon class="cls-44" points="321.52 358.66 321.52 377.25 326.8 376.94 326.8 358.35 321.52 358.66"/><polygon class="cls-44" points="307.25 359.5 307.25 378.1 312.52 377.79 312.52 359.19 307.25 359.5"/><polygon class="cls-44" points="284.59 360.85 284.59 379.44 291.11 379.06 291.11 360.46 284.59 360.85"/><polygon class="cls-44" points="291.11 360.46 291.11 379.06 292.97 378.94 292.97 360.35 291.11 360.46"/><polygon class="cls-44" points="292.97 360.35 292.97 378.94 298.25 378.63 298.25 360.04 292.97 360.35"/><polygon class="cls-44" points="305.38 359.61 305.38 378.21 307.25 378.1 307.25 359.5 305.38 359.61"/><polygon class="cls-44" points="328.66 358.24 328.66 376.83 333.94 376.52 333.94 357.92 328.66 358.24"/><polygon class="cls-44" points="300.11 359.93 300.11 378.52 305.38 378.21 305.38 359.61 300.11 359.93"/><polygon class="cls-44" points="298.25 360.04 298.25 378.63 300.11 378.52 300.11 359.93 298.25 360.04"/><polygon class="cls-44" points="319.66 358.77 319.66 377.36 321.52 377.25 321.52 358.66 319.66 358.77"/><polygon class="cls-44" points="355.35 356.65 355.35 375.25 357.22 375.14 357.22 356.55 355.35 356.65"/><polygon class="cls-44" points="362.49 356.23 362.49 374.83 364.36 374.72 364.36 356.12 362.49 356.23"/><polygon class="cls-44" points="357.22 356.55 357.22 375.14 362.49 374.83 362.49 356.23 357.22 356.55"/><polygon class="cls-44" points="364.36 356.12 364.36 374.72 369.63 374.4 369.63 355.81 364.36 356.12"/><polygon class="cls-44" points="376.62 355.4 371.49 355.7 371.49 374.29 376.62 373.99 376.62 355.4"/><polygon class="cls-44" points="369.63 355.81 369.63 374.4 371.49 374.29 371.49 355.7 369.63 355.81"/><polygon class="cls-44" points="350.08 356.97 350.08 375.56 355.35 375.25 355.35 356.65 350.08 356.97"/><polygon class="cls-44" points="341.08 357.5 341.08 376.1 342.94 375.99 342.94 357.39 341.08 357.5"/><polygon class="cls-44" points="335.8 357.81 335.8 376.41 341.08 376.1 341.08 357.5 335.8 357.81"/><polygon class="cls-44" points="333.94 357.92 333.94 376.52 335.8 376.41 335.8 357.81 333.94 357.92"/><polygon class="cls-44" points="348.21 357.08 348.21 375.67 350.08 375.56 350.08 356.97 348.21 357.08"/><polygon class="cls-44" points="342.94 357.39 342.94 375.99 348.21 375.67 348.21 357.08 342.94 357.39"/></g><polygon class="cls-45" points="314.38 359.08 314.38 377.68 319.66 377.36 319.66 358.77 314.38 359.08"/><polygon class="cls-45" points="312.52 359.19 312.52 377.79 314.38 377.68 314.38 359.08 312.52 359.19"/><polygon class="cls-45" points="326.8 358.35 326.8 376.94 328.66 376.83 328.66 358.24 326.8 358.35"/><polygon class="cls-45" points="321.52 358.66 321.52 377.25 326.8 376.94 326.8 358.35 321.52 358.66"/><polygon class="cls-45" points="307.25 359.5 307.25 378.1 312.52 377.79 312.52 359.19 307.25 359.5"/><polygon class="cls-45" points="284.59 360.85 284.59 379.44 291.11 379.06 291.11 360.46 284.59 360.85"/><polygon class="cls-45" points="291.11 360.46 291.11 379.06 292.97 378.94 292.97 360.35 291.11 360.46"/><polygon class="cls-45" points="292.97 360.35 292.97 378.94 298.25 378.63 298.25 360.04 292.97 360.35"/><polygon class="cls-45" points="305.38 359.61 305.38 378.21 307.25 378.1 307.25 359.5 305.38 359.61"/><polygon class="cls-45" points="328.66 358.24 328.66 376.83 333.94 376.52 333.94 357.92 328.66 358.24"/><polygon class="cls-45" points="300.11 359.93 300.11 378.52 305.38 378.21 305.38 359.61 300.11 359.93"/><polygon class="cls-45" points="298.25 360.04 298.25 378.63 300.11 378.52 300.11 359.93 298.25 360.04"/><polygon class="cls-45" points="319.66 358.77 319.66 377.36 321.52 377.25 321.52 358.66 319.66 358.77"/><polygon class="cls-45" points="355.35 356.65 355.35 375.25 357.22 375.14 357.22 356.55 355.35 356.65"/><polygon class="cls-45" points="362.49 356.23 362.49 374.83 364.36 374.72 364.36 356.12 362.49 356.23"/><polygon class="cls-45" points="357.22 356.55 357.22 375.14 362.49 374.83 362.49 356.23 357.22 356.55"/><polygon class="cls-45" points="364.36 356.12 364.36 374.72 369.63 374.4 369.63 355.81 364.36 356.12"/><polygon class="cls-45" points="376.62 355.4 371.49 355.7 371.49 374.29 376.62 373.99 376.62 355.4"/><polygon class="cls-45" points="369.63 355.81 369.63 374.4 371.49 374.29 371.49 355.7 369.63 355.81"/><polygon class="cls-45" points="350.08 356.97 350.08 375.56 355.35 375.25 355.35 356.65 350.08 356.97"/><polygon class="cls-45" points="341.08 357.5 341.08 376.1 342.94 375.99 342.94 357.39 341.08 357.5"/><polygon class="cls-45" points="335.8 357.81 335.8 376.41 341.08 376.1 341.08 357.5 335.8 357.81"/><polygon class="cls-45" points="333.94 357.92 333.94 376.52 335.8 376.41 335.8 357.81 333.94 357.92"/><polygon class="cls-45" points="348.21 357.08 348.21 375.67 350.08 375.56 350.08 356.97 348.21 357.08"/><polygon class="cls-45" points="342.94 357.39 342.94 375.99 348.21 375.67 348.21 357.08 342.94 357.39"/><rect class="cls-46" width="660.77" height="660.77"/></g></g></svg>