<svg xmlns="http://www.w3.org/2000/svg" viewBox="0 0 678.69 678.69"><defs><style>.cls-1,.cls-10,.cls-11,.cls-13,.cls-16,.cls-9{fill:#fff;}.cls-1,.cls-10,.cls-11,.cls-14,.cls-16,.cls-2,.cls-3,.cls-4,.cls-5,.cls-6,.cls-7,.cls-8,.cls-9{stroke:#000;}.cls-1,.cls-10,.cls-11,.cls-12,.cls-13,.cls-14,.cls-15,.cls-16,.cls-2,.cls-3,.cls-4,.cls-5,.cls-6,.cls-7,.cls-8,.cls-9{stroke-miterlimit:10;}.cls-1,.cls-13,.cls-7{stroke-width:0.25px;}.cls-12,.cls-14,.cls-15,.cls-17,.cls-2,.cls-3,.cls-4,.cls-6,.cls-7,.cls-8{fill:none;}.cls-2{stroke-width:1.98px;}.cls-3{stroke-width:0.99px;}.cls-4{stroke-width:0.25px;}.cls-5{fill:#29abe2;stroke-width:0.3px;}.cls-6{stroke-width:3.06px;}.cls-8{stroke-width:0.33px;}.cls-14,.cls-9{stroke-width:0.74px;}.cls-10{stroke-width:0.22px;}.cls-11{stroke-width:0.9px;}.cls-12,.cls-13,.cls-15{stroke:#999;stroke-dasharray:1 1 1 1;}.cls-12{stroke-width:0.22px;}.cls-15{stroke-width:0.33px;}.cls-16{stroke-width:0.62px;}</style></defs><title>Bracing Pattern</title><g id="Layer_2" data-name="Layer 2"><g id="Layer_1-2" data-name="Layer 1"><polygon class="cls-1" points="293.28 519.28 288.7 522.53 109.72 424.16 113.67 420.25 293.28 519.28"/><path class="cls-2" d="M493.68,549.65c79.69-.62,161.09-16.73,153.43-118.25-4.08-54-35.68-91.75-44.86-106-15.9-24.73-13.25-27.52-1-55.05,48-107.91-44.85-117.24-107-117.24h-1c-62.18,0-155,9.33-107,117.24,12.24,27.53,14.88,30.32-1,55.05-9.17,14.27-40.78,52-44.85,106C332.59,532.92,414,549,493.68,549.65"/><path class="cls-3" d="M611.68,210.34l-236.08,0c-.2,1.6-.33,3.26-.41,5l236.9,0C612,213.6,611.88,211.94,611.68,210.34Z"/><path class="cls-3" d="M593.5,279.7,393,279.64c.77,1.77,1.48,3.41,2.12,5l196.31,0Q592.34,282.34,593.5,279.7Z"/><path class="cls-3" d="M614.47,349.07l-242,.06c-1,1.6-1.89,3.14-2.91,4.85l247.61,0C616.15,352.24,615.47,350.66,614.47,349.07Z"/><path class="cls-3" d="M642.46,418.36H344.6c-.27,1.64-.51,3.29-.73,5H643.19C643,421.65,642.73,420,642.46,418.36Z"/><path class="cls-3" d="M350.76,487.81q1,2.55,2.22,5l281.89,0c.78-1.61,1.28-3.25,2-4.95Z"/><line class="cls-4" x1="375.9" y1="210.27" x2="493.68" y2="212.76"/><line class="cls-4" x1="393.22" y1="279.79" x2="493.68" y2="282.15"/><line class="cls-4" x1="372.47" y1="349.13" x2="493.68" y2="351.55"/><polygon class="cls-4" points="343.95 423.35 344.68 418.39 493.68 420.97 343.95 423.35"/><polygon class="cls-4" points="642.38 417.93 643.11 422.88 493.68 420.97 642.38 417.93"/><polygon class="cls-4" points="636.22 487.69 634.71 492.64 493.68 490.36 636.22 487.69"/><polyline class="cls-4" points="394.7 284.39 493.68 282.15 593.26 279.7"/><line class="cls-4" x1="591.14" y1="284.65" x2="493.68" y2="282.15"/><polyline class="cls-4" points="617.17 353.95 493.68 351.55 614.47 349.07"/><line class="cls-4" x1="370.96" y1="353.98" x2="493.68" y2="351.55"/><polyline class="cls-4" points="351.06 487.86 493.68 490.36 353.21 492.75"/><polyline class="cls-4" points="375.49 215.23 493.68 212.76 611.54 210.3"/><line class="cls-4" x1="611.42" y1="215.26" x2="493.68" y2="212.76"/><path class="cls-5" d="M516,154.45c-3.37-.2-6.87-.36-10.42-.47l-.07,7.34c3.35.11,6.49.24,9.56.42Z"/><path class="cls-5" d="M534.43,163.47l2.77-7c-3.12-.42-6.34-.79-9.59-1.1l-1.71,7.22C528.94,162.83,531.75,163.13,534.43,163.47Z"/><path class="cls-5" d="M526.59,155.24c-3.07-.28-6.29-.53-9.61-.73l-.93,7.29c3,.18,5.92.4,8.83.66Z"/><path class="cls-5" d="M504.52,154c-3.34-.1-6.77-.16-10.44-.19v7.33c3.55,0,7,.1,10.37.2Z"/><path class="cls-5" d="M493.06,161.09v-7.33c-3.66,0-7.09.09-10.44.19l.08,7.34C486,161.19,489.52,161.12,493.06,161.09Z"/><path class="cls-5" d="M568.91,171.37l7.24-5.13a116.33,116.33,0,0,0-13.54-4.72l-5.26,6.23A117.56,117.56,0,0,1,568.91,171.37Z"/><path class="cls-5" d="M587.77,181.49l9.3-2.24a61.77,61.77,0,0,0-8.23-6.35l-8.79,3.56A61.51,61.51,0,0,1,587.77,181.49Z"/><path class="cls-5" d="M595.28,188.67l9-1.21a50.92,50.92,0,0,0-6.33-7.37l-9.19,2.21A46.77,46.77,0,0,1,595.28,188.67Z"/><path class="cls-5" d="M545.45,165.15l3.86-6.77c-3.5-.67-7.21-1.28-11.07-1.81l-2.77,7C538.85,164.05,542.21,164.56,545.45,165.15Z"/><path class="cls-5" d="M578.9,175.82l8.87-3.59a81.4,81.4,0,0,0-10.52-5.52l-7.2,5.1A84,84,0,0,1,578.9,175.82Z"/><path class="cls-5" d="M597.69,191.85a39.15,39.15,0,0,1,3.09,5.51l8.67-.46a48.76,48.76,0,0,0-4.49-8.49L596,189.6C596.65,190.39,597.21,191.14,597.69,191.85Z"/><path class="cls-5" d="M556.26,167.46l5.27-6.24c-3.54-1-7.28-1.86-11.17-2.63l-3.85,6.75C549.86,166,553.13,166.68,556.26,167.46Z"/><path class="cls-5" d="M405.52,306.06a28.58,28.58,0,0,0,.87-8h-8.47a22.13,22.13,0,0,1-.89,8Z"/><path class="cls-5" d="M385.94,198.36l-8.64-.46a51.59,51.59,0,0,0-2.55,9.25l8.56-.39A43.74,43.74,0,0,1,385.94,198.36Z"/><path class="cls-5" d="M389.46,191.85c.47-.71,1-1.46,1.66-2.25l-8.93-1.19a48.09,48.09,0,0,0-4.49,8.49l8.67.46A39.15,39.15,0,0,1,389.46,191.85Z"/><path class="cls-5" d="M398.37,182.3l-9.19-2.21a51.63,51.63,0,0,0-6.34,7.37l9,1.21A46.77,46.77,0,0,1,398.37,182.3Z"/><path class="cls-5" d="M382.25,217.41l-8.48.67a80.07,80.07,0,0,0,.6,9.83l8.48-1A72,72,0,0,1,382.25,217.41Z"/><path class="cls-5" d="M383.12,207.79l-8.56.39a63,63,0,0,0-.77,8.88l8.47-.67A55.07,55.07,0,0,1,383.12,207.79Z"/><path class="cls-5" d="M383,228l-8.49,1c.4,3,.94,6.1,1.63,9.15l8.54-1.24C384,233.79,383.39,230.81,383,228Z"/><path class="cls-5" d="M407.1,176.46l-8.79-3.56a61.13,61.13,0,0,0-8.23,6.35l9.29,2.24A62.38,62.38,0,0,1,407.1,176.46Z"/><path class="cls-5" d="M440.64,165.34l-3.86-6.75c-3.88.77-7.62,1.66-11.16,2.63l5.27,6.24C434,166.68,437.29,166,440.64,165.34Z"/><path class="cls-5" d="M461.24,162.55l-1.7-7.22c-3.25.31-6.47.68-9.59,1.1l2.77,7C455.4,163.13,458.21,162.83,461.24,162.55Z"/><path class="cls-5" d="M471.1,161.8l-.93-7.29c-3.32.2-6.54.45-9.61.73l1.71,7.22C465.18,162.2,468.15,162,471.1,161.8Z"/><path class="cls-5" d="M451.68,163.6l-2.77-7c-3.86.53-7.58,1.14-11.07,1.81l3.86,6.77C444.94,164.56,448.29,164.05,451.68,163.6Z"/><path class="cls-5" d="M481.68,161.32l-.07-7.34c-3.55.11-7.05.27-10.42.47l.93,7.29C475.19,161.56,478.33,161.43,481.68,161.32Z"/><path class="cls-5" d="M429.8,167.75l-5.26-6.23A118.22,118.22,0,0,0,411,166.24l7.24,5.13A116.72,116.72,0,0,1,429.8,167.75Z"/><path class="cls-5" d="M417.1,171.81l-7.2-5.1a82,82,0,0,0-10.52,5.52l8.87,3.59A84,84,0,0,1,417.1,171.81Z"/><path class="cls-5" d="M585.53,316.05h9.1a49.75,49.75,0,0,1-4.2-9H581.9A49.33,49.33,0,0,0,585.53,316.05Z"/><path class="cls-5" d="M631.38,395.67l8.56-.22c-.91-2.77-1.89-5.52-2.92-8.18l-8.67.22C629.42,390.17,630.44,392.91,631.38,395.67Z"/><path class="cls-5" d="M628,386.48l8.67-.22c-1.18-3-2.45-6-3.82-9l-8.82.23C625.4,380.49,626.73,383.5,628,386.48Z"/><path class="cls-5" d="M634.59,406.36l8.47-.22c-.8-3.18-1.74-6.43-2.79-9.67l-8.55.22C632.77,399.87,633.74,403.12,634.59,406.36Z"/><path class="cls-5" d="M623.51,376.5l8.82-.23c-1.36-2.92-2.77-5.8-4.23-8.56l-9,.23C620.67,370.82,622.15,373.69,623.51,376.5Z"/><path class="cls-5" d="M612.45,356.61l9.24-.24c-1.69-2.79-3.46-5.59-5.4-8.52l-9.44.25C608.84,351,610.68,353.81,612.45,356.61Z"/><path class="cls-5" d="M636.83,416.36l8.43-.21c-.54-2.93-1.19-5.95-1.94-9l-8.48.22C635.59,410.33,636.26,413.35,636.83,416.36Z"/><path class="cls-5" d="M618.55,366.94l9-.24c-1.64-3.08-3.41-6.22-5.27-9.32l-9.23.24C615,360.71,616.83,363.84,618.55,366.94Z"/><path class="cls-5" d="M603.83,206.76l8.57.39a52.44,52.44,0,0,0-2.55-9.25l-8.64.46A43.72,43.72,0,0,1,603.83,206.76Z"/><path class="cls-5" d="M638.86,431.52c.14,1.8.26,3.67.34,5.54l8.42-.22c-.09-1.95-.19-3.65-.32-5.27s-.27-3.13-.46-4.76l-8.41.22C638.62,428.72,638.76,430.17,638.86,431.52Z"/><polygon class="cls-5" points="581.71 537.4 581.88 537.88 581.71 537.4 581.71 537.4"/><path class="cls-5" d="M638.3,426l8.42-.21c-.34-2.89-.76-5.79-1.27-8.64l-8.44.22C637.53,420.26,638,423.16,638.3,426Z"/><path class="cls-5" d="M606.17,347.09l9.45-.24c-1.79-2.69-3.68-5.41-5.74-8.3l-9.6.25C602,341.23,604.06,344,606.17,347.09Z"/><polygon class="cls-5" points="607.12 513.93 607.07 513.87 607.07 513.87 607.12 513.93"/><path class="cls-5" d="M580.76,298.06a28.58,28.58,0,0,0,.87,8h8.49a22.36,22.36,0,0,1-.9-8Z"/><path class="cls-5" d="M602.48,236.83l8.54,1.24c.68-3,1.23-6.12,1.63-9.15l-8.49-1C603.77,230.8,603.2,233.78,602.48,236.83Z"/><path class="cls-5" d="M599.49,247.34,608,249c1.11-3.47,2-6.79,2.77-9.89l-8.55-1.23C601.49,240.88,600.56,244.07,599.49,247.34Z"/><path class="cls-5" d="M592.67,264.64l8.86,1.4c1-2.37,2-4.76,3-7.13l-8.65-1.64C594.87,259.65,593.81,262.12,592.67,264.64Z"/><path class="cls-5" d="M596.22,256.31l8.63,1.63c1-2.73,2-5.41,2.85-8l-8.54-1.62C598.28,250.93,597.29,253.61,596.22,256.31Z"/><path class="cls-5" d="M604.89,216.39l8.47.67a63.21,63.21,0,0,0-.78-8.88l-8.55-.39A54.94,54.94,0,0,1,604.89,216.39Z"/><path class="cls-5" d="M604.29,226.94l8.49,1a80,80,0,0,0,.59-9.83l-8.47-.67A72.1,72.1,0,0,1,604.29,226.94Z"/><path class="cls-5" d="M585.09,281.49l9.06.72c1-2.2,2.07-4.57,3.45-7.54l-9.05-1.06C587.08,276.81,586,279.29,585.09,281.49Z"/><path class="cls-5" d="M590.1,270.25,589,272.64l9.06,1.06,1.6-3.46c.51-1.09,1-2.16,1.46-3.24l-8.87-1.39Z"/><path class="cls-5" d="M384.91,237.83l-8.55,1.23c.73,3.1,1.66,6.42,2.77,9.89l8.53-1.61C386.59,244.08,385.66,240.89,384.91,237.83Z"/><path class="cls-5" d="M592,327l9.49-.13c-.26-.37-.51-.74-.74-1.09-2.27-3.4-4.08-6.25-5.53-8.72h-9.16C587.59,320,589.54,323.23,592,327Z"/><path class="cls-5" d="M580.81,297h8.51a32.6,32.6,0,0,1,1.4-6.14h-8.88A35.14,35.14,0,0,0,580.81,297Z"/><path class="cls-5" d="M593.6,329.44c1.38,2.06,3.13,4.47,5.16,7.26l.8,1.1,9.61-.25c-1.21-1.69-2.36-3.27-3.42-4.72-1.32-1.83-2.52-3.47-3.55-4.94l-9.54.13Z"/><path class="cls-5" d="M582.12,289.88h8.93c.65-1.89,1.49-4,2.66-6.68l-9-.72A72.79,72.79,0,0,0,582.12,289.88Z"/><path class="cls-5" d="M501.65,540.36l-.09,8.66c4.81-.14,9.51-.35,14-.61l-.21-8.7C510.92,540,506.32,540.21,501.65,540.36Z"/><path class="cls-5" d="M493.56,540.57q-3.58-.06-7-.17l.09,8.65q3.48.11,7,.16t7-.16l.09-8.65c-2.31.07-4.65.13-7.05.17"/><path class="cls-5" d="M516.35,539.64l.21,8.7c3.92-.24,7.81-.54,11.58-.88l-.5-8.72C524,539.08,520.24,539.39,516.35,539.64Z"/><path class="cls-5" d="M528.65,538.64l.51,8.72c4.52-.43,8.94-.94,13.15-1.51l-1.42-8.66C536.93,537.74,532.82,538.23,528.65,538.64Z"/><path class="cls-5" d="M471.82,539.71l-.22,8.7c4.48.26,9.18.47,14,.61l-.09-8.66C480.83,540.21,476.23,540,471.82,539.71Z"/><path class="cls-5" d="M541.9,537.05l1.42,8.65c4.62-.65,9.12-1.4,13.39-2.24l-2.72-8.4C550.14,535.79,546.08,536.46,541.9,537.05Z"/><path class="cls-5" d="M421.28,532.46l-4,8c3.86,1,7.95,2,12.19,2.82l2.72-8.4C428.39,534.13,424.74,533.33,421.28,532.46Z"/><path class="cls-5" d="M459,547.46c3.77.34,7.66.64,11.58.88l.21-8.7c-3.89-.25-7.68-.56-11.29-.9Z"/><path class="cls-5" d="M399,525.11l-3.9,7.71c3.2,1.4,6.6,2.73,10.14,3.95l4-7.82C405.57,527.75,402.14,526.47,399,525.11Z"/><path class="cls-5" d="M555,534.86l2.72,8.4c4.24-.85,8.33-1.8,12.19-2.82l-4-8C562.4,533.33,558.75,534.13,555,534.86Z"/><path class="cls-5" d="M410.13,529.27l-4,7.83c3.28,1.12,6.66,2.15,10.07,3.07l4-8C416.76,531.3,413.35,530.32,410.13,529.27Z"/><path class="cls-5" d="M433.16,535.06l-2.73,8.4c4.28.84,8.78,1.59,13.4,2.24l1.42-8.65C441.07,536.46,437,535.79,433.16,535.06Z"/><path class="cls-5" d="M444.84,545.85c4.21.57,8.63,1.08,13.15,1.51l.5-8.72c-4.17-.42-8.28-.9-12.23-1.45Z"/><path class="cls-5" d="M578,529l4,7.82c3.54-1.22,6.94-2.55,10.14-3.95l-3.9-7.71C585,526.47,581.58,527.75,578,529Z"/><path class="cls-5" d="M638.79,456l8.52.31c.24-2.77.39-5.68.46-8.65l-8.48.22C639.21,450.57,639,453.3,638.79,456Z"/><path class="cls-5" d="M637.41,465.86l8.41,1.47c.6-3.24,1.07-6.61,1.39-10l-8.52-.31C638.38,460,638,463,637.41,465.86Z"/><path class="cls-5" d="M634.86,476l8.23,2.49a99.35,99.35,0,0,0,2.54-10.2l-8.42-1.47A90.54,90.54,0,0,1,634.86,476Z"/><path class="cls-5" d="M631.28,485.37,639,489.2a89,89,0,0,0,3.74-9.69l-8.23-2.5A76.84,76.84,0,0,1,631.28,485.37Z"/><path class="cls-5" d="M639.25,438.08c.11,2.87.13,5.75.07,8.76l8.46-.22c.05-2.89,0-5.83-.12-8.76Z"/><path class="cls-5" d="M624.61,496.94l7.49,4.46a79,79,0,0,0,6.51-11.28l-7.76-3.83A73.31,73.31,0,0,1,624.61,496.94Z"/><path class="cls-5" d="M598.74,519.93,603,527.4a100.92,100.92,0,0,0,9.4-6L607,514.63A91.64,91.64,0,0,1,598.74,519.93Z"/><path class="cls-5" d="M566.88,532.2l4,8c3.41-.92,6.79-1.95,10.08-3.07l-4-7.83C573.8,530.32,570.39,531.3,566.88,532.2Z"/><path class="cls-5" d="M389.3,520.42,385,527.9c2.89,1.6,5.93,3.11,9.07,4.51l3.9-7.71C395,523.37,392.05,521.94,389.3,520.42Z"/><path class="cls-5" d="M589.13,524.7l3.91,7.71c3.13-1.4,6.18-2.91,9.07-4.51l-4.26-7.48C595.1,521.94,592.18,523.37,589.13,524.7Z"/><path class="cls-5" d="M388,248.31l-8.54,1.62c.84,2.6,1.8,5.28,2.85,8l8.63-1.63C389.86,253.61,388.87,250.93,388,248.31Z"/><path class="cls-5" d="M617.88,505.14l-.7.72,6.27,6a80.11,80.11,0,0,0,8.06-9.64l-7.5-4.47A71.3,71.3,0,0,1,617.88,505.14Z"/><path class="cls-5" d="M607.84,514l5.39,6.75a85.64,85.64,0,0,0,9.5-8.17l-6.27-6A78.87,78.87,0,0,1,607.84,514Z"/><path class="cls-5" d="M380.3,348.1l-9.44-.25c-1.94,2.92-3.71,5.72-5.4,8.52l9.24.24C376.46,353.82,378.3,351,380.3,348.1Z"/><path class="cls-5" d="M401.09,317.07h-9.16c-1.46,2.48-3.22,5.26-5.53,8.72-.23.35-.49.72-.75,1.09l9.5.13C397.61,323.23,399.56,320,401.09,317.07Z"/><path class="cls-5" d="M388.46,336.6c2-2.75,3.73-5.13,5.09-7.16l.94-1.42-9.54-.13c-1,1.47-2.23,3.11-3.56,4.94-1.05,1.45-2.2,3-3.41,4.72l9.61.25Z"/><path class="cls-5" d="M386.87,338.8l-9.61-.25c-2.05,2.89-3.94,5.61-5.73,8.3l9.45.24C383.09,344,385.11,341.23,386.87,338.8Z"/><path class="cls-5" d="M374.08,357.62l-9.23-.24c-1.86,3.11-3.63,6.24-5.27,9.32l9,.24C370.31,363.84,372.15,360.71,374.08,357.62Z"/><path class="cls-5" d="M363.17,377.51l-8.82-.23c-1.37,3-2.64,6-3.82,9l8.67.22C360.42,383.5,361.75,380.49,363.17,377.51Z"/><path class="cls-5" d="M368.05,367.94l-9-.23c-1.45,2.77-2.87,5.65-4.22,8.56l8.82.23C365,373.69,366.48,370.82,368.05,367.94Z"/><path class="cls-5" d="M397.05,270.25l-2.14-4.64L386,267c.48,1.08.95,2.15,1.46,3.24l1.6,3.46,9-1.06C397.8,271.86,397.43,271.07,397.05,270.25Z"/><path class="cls-5" d="M405.25,307.08h-8.54a49,49,0,0,1-4.19,9h9.1A50.06,50.06,0,0,0,405.25,307.08Z"/><path class="cls-5" d="M398.6,273.61l-9.05,1.06c1.38,3,2.47,5.34,3.45,7.54l9.06-.72C401.16,279.29,400.07,276.81,398.6,273.61Z"/><path class="cls-5" d="M391.31,257.27l-8.64,1.64c.93,2.38,1.92,4.77,2.95,7.13l8.85-1.4C393.34,262.12,392.28,259.65,391.31,257.27Z"/><path class="cls-5" d="M402.46,282.48l-9,.72c1.18,2.69,2,4.79,2.67,6.68H405A70.69,70.69,0,0,0,402.46,282.48Z"/><path class="cls-5" d="M406.34,297a34.83,34.83,0,0,0-1-6.14h-8.88a31.76,31.76,0,0,1,1.39,6.14Z"/><path class="cls-5" d="M352.6,477l-8.23,2.5a89,89,0,0,0,3.73,9.69l7.76-3.83A78.91,78.91,0,0,1,352.6,477Z"/><path class="cls-5" d="M380.13,514.63l-5.39,6.75a102.44,102.44,0,0,0,9.41,6l4.26-7.47A88.91,88.91,0,0,1,380.13,514.63Z"/><path class="cls-5" d="M356.3,486.29l-7.76,3.83a79.55,79.55,0,0,0,6.51,11.28l7.49-4.46A72.41,72.41,0,0,1,356.3,486.29Z"/><path class="cls-5" d="M348.45,457l-8.52.31c.33,3.42.8,6.79,1.4,10l8.41-1.47C349.2,463,348.77,460,348.45,457Z"/><path class="cls-5" d="M349.94,466.86l-8.42,1.47a100.67,100.67,0,0,0,2.54,10.2l8.23-2.49A86.77,86.77,0,0,1,349.94,466.86Z"/><path class="cls-5" d="M358.79,387.49l-8.66-.22c-1,2.67-2,5.42-2.92,8.18l8.56.22C356.71,392.91,357.72,390.17,358.79,387.49Z"/><path class="cls-5" d="M370.69,506.58l-6.27,6a85.64,85.64,0,0,0,9.5,8.17l5.39-6.75A77,77,0,0,1,370.69,506.58Z"/><path class="cls-5" d="M369.27,505.14a72.66,72.66,0,0,1-6.14-7.37l-7.5,4.47a79.42,79.42,0,0,0,8.07,9.64l6.27-6Z"/><path class="cls-5" d="M347.86,447.86l-8.48-.22c.06,3,.22,5.88.46,8.65l8.52-.31C348.11,453.31,347.94,450.58,347.86,447.86Z"/><path class="cls-5" d="M350.14,417.38l-8.44-.22c-.51,2.85-.93,5.75-1.28,8.64l8.42.21C349.18,423.16,349.62,420.26,350.14,417.38Z"/><path class="cls-5" d="M355.43,396.69l-8.56-.22c-1,3.24-2,6.49-2.79,9.67l8.48.22C353.41,403.13,354.37,399.88,355.43,396.69Z"/><path class="cls-5" d="M352.31,407.37l-8.48-.22c-.75,3.05-1.4,6.07-1.94,9l8.43.21C350.89,413.35,351.55,410.34,352.31,407.37Z"/><path class="cls-5" d="M348.29,431.52c.1-1.38.25-2.83.43-4.49l-8.42-.22c-.18,1.67-.33,3.24-.45,4.76s-.23,3.31-.33,5.27l8.43.22C348,435.22,348.14,433.35,348.29,431.52Z"/><path class="cls-5" d="M347.9,438.08l-8.42-.22c-.12,2.95-.16,5.89-.12,8.76l8.47.22C347.77,443.84,347.79,441,347.9,438.08Z"/><path class="cls-2" d="M493.68,550c79.69-.62,161.09-16.73,153.43-118.25-4.08-54-35.68-91.75-44.86-106-15.9-24.74-13.25-27.53-1-55.05,48-107.91-44.85-117.24-107-117.24h-1c-62.18,0-155,9.33-107,117.24,12.24,27.52,14.88,30.31-1,55.05-9.17,14.27-40.78,52-44.85,106C332.59,533.24,414,549.35,493.68,550"/><circle class="cls-6" cx="174.4" cy="268.15" r="35.68"/><path class="cls-7" d="M56.37,241c-.75-3.16-1.35-6.22-1.78-9.15"/><polygon class="cls-1" points="135.71 390.7 131.97 394.46 68.41 330.82 71.23 326.26 135.71 390.7"/><polygon class="cls-1" points="98.91 428.48 95.17 432.24 39.59 376.51 42.41 371.95 98.91 428.48"/><polygon class="cls-1" points="244.33 540.85 237.26 542.51 87.76 441.66 89.83 436.59 244.33 540.85"/><polygon class="cls-1" points="244.53 425.22 248.27 428.99 306.43 370.76 303.6 366.2 244.53 425.22"/><polygon class="cls-1" points="211.28 388.76 215.02 392.52 278.59 328.88 275.76 324.32 211.28 388.76"/><polygon class="cls-1" points="110.67 291.82 114.82 295.65 144.33 224.29 138.72 224.17 110.67 291.82"/><polygon class="cls-1" points="237.88 292.96 233.26 295.65 203.75 224.29 209.36 224.17 237.88 292.96"/><path class="cls-8" d="M211.28,545.21l-13.38.58q-23.49,1-47,0l-13.39-.58V533.27a6.47,6.47,0,0,1,6.59-6.33h60.59a6.47,6.47,0,0,1,6.59,6.33Z"/><path class="cls-9" d="M56.54,224.29H292.26a69.27,69.27,0,0,0-1.22-18.9H57.76A68.49,68.49,0,0,0,56.54,224.29Z"/><polygon class="cls-10" points="238.66 423.34 111.45 422.8 141.29 392.52 210.08 392.52 238.66 423.34"/><path class="cls-1" d="M59.07,236.46c.44,2.94,1,6,1.78,9.16l251.32,251.2c.93-1.53,1.8-3.11,2.64-4.73Z"/><path class="cls-1" d="M290.05,236.46c-.44,2.94-1,6-1.79,9.16L36.94,496.82c-.93-1.53-1.8-3.11-2.64-4.73Z"/><path class="cls-9" d="M100,205.39s9.38,8.43,0,18.78"/><path class="cls-9" d="M249.1,205.39s-9.37,8.43,0,18.78"/><path class="cls-11" d="M202,185.5H146.82a5.3,5.3,0,0,1-5.3-5.3v-22h0a534.05,534.05,0,0,1,65.74,0h0v22A5.3,5.3,0,0,1,202,185.5Z"/><circle class="cls-6" cx="174.51" cy="268.18" r="35.68"/><polygon class="cls-1" points="135.82 390.73 132.09 394.49 68.52 330.85 71.34 326.29 135.82 390.73"/><polygon class="cls-1" points="99.02 428.51 95.28 432.27 39.7 376.54 42.53 371.98 99.02 428.51"/><polygon class="cls-1" points="244.45 540.88 237.37 542.54 87.87 441.69 89.94 436.62 244.45 540.88"/><polygon class="cls-1" points="244.65 425.25 248.38 429.02 306.54 370.79 303.72 366.23 244.65 425.25"/><polygon class="cls-1" points="211.4 388.79 215.14 392.56 278.7 328.91 275.88 324.35 211.4 388.79"/><polygon class="cls-1" points="110.78 291.85 114.93 295.68 144.44 224.32 138.83 224.2 110.78 291.85"/><polygon class="cls-1" points="237.99 292.99 233.37 295.68 203.86 224.32 209.47 224.2 237.99 292.99"/><path class="cls-8" d="M211.4,545.24l-13.39.59q-23.49,1-47,0l-13.39-.59V533.3a6.46,6.46,0,0,1,6.6-6.32h60.59a6.46,6.46,0,0,1,6.59,6.32Z"/><path class="cls-1" d="M290.16,236.49c-.44,2.94-1,6-1.78,9.16L37.05,496.85q-1.38-2.3-2.64-4.73Z"/><path class="cls-11" d="M202.09,185.53H146.94a5.3,5.3,0,0,1-5.3-5.3v-22h0a534.22,534.22,0,0,1,65.75,0h0v22A5.3,5.3,0,0,1,202.09,185.53Z"/><path class="cls-1" d="M290.16,236.49c-.44,2.94-1,6-1.78,9.16L37.05,496.85q-1.38-2.3-2.64-4.73Z"/><polygon class="cls-10" points="238.77 423.37 111.57 422.83 141.4 392.56 210.19 392.56 238.77 423.37"/><line class="cls-12" x1="116.32" y1="420.25" x2="233.83" y2="420.25"/><line class="cls-12" x1="118.39" y1="417.52" x2="231.98" y2="417.52"/><line class="cls-12" x1="121.21" y1="414.79" x2="228.51" y2="414.79"/><line class="cls-12" x1="124.14" y1="412.05" x2="226.55" y2="412.05"/><line class="cls-12" x1="127.18" y1="409.32" x2="224.71" y2="409.32"/><line class="cls-12" x1="129.46" y1="406.59" x2="221.98" y2="406.59"/><line class="cls-12" x1="132.29" y1="403.85" x2="219.24" y2="403.85"/><line class="cls-12" x1="134.89" y1="401.12" x2="216.51" y2="401.12"/><line class="cls-12" x1="137.5" y1="398.39" x2="213.77" y2="398.39"/><line class="cls-12" x1="139.89" y1="395.65" x2="211.04" y2="395.65"/><path class="cls-1" d="M59.18,236.49c.44,2.94,1,6,1.78,9.16l251.33,251.2q1.38-2.3,2.64-4.73Z"/><line class="cls-13" x1="59.02" y1="207.59" x2="290" y2="207.59"/><line class="cls-13" x1="58.98" y1="209.42" x2="289.96" y2="209.42"/><line class="cls-13" x1="58.94" y1="211.25" x2="289.92" y2="211.25"/><line class="cls-13" x1="58.9" y1="213.09" x2="289.88" y2="213.09"/><line class="cls-13" x1="58.86" y1="214.92" x2="289.84" y2="214.92"/><line class="cls-13" x1="58.82" y1="216.75" x2="289.8" y2="216.75"/><line class="cls-13" x1="58.78" y1="218.58" x2="289.76" y2="218.58"/><line class="cls-13" x1="58.74" y1="220.42" x2="289.72" y2="220.42"/><line class="cls-13" x1="58.7" y1="222.25" x2="289.68" y2="222.25"/><path class="cls-14" d="M249.22,205.42s-9.38,8.43,0,18.78"/><path class="cls-14" d="M100.09,205.42s9.37,8.43,0,18.78"/><path class="cls-14" d="M56.65,224.32H292.37a68.91,68.91,0,0,0-1.22-18.9H57.87A69.3,69.3,0,0,0,56.65,224.32Z"/><line class="cls-13" x1="143.4" y1="162.86" x2="205.62" y2="162.86"/><line class="cls-13" x1="143.4" y1="165.47" x2="205.62" y2="165.47"/><line class="cls-13" x1="143.4" y1="168.07" x2="205.62" y2="168.07"/><line class="cls-13" x1="143.4" y1="170.68" x2="205.62" y2="170.68"/><line class="cls-13" x1="143.4" y1="173.29" x2="205.62" y2="173.29"/><line class="cls-13" x1="143.4" y1="175.89" x2="205.62" y2="175.89"/><line class="cls-13" x1="143.4" y1="178.5" x2="205.62" y2="178.5"/><line class="cls-13" x1="143.4" y1="181.1" x2="205.62" y2="181.1"/><line class="cls-13" x1="146.3" y1="183.71" x2="202.66" y2="183.71"/><line class="cls-13" x1="143.4" y1="160.25" x2="205.62" y2="160.25"/><line class="cls-15" x1="139.68" y1="544.6" x2="209.51" y2="544.6"/><line class="cls-15" x1="139.68" y1="542.97" x2="209.51" y2="542.97"/><line class="cls-15" x1="139.68" y1="541.34" x2="209.51" y2="541.34"/><line class="cls-15" x1="139.68" y1="539.71" x2="209.51" y2="539.71"/><line class="cls-15" x1="139.68" y1="538.09" x2="209.51" y2="538.09"/><line class="cls-15" x1="139.68" y1="536.46" x2="209.51" y2="536.46"/><line class="cls-15" x1="139.68" y1="534.83" x2="209.51" y2="534.83"/><line class="cls-15" x1="139.68" y1="533.2" x2="209.51" y2="533.2"/><line class="cls-15" x1="139.68" y1="531.57" x2="209.51" y2="531.57"/><line class="cls-15" x1="140.51" y1="529.92" x2="207.95" y2="529.92"/><line class="cls-15" x1="141.9" y1="528.29" x2="206.73" y2="528.29"/><path class="cls-6" d="M174.4,550.53c79.69-.62,161.08-16.73,153.42-118.25-4.07-54-35.68-91.75-44.85-106-15.9-24.73-13.26-27.52-1-55.05,48-107.91-44.86-117.24-107-117.24h-1c-62.19,0-155,9.33-107,117.24,12.23,27.53,14.88,30.32-1,55.05-9.18,14.27-40.78,52-44.86,106C13.31,533.8,94.7,549.91,174.4,550.53"/><circle class="cls-16" cx="151.4" cy="413.42" r="2.77"/><circle class="cls-16" cx="160.51" cy="413.42" r="2.77"/><circle class="cls-16" cx="170.22" cy="413.42" r="2.77"/><circle class="cls-16" cx="179.72" cy="413.42" r="2.77"/><circle class="cls-16" cx="189.13" cy="413.42" r="2.77"/><circle class="cls-16" cx="197.39" cy="413.42" r="2.77"/><polygon class="cls-1" points="293.17 519.25 288.59 522.5 109.6 424.13 113.55 420.22 293.17 519.25"/><path class="cls-5" d="M196.78,156c-3.37-.2-6.86-.35-10.41-.47l-.08,7.34c3.35.11,6.49.24,9.56.42Z"/><path class="cls-5" d="M215.25,165l2.77-7c-3.12-.42-6.33-.78-9.58-1.09l-1.71,7.21C209.77,164.38,212.57,164.68,215.25,165Z"/><path class="cls-5" d="M207.41,156.79c-3.07-.28-6.29-.53-9.61-.73l-.93,7.29c3,.18,5.92.4,8.83.66Z"/><path class="cls-5" d="M185.35,155.5c-3.35-.1-6.78-.16-10.44-.19v7.33c3.54,0,7,.1,10.36.2Z"/><path class="cls-5" d="M173.89,162.64v-7.33c-3.67,0-7.1.09-10.44.19l.07,7.34C166.86,162.74,170.34,162.67,173.89,162.64Z"/><path class="cls-5" d="M249.73,172.92l7.24-5.13a118.72,118.72,0,0,0-13.53-4.72l-5.27,6.23A116.72,116.72,0,0,1,249.73,172.92Z"/><path class="cls-5" d="M268.6,183l9.3-2.24a61.88,61.88,0,0,0-8.24-6.35L260.87,178A62.38,62.38,0,0,1,268.6,183Z"/><path class="cls-5" d="M276.1,190.22l9-1.2a51.16,51.16,0,0,0-6.34-7.38l-9.19,2.21A47.33,47.33,0,0,1,276.1,190.22Z"/><path class="cls-5" d="M226.27,166.7l3.86-6.77c-3.5-.67-7.21-1.28-11.07-1.81l-2.77,7C219.68,165.6,223,166.11,226.27,166.7Z"/><path class="cls-5" d="M259.72,177.37l8.88-3.59a82.8,82.8,0,0,0-10.53-5.52l-7.2,5.1A84,84,0,0,1,259.72,177.37Z"/><path class="cls-5" d="M278.51,193.4a39.72,39.72,0,0,1,3.09,5.51l8.67-.46a47.44,47.44,0,0,0-4.49-8.49l-8.93,1.19C277.47,191.94,278,192.69,278.51,193.4Z"/><path class="cls-5" d="M237.08,169l5.27-6.25c-3.53-1-7.28-1.86-11.16-2.63l-3.86,6.75C230.68,167.52,234,168.23,237.08,169Z"/><path class="cls-5" d="M86.35,307.61a28.94,28.94,0,0,0,.86-8H78.75a22.36,22.36,0,0,1-.9,8Z"/><path class="cls-5" d="M66.76,199.91l-8.64-.46a52.44,52.44,0,0,0-2.55,9.25l8.57-.39A43,43,0,0,1,66.76,199.91Z"/><path class="cls-5" d="M70.28,193.4c.48-.7,1-1.46,1.67-2.25L63,190a47.39,47.39,0,0,0-4.48,8.49l8.66.46A40.17,40.17,0,0,1,70.28,193.4Z"/><path class="cls-5" d="M79.2,183.85,70,181.64A50.47,50.47,0,0,0,63.67,189l9,1.2A46.31,46.31,0,0,1,79.2,183.85Z"/><path class="cls-5" d="M63.07,219l-8.47.67a82,82,0,0,0,.59,9.83l8.49-1A72.1,72.1,0,0,1,63.07,219Z"/><path class="cls-5" d="M63.94,209.34l-8.55.39a63.07,63.07,0,0,0-.78,8.88l8.47-.67A55.07,55.07,0,0,1,63.94,209.34Z"/><path class="cls-5" d="M63.81,229.5l-8.49,1c.4,3,1,6.11,1.63,9.15l8.54-1.24C64.77,235.34,64.21,232.36,63.81,229.5Z"/><path class="cls-5" d="M87.92,178l-8.79-3.56a61.77,61.77,0,0,0-8.23,6.35L80.2,183A61.51,61.51,0,0,1,87.92,178Z"/><path class="cls-5" d="M121.46,166.89l-3.85-6.75c-3.88.77-7.63,1.66-11.17,2.63l5.28,6.25C114.84,168.23,118.11,167.52,121.46,166.89Z"/><path class="cls-5" d="M142.07,164.1l-1.71-7.21c-3.25.31-6.47.67-9.59,1.09l2.77,7C136.22,164.68,139,164.38,142.07,164.1Z"/><path class="cls-5" d="M151.92,163.35l-.93-7.29c-3.32.2-6.54.45-9.61.73l1.71,7.22C146,163.75,149,163.53,151.92,163.35Z"/><path class="cls-5" d="M132.5,165.16l-2.77-7c-3.86.53-7.57,1.14-11.07,1.81l3.86,6.77C125.76,166.11,129.11,165.6,132.5,165.16Z"/><path class="cls-5" d="M162.5,162.87l-.07-7.34c-3.55.12-7.05.27-10.42.47l.93,7.29C156,163.11,159.15,163,162.5,162.87Z"/><path class="cls-5" d="M110.62,169.3l-5.26-6.23a118.22,118.22,0,0,0-13.54,4.72l7.24,5.13A117.56,117.56,0,0,1,110.62,169.3Z"/><path class="cls-5" d="M97.92,173.36l-7.2-5.1a82.66,82.66,0,0,0-10.52,5.52l8.87,3.59A85,85,0,0,1,97.92,173.36Z"/><path class="cls-5" d="M266.35,317.6h9.1a49,49,0,0,1-4.19-9h-8.54A49.33,49.33,0,0,0,266.35,317.6Z"/><path class="cls-5" d="M312.2,397.23l8.56-.23c-.91-2.77-1.89-5.52-2.92-8.18l-8.66.22C310.25,391.72,311.27,394.46,312.2,397.23Z"/><path class="cls-5" d="M308.77,388l8.67-.22c-1.17-3-2.45-6-3.81-9l-8.82.23C306.22,382,307.56,385.05,308.77,388Z"/><path class="cls-5" d="M315.41,407.91l8.48-.22c-.81-3.18-1.75-6.43-2.79-9.67l-8.56.22C313.6,401.42,314.56,404.67,315.41,407.91Z"/><path class="cls-5" d="M304.33,378.05l8.82-.23c-1.35-2.92-2.77-5.8-4.22-8.56l-9,.23C301.49,372.37,303,375.24,304.33,378.05Z"/><path class="cls-5" d="M293.27,358.16l9.25-.24c-1.7-2.79-3.47-5.59-5.41-8.52l-9.43.25C289.67,352.56,291.51,355.36,293.27,358.16Z"/><path class="cls-5" d="M317.65,417.91l8.44-.21c-.55-2.93-1.2-5.95-1.95-9l-8.48.22C316.42,411.88,317.08,414.9,317.65,417.91Z"/><path class="cls-5" d="M299.37,368.49l9-.24c-1.65-3.08-3.42-6.21-5.28-9.32l-9.23.24C295.82,362.26,297.66,365.39,299.37,368.49Z"/><path class="cls-5" d="M284.66,208.31l8.56.39a51.59,51.59,0,0,0-2.55-9.25l-8.63.46A44.43,44.43,0,0,1,284.66,208.31Z"/><path class="cls-5" d="M319.68,433.07c.15,1.8.26,3.67.35,5.54l8.42-.22c-.09-1.95-.2-3.64-.32-5.27s-.28-3.13-.46-4.75l-8.42.21C319.44,430.27,319.58,431.72,319.68,433.07Z"/><polygon class="cls-5" points="262.53 538.95 262.7 539.44 262.53 538.95 262.53 538.95"/><path class="cls-5" d="M319.13,427.57l8.42-.22c-.35-2.89-.77-5.79-1.28-8.64l-8.44.22C318.35,421.81,318.79,424.71,319.13,427.57Z"/><path class="cls-5" d="M287,348.64l9.45-.24c-1.79-2.69-3.67-5.41-5.73-8.3l-9.61.25C282.86,342.78,284.88,345.58,287,348.64Z"/><polygon class="cls-5" points="287.94 515.48 287.89 515.42 287.89 515.42 287.94 515.48"/><path class="cls-5" d="M261.58,299.61a28.54,28.54,0,0,0,.87,8h8.49a22.35,22.35,0,0,1-.89-8Z"/><path class="cls-5" d="M283.3,238.38l8.54,1.24c.69-3.05,1.23-6.12,1.63-9.15l-8.49-1C284.59,232.35,284,235.33,283.3,238.38Z"/><path class="cls-5" d="M280.31,248.89l8.54,1.61c1.1-3.47,2-6.79,2.76-9.89l-8.55-1.23C282.31,242.43,281.39,245.62,280.31,248.89Z"/><path class="cls-5" d="M273.5,266.19l8.85,1.4c1-2.37,2-4.76,2.95-7.13l-8.64-1.64C275.69,261.2,274.63,263.68,273.5,266.19Z"/><path class="cls-5" d="M277,257.86l8.63,1.63c1.05-2.72,2-5.41,2.86-8L280,249.86C279.1,252.48,278.11,255.16,277,257.86Z"/><path class="cls-5" d="M285.71,217.94l8.47.67a61.76,61.76,0,0,0-.77-8.88l-8.56-.39A55.07,55.07,0,0,1,285.71,217.94Z"/><path class="cls-5" d="M285.12,228.49l8.48,1a80.07,80.07,0,0,0,.6-9.83l-8.48-.67A72,72,0,0,1,285.12,228.49Z"/><path class="cls-5" d="M265.91,283l9.06.72c1-2.2,2.07-4.57,3.45-7.54l-9.05-1.06C267.9,278.36,266.81,280.84,265.91,283Z"/><path class="cls-5" d="M270.92,271.8l-1.1,2.39,9.05,1.06,1.6-3.45c.51-1.1,1-2.17,1.46-3.24l-8.87-1.4Z"/><path class="cls-5" d="M65.73,239.38l-8.55,1.23c.73,3.1,1.66,6.42,2.77,9.89l8.53-1.61C67.41,245.63,66.48,242.44,65.73,239.38Z"/><path class="cls-5" d="M272.82,328.56l9.5-.13c-.26-.37-.52-.74-.75-1.09-2.27-3.39-4.08-6.25-5.53-8.72h-9.16C268.41,321.52,270.36,324.78,272.82,328.56Z"/><path class="cls-5" d="M261.63,298.59h8.52a31.76,31.76,0,0,1,1.39-6.14h-8.88A35.14,35.14,0,0,0,261.63,298.59Z"/><path class="cls-5" d="M274.42,331c1.38,2.06,3.13,4.47,5.16,7.26l.8,1.1,9.61-.25q-1.82-2.53-3.41-4.72c-1.33-1.83-2.52-3.47-3.56-4.94l-9.53.13C273.79,330,274.1,330.51,274.42,331Z"/><path class="cls-5" d="M262.94,291.43h8.93c.65-1.89,1.49-4,2.67-6.68l-9-.72A70.69,70.69,0,0,0,262.94,291.43Z"/><path class="cls-5" d="M182.47,541.92l-.09,8.66c4.82-.15,9.51-.36,14-.62l-.22-8.7C191.74,541.54,187.14,541.76,182.47,541.92Z"/><path class="cls-5" d="M174.39,542.12c-2.4,0-4.74-.1-7-.17l.09,8.65q3.48.1,7,.16t7-.16l.09-8.65q-3.45.1-7,.17"/><path class="cls-5" d="M197.17,541.19l.22,8.71c3.91-.25,7.8-.54,11.58-.89l-.51-8.72C204.85,540.63,201.06,540.94,197.17,541.19Z"/><path class="cls-5" d="M209.48,540.19l.5,8.72c4.52-.42,8.94-.93,13.15-1.51l-1.42-8.66C217.76,539.29,213.65,539.78,209.48,540.19Z"/><path class="cls-5" d="M152.64,541.26l-.21,8.7c4.47.26,9.17.47,14,.62l-.09-8.66C161.65,541.76,157.06,541.54,152.64,541.26Z"/><path class="cls-5" d="M222.72,538.6l1.42,8.66c4.62-.66,9.12-1.41,13.4-2.25l-2.73-8.4C231,537.34,226.9,538,222.72,538.6Z"/><path class="cls-5" d="M102.11,534l-4,8c3.86,1,8,2,12.19,2.81l2.72-8.4C109.22,535.68,105.57,534.88,102.11,534Z"/><path class="cls-5" d="M139.83,549c3.77.35,7.66.64,11.58.89l.21-8.71c-3.89-.25-7.68-.56-11.29-.9Z"/><path class="cls-5" d="M79.77,526.66l-3.9,7.72c3.2,1.39,6.6,2.72,10.14,3.94l4-7.82C86.39,529.31,83,528,79.77,526.66Z"/><path class="cls-5" d="M235.82,536.42l2.72,8.39c4.24-.85,8.34-1.79,12.19-2.81l-4-8C243.23,534.88,239.58,535.68,235.82,536.42Z"/><path class="cls-5" d="M91,530.82l-4,7.83c3.28,1.12,6.66,2.15,10.07,3.07l4-8C97.58,532.85,94.17,531.87,91,530.82Z"/><path class="cls-5" d="M114,536.61l-2.72,8.4c4.27.84,8.77,1.59,13.39,2.25l1.42-8.66C121.89,538,117.83,537.34,114,536.61Z"/><path class="cls-5" d="M125.66,547.4c4.21.58,8.63,1.09,13.15,1.51l.51-8.72c-4.17-.41-8.28-.9-12.24-1.45Z"/><path class="cls-5" d="M258.82,530.5l4,7.82c3.53-1.22,6.93-2.55,10.14-3.94L269,526.66C265.83,528,262.41,529.31,258.82,530.5Z"/><path class="cls-5" d="M319.61,457.54l8.52.3c.24-2.77.4-5.68.46-8.65l-8.48.22C320,452.12,319.87,454.85,319.61,457.54Z"/><path class="cls-5" d="M318.23,467.41l8.41,1.47c.6-3.24,1.07-6.61,1.4-10l-8.52-.31C319.2,461.59,318.77,464.56,318.23,467.41Z"/><path class="cls-5" d="M315.69,477.59l8.22,2.5a100.67,100.67,0,0,0,2.54-10.2L318,468.41A88,88,0,0,1,315.69,477.59Z"/><path class="cls-5" d="M312.11,486.92l7.76,3.83a88.17,88.17,0,0,0,3.73-9.69l-8.23-2.5A78.08,78.08,0,0,1,312.11,486.92Z"/><path class="cls-5" d="M320.07,439.63c.11,2.87.13,5.75.07,8.76l8.47-.22c0-2.89,0-5.83-.12-8.76Z"/><path class="cls-5" d="M305.43,498.49l7.49,4.47a80.13,80.13,0,0,0,6.52-11.29l-7.77-3.83A72.41,72.41,0,0,1,305.43,498.49Z"/><path class="cls-5" d="M279.56,521.48l4.26,7.47a102.44,102.44,0,0,0,9.41-6l-5.39-6.75A88.91,88.91,0,0,1,279.56,521.48Z"/><path class="cls-5" d="M247.7,533.75l4,8c3.41-.92,6.79-2,10.07-3.07l-4-7.83C254.62,531.87,251.21,532.85,247.7,533.75Z"/><path class="cls-5" d="M70.12,522l-4.26,7.48c2.89,1.6,5.94,3.11,9.07,4.51l3.91-7.71C75.79,524.92,72.87,523.49,70.12,522Z"/><path class="cls-5" d="M270,526.25l3.9,7.71c3.13-1.39,6.18-2.91,9.07-4.51L278.67,522C275.93,523.49,273,524.92,270,526.25Z"/><path class="cls-5" d="M68.81,249.86l-8.54,1.62c.85,2.6,1.8,5.29,2.85,8l8.63-1.63C70.68,255.16,69.7,252.48,68.81,249.86Z"/><path class="cls-5" d="M298.7,506.7l-.7.71,6.27,6a79.42,79.42,0,0,0,8.07-9.64l-7.5-4.47A73.92,73.92,0,0,1,298.7,506.7Z"/><path class="cls-5" d="M288.66,515.57l5.39,6.75a86.67,86.67,0,0,0,9.51-8.17l-6.28-6A78.87,78.87,0,0,1,288.66,515.57Z"/><path class="cls-5" d="M61.12,349.65l-9.44-.25c-1.93,2.93-3.71,5.72-5.4,8.52l9.24.24C57.28,355.37,59.12,352.57,61.12,349.65Z"/><path class="cls-5" d="M81.91,318.62H72.76c-1.47,2.49-3.23,5.27-5.54,8.72-.23.35-.48.72-.74,1.09l9.49.13C78.43,324.78,80.38,321.52,81.91,318.62Z"/><path class="cls-5" d="M69.29,338.15c2-2.75,3.73-5.13,5.08-7.16l.94-1.42-9.54-.13c-1,1.47-2.23,3.11-3.55,4.94-1.06,1.46-2.21,3-3.42,4.72l9.62.25Z"/><path class="cls-5" d="M67.69,340.35l-9.6-.25c-2.06,2.89-3.94,5.61-5.74,8.3l9.45.24C63.92,345.58,65.93,342.78,67.69,340.35Z"/><path class="cls-5" d="M54.9,359.17l-9.23-.24c-1.86,3.11-3.63,6.24-5.27,9.32l9,.24C51.14,365.39,53,362.26,54.9,359.17Z"/><path class="cls-5" d="M44,379.06l-8.82-.23c-1.36,3-2.64,6-3.82,9L40,388C41.24,385.05,42.57,382,44,379.06Z"/><path class="cls-5" d="M48.87,369.49l-9-.23c-1.46,2.77-2.88,5.65-4.23,8.56l8.82.23C45.82,375.24,47.3,372.37,48.87,369.49Z"/><path class="cls-5" d="M77.87,271.8l-2.14-4.64-8.86,1.4c.47,1.07.94,2.14,1.45,3.24l1.6,3.45L79,274.19Z"/><path class="cls-5" d="M86.07,308.63H77.54a49.75,49.75,0,0,1-4.2,9h9.1A49.33,49.33,0,0,0,86.07,308.63Z"/><path class="cls-5" d="M79.42,275.16l-9,1.06c1.38,3,2.48,5.34,3.45,7.54l9.07-.72C82,280.84,80.89,278.36,79.42,275.16Z"/><path class="cls-5" d="M72.14,258.82l-8.64,1.64c.93,2.38,1.92,4.77,2.94,7.13l8.86-1.4C74.16,263.68,73.1,261.2,72.14,258.82Z"/><path class="cls-5" d="M83.29,284l-9,.72c1.17,2.69,2,4.79,2.66,6.68h8.94A75.64,75.64,0,0,0,83.29,284Z"/><path class="cls-5" d="M87.16,298.59a35,35,0,0,0-1-6.14H77.25a31.83,31.83,0,0,1,1.4,6.14Z"/><path class="cls-5" d="M33.42,478.56l-8.23,2.5a88.19,88.19,0,0,0,3.74,9.69l7.76-3.83A76.84,76.84,0,0,1,33.42,478.56Z"/><path class="cls-5" d="M61,516.18l-5.38,6.75a100.92,100.92,0,0,0,9.4,6l4.26-7.47A91.64,91.64,0,0,1,61,516.18Z"/><path class="cls-5" d="M37.12,487.84l-7.76,3.83A81.21,81.21,0,0,0,35.87,503l7.49-4.47A73.31,73.31,0,0,1,37.12,487.84Z"/><path class="cls-5" d="M29.28,458.55l-8.52.31c.32,3.42.79,6.79,1.39,10l8.41-1.47C30,464.57,29.59,461.59,29.28,458.55Z"/><path class="cls-5" d="M30.76,468.41l-8.42,1.48a98.71,98.71,0,0,0,2.55,10.2l8.22-2.5A91.22,91.22,0,0,1,30.76,468.41Z"/><path class="cls-5" d="M39.62,389,31,388.82c-1,2.67-2,5.42-2.92,8.18l8.56.23C37.53,394.46,38.55,391.72,39.62,389Z"/><path class="cls-5" d="M51.51,508.13l-6.27,6a85.64,85.64,0,0,0,9.5,8.17l5.39-6.75A78.87,78.87,0,0,1,51.51,508.13Z"/><path class="cls-5" d="M50.09,506.69A70.25,70.25,0,0,1,44,499.32l-7.5,4.47a79.34,79.34,0,0,0,8.06,9.64l6.27-6Z"/><path class="cls-5" d="M28.68,449.41l-8.48-.22c.07,3,.22,5.88.46,8.65l8.52-.3C28.93,454.86,28.76,452.13,28.68,449.41Z"/><path class="cls-5" d="M31,418.93l-8.44-.22c-.5,2.85-.93,5.75-1.27,8.64l8.42.22C30,424.71,30.44,421.81,31,418.93Z"/><path class="cls-5" d="M36.26,398.24,27.7,398c-1.05,3.24-2,6.49-2.79,9.67l8.48.22C34.23,404.68,35.19,401.43,36.26,398.24Z"/><path class="cls-5" d="M33.13,408.92l-8.48-.22c-.75,3.05-1.4,6.07-1.94,9l8.44.21C31.71,414.9,32.38,411.89,33.13,408.92Z"/><path class="cls-5" d="M29.11,433.07c.11-1.38.25-2.83.43-4.49l-8.41-.21c-.19,1.66-.34,3.23-.46,4.75s-.23,3.31-.32,5.27l8.42.22C28.86,436.77,29,434.91,29.11,433.07Z"/><path class="cls-5" d="M28.73,439.63l-8.42-.22c-.13,2.95-.17,5.89-.12,8.76l8.46.22C28.59,445.39,28.61,442.51,28.73,439.63Z"/><path class="cls-2" d="M174.4,550.94c79.69-.62,161.09-16.73,153.42-118.25-4.07-54-35.68-91.75-44.85-106-15.9-24.74-13.25-27.53-1-55.05,48-107.91-44.86-117.24-107-117.24h-1c-62.19,0-155,9.33-107,117.24,12.23,27.52,14.88,30.31-1,55.05-9.18,14.27-40.78,52-44.86,106C13.31,534.21,94.71,550.32,174.4,550.94"/><rect class="cls-17" width="678.69" height="678.69"/></g></g></svg>