<svg xmlns="http://www.w3.org/2000/svg" viewBox="0 0 638.09 638.09"><defs><style>.cls-1,.cls-11,.cls-13,.cls-14,.cls-15,.cls-16,.cls-17,.cls-18,.cls-19,.cls-2,.cls-22,.cls-23,.cls-3,.cls-4,.cls-5,.cls-6,.cls-7{fill:none;}.cls-1,.cls-3,.cls-4,.cls-5,.cls-6{stroke:#999;}.cls-1,.cls-10,.cls-11,.cls-12,.cls-13,.cls-14,.cls-15,.cls-16,.cls-17,.cls-18,.cls-19,.cls-2,.cls-20,.cls-21,.cls-22,.cls-3,.cls-4,.cls-5,.cls-6,.cls-7,.cls-8,.cls-9{stroke-miterlimit:10;}.cls-1,.cls-13{stroke-width:0.42px;}.cls-1,.cls-5,.cls-6{stroke-dasharray:1.56 1.56 1.56 1.56;}.cls-2{stroke:#b3b3b3;}.cls-2,.cls-6{stroke-width:0.42px;}.cls-2,.cls-4{stroke-dasharray:3.13 3.13 3.13 3.13;}.cls-19,.cls-22,.cls-3{stroke-width:1.56px;}.cls-11,.cls-4,.cls-5{stroke-width:0.39px;}.cls-17,.cls-18,.cls-19,.cls-7{stroke:#29abe2;}.cls-7{stroke-width:1.68px;}.cls-10,.cls-12,.cls-20,.cls-21,.cls-8,.cls-9{fill:#fff;}.cls-14,.cls-15,.cls-20,.cls-21,.cls-22,.cls-8{stroke:blue;}.cls-12,.cls-15,.cls-8{stroke-width:1.57px;}.cls-12,.cls-9{stroke:#1f43f0;}.cls-20,.cls-9{stroke-width:1.36px;}.cls-10,.cls-11,.cls-13,.cls-16{stroke:#1ff0bd;}.cls-10,.cls-21{stroke-width:0.68px;}.cls-14,.cls-17{stroke-width:1.68px;}.cls-16{stroke-width:0.78px;}.cls-18{stroke-width:1.96px;}</style></defs><title>Bridges</title><g id="Layer_2" data-name="Layer 2"><g id="Sov_Bridge_Tracing" data-name="Sov Bridge Tracing"><line class="cls-1" x1="505.91" y1="536.96" x2="132.04" y2="536.96"/><line class="cls-1" x1="505.91" y1="541.14" x2="132.04" y2="541.14"/><line class="cls-1" x1="505.91" y1="545.33" x2="132.04" y2="545.33"/><line class="cls-1" x1="505.91" y1="549.51" x2="132.04" y2="549.51"/><line class="cls-1" x1="505.91" y1="553.7" x2="132.04" y2="553.7"/><line class="cls-1" x1="505.91" y1="557.88" x2="132.04" y2="557.88"/><line class="cls-1" x1="505.91" y1="562.07" x2="132.04" y2="562.07"/><line class="cls-1" x1="505.91" y1="566.25" x2="132.04" y2="566.25"/><line class="cls-1" x1="505.91" y1="570.44" x2="132.04" y2="570.44"/><line class="cls-1" x1="505.91" y1="574.62" x2="132.04" y2="574.62"/><line class="cls-1" x1="505.91" y1="578.81" x2="132.04" y2="578.81"/><line class="cls-1" x1="505.91" y1="583" x2="132.04" y2="583"/><line class="cls-1" x1="505.91" y1="587.18" x2="132.04" y2="587.18"/><line class="cls-1" x1="505.91" y1="591.37" x2="132.04" y2="591.37"/><line class="cls-1" x1="505.91" y1="595.55" x2="132.04" y2="595.55"/><line class="cls-2" x1="508.46" y1="193.49" x2="132.64" y2="193.49"/><line class="cls-2" x1="450.11" y1="190.6" x2="180.34" y2="190.6"/><line class="cls-2" x1="441.45" y1="187.72" x2="197.99" y2="187.72"/><line class="cls-2" x1="433.13" y1="184.83" x2="205.97" y2="184.83"/><line class="cls-2" x1="426.17" y1="181.94" x2="212.68" y2="181.94"/><line class="cls-2" x1="426.17" y1="179.06" x2="215.48" y2="179.06"/><line class="cls-2" x1="512.15" y1="244.44" x2="132.04" y2="244.44"/><line class="cls-2" x1="512.15" y1="252.64" x2="132.04" y2="252.64"/><line class="cls-2" x1="512.15" y1="256.74" x2="132.04" y2="256.74"/><line class="cls-2" x1="512.15" y1="248.54" x2="132.04" y2="248.54"/><line class="cls-2" x1="512.15" y1="240.34" x2="132.04" y2="240.34"/><line class="cls-2" x1="512.15" y1="260.84" x2="132.04" y2="260.84"/><line class="cls-2" x1="512.15" y1="264.94" x2="132.04" y2="264.94"/><line class="cls-2" x1="512.15" y1="269.04" x2="132.04" y2="269.04"/><line class="cls-2" x1="512.15" y1="273.14" x2="132.04" y2="273.14"/><line class="cls-2" x1="512.15" y1="277.24" x2="132.04" y2="277.24"/><line class="cls-2" x1="512.15" y1="281.34" x2="132.04" y2="281.34"/><line class="cls-2" x1="512.15" y1="285.44" x2="132.04" y2="285.44"/><line class="cls-2" x1="512.15" y1="289.54" x2="132.04" y2="289.54"/><line class="cls-2" x1="512.15" y1="293.64" x2="132.04" y2="293.64"/><line class="cls-2" x1="512.15" y1="297.72" x2="132.04" y2="297.72"/><path class="cls-3" d="M481.9,384.69a94.65,94.65,0,0,0,48.48,0"/><path class="cls-3" d="M285.85,363.17a13.74,13.74,0,0,0,7,1.73h.27a13.72,13.72,0,0,0,6.21-1.72"/><path class="cls-3" d="M107.71,384.69a94.65,94.65,0,0,0,48.48,0"/><path class="cls-3" d="M530.38,384.69a103.05,103.05,0,0,0,15.68-5.38"/><path class="cls-3" d="M467.2,379.31a91.88,91.88,0,0,0,14.7,5.38"/><path class="cls-3" d="M368,476.18c-9.88-2.34-19.92-3.34-29.21,0"/><path class="cls-3" d="M299.26,476.18c-9.3-3.34-19.33-2.34-29.21,0"/><path class="cls-3" d="M201,454.66c-19.18-7.33-47.63-2.89-68.14,0"/><path class="cls-3" d="M505.22,454.66c-20.51-2.89-49-7.33-68.13,0"/><path class="cls-3" d="M270.05,476.18c-6.29,1.5-12.52,3.52-18.44,5.32l-.24.06"/><path class="cls-3" d="M308.9,481.56a34.45,34.45,0,0,0-9.64-5.38"/><path class="cls-3" d="M261.55,352.4a77.34,77.34,0,0,1,14.55,5.39"/><line class="cls-3" x1="305.06" y1="357.79" x2="309.43" y2="352.4"/><path class="cls-3" d="M362,357.79a77.08,77.08,0,0,1,14.55-5.39"/><line class="cls-3" x1="328.65" y1="352.4" x2="333.03" y2="357.79"/><path class="cls-3" d="M333,357.79l1.66,2a13.76,13.76,0,0,0,4,3.34"/><path class="cls-3" d="M352.24,363.17c.23-.13.47-.23.7-.37a97.55,97.55,0,0,1,9.05-5"/><path class="cls-3" d="M299.37,363.17a13.89,13.89,0,0,0,4-3.34l1.66-2"/><path class="cls-3" d="M276.1,357.79a97.55,97.55,0,0,1,9,5c.23.14.47.24.7.37"/><path class="cls-4" d="M215.72,470.8H422.37a21.77,21.77,0,0,1,1.92-5.38H213.79A21.4,21.4,0,0,1,215.72,470.8Z"/><path class="cls-5" d="M216,476.18h54.05c9.88-2.34,19.91-3.34,29.21,0h39.57c9.29-3.34,19.33-2.34,29.21,0h54a16.64,16.64,0,0,1,.28-5.38H215.72A16.64,16.64,0,0,1,216,476.18Z"/><path class="cls-4" d="M386.48,481.5l.24.06H422c1.16-.43,1.8-.74,1.8-.74a7.24,7.24,0,0,1-1.64-3.87c-.05-.25-.07-.51-.1-.77H368C374.33,477.68,380.55,479.7,386.48,481.5Z"/><path class="cls-4" d="M94.81,449.69a59.78,59.78,0,0,0,15.57,5h22.48c20.51-2.89,49-7.33,68.14,0H437.09c19.18-7.33,47.62-2.89,68.13,0H527.7a59.85,59.85,0,0,0,15.58-5c.28-.13.55-.28.82-.42H94C94.26,449.41,94.53,449.56,94.81,449.69Z"/><path class="cls-4" d="M285.15,362.8a97.55,97.55,0,0,0-9-5H209.57q-5.4,2.28-11.15,5.38h87.43C285.62,363,285.38,362.94,285.15,362.8Z"/><path class="cls-4" d="M292.89,364.9a13.74,13.74,0,0,1-7-1.73H198.42c-3,1.62-6.06,3.4-9.2,5.38H448.87c-3.14-2-6.21-3.76-9.2-5.38H352.24"/><line class="cls-4" x1="338.72" y1="363.17" x2="299.37" y2="363.17"/><path class="cls-4" d="M352.24,363.17h87.43q-5.75-3.1-11.16-5.38H362"/><path class="cls-4" d="M130.14,455l2.72-.38H110.38A64.16,64.16,0,0,0,130.14,455Z"/><path class="cls-4" d="M213.79,465.42h210.5a22.17,22.17,0,0,1,3.86-5.38H209.94A21.87,21.87,0,0,1,213.79,465.42Z"/><path class="cls-4" d="M205.81,456.84a17.58,17.58,0,0,1,4.13,3.2H428.15a17.38,17.38,0,0,1,4.13-3.2,40.46,40.46,0,0,1,4.81-2.18H201A40.46,40.46,0,0,1,205.81,456.84Z"/><path class="cls-4" d="M314.49,487h9.11a41.35,41.35,0,0,1,5.59-5.39H308.9A41.35,41.35,0,0,1,314.49,487Z"/><path class="cls-4" d="M317.16,490.29a2.33,2.33,0,0,0,3.77,0c.87-1.2,1.77-2.3,2.67-3.34h-9.11C315.39,488,316.29,489.09,317.16,490.29Z"/><path class="cls-4" d="M422,481.56H386.72C404.47,486.87,417.47,483.26,422,481.56Z"/><path class="cls-4" d="M508,455a64.09,64.09,0,0,0,19.75-.38H505.22Z"/><path class="cls-4" d="M553.54,375.56a66.71,66.71,0,0,1-7.48,3.75h9.81C554.49,376.93,553.54,375.56,553.54,375.56Z"/><path class="cls-4" d="M376.54,352.4h35.74A73.61,73.61,0,0,0,376.54,352.4Z"/><path class="cls-4" d="M251.37,481.56H216.06C220.62,483.26,233.62,486.87,251.37,481.56Z"/><path class="cls-4" d="M299.26,476.18a34.45,34.45,0,0,1,9.64,5.38h20.29a34.45,34.45,0,0,1,9.64-5.38Z"/><path class="cls-4" d="M94,449.27H544.1a51.5,51.5,0,0,0,8.64-5.38H85.35A51.09,51.09,0,0,0,94,449.27Z"/><path class="cls-4" d="M270.05,476.18H216c0,.26-.05.52-.1.77a7.24,7.24,0,0,1-1.64,3.87s.64.31,1.8.74h35.31l.24-.06C257.53,479.7,263.76,477.68,270.05,476.18Z"/><path class="cls-4" d="M428.51,357.79a101.67,101.67,0,0,0-16.23-5.39H376.54A77.08,77.08,0,0,0,362,357.79Z"/><path class="cls-4" d="M303.4,359.83a13.89,13.89,0,0,1-4,3.34h39.35a13.76,13.76,0,0,1-4-3.34l-1.66-2h-28Z"/><path class="cls-4" d="M261.55,352.4H225.81a101.76,101.76,0,0,0-16.24,5.39H276.1A77.34,77.34,0,0,0,261.55,352.4Z"/><path class="cls-4" d="M558.77,384.69c-1.06-2.11-2.06-3.93-2.9-5.38h-9.81a103.05,103.05,0,0,1-15.68,5.38Z"/><path class="cls-4" d="M156.19,384.69H481.9a91.88,91.88,0,0,1-14.7-5.38H170.89A91.88,91.88,0,0,1,156.19,384.69Z"/><path class="cls-4" d="M92,379.31H82.22c-.84,1.45-1.85,3.27-2.9,5.38h28.39A103.05,103.05,0,0,1,92,379.31Z"/><polygon class="cls-4" points="333.03 357.79 328.65 352.4 309.43 352.4 305.06 357.79 333.03 357.79"/><path class="cls-4" d="M481.9,384.69H156.19a94.65,94.65,0,0,1-48.48,0H79.32c-.81,1.63-1.65,3.44-2.47,5.39H561.24c-.82-1.95-1.66-3.76-2.47-5.39H530.38A94.65,94.65,0,0,1,481.9,384.69Z"/><polygon class="cls-4" points="324.28 347.02 313.81 347.02 309.43 352.4 328.65 352.4 324.28 347.02"/><path class="cls-4" d="M321.87,344.06a3.64,3.64,0,0,0-5.65,0l-2.41,3h10.47Z"/><path class="cls-4" d="M225.81,352.4h35.74A73.61,73.61,0,0,0,225.81,352.4Z"/><path class="cls-4" d="M184.72,371.49q-1.92,1.27-3.82,2.44H457.19q-1.9-1.17-3.82-2.44c-1.52-1-3-2-4.5-2.94H189.22C187.74,369.49,186.23,370.46,184.72,371.49Z"/><path class="cls-5" d="M170.89,379.31H467.2a101.2,101.2,0,0,1-10-5.38H180.9A101.2,101.2,0,0,1,170.89,379.31Z"/><path class="cls-4" d="M71.31,417H566.78a46,46,0,0,0-.06-5.38H71.36A46,46,0,0,0,71.31,417Z"/><path class="cls-4" d="M73.39,427.75H564.7a34.84,34.84,0,0,0,1.45-5.38H71.93A34.89,34.89,0,0,0,73.39,427.75Z"/><path class="cls-4" d="M71.93,422.37H566.15a39.4,39.4,0,0,0,.63-5.39H71.31A41,41,0,0,0,71.93,422.37Z"/><path class="cls-4" d="M75.85,433.13H562.24a34,34,0,0,0,2.46-5.38H73.39A33.17,33.17,0,0,0,75.85,433.13Z"/><path class="cls-4" d="M84.55,375.56s-1,1.37-2.33,3.75H92A66.71,66.71,0,0,1,84.55,375.56Z"/><path class="cls-4" d="M85.35,443.89H552.74a38.6,38.6,0,0,0,5.68-5.38H79.67A38.6,38.6,0,0,0,85.35,443.89Z"/><path class="cls-4" d="M79.67,438.51H558.42a35.1,35.1,0,0,0,3.82-5.38H75.85A33.77,33.77,0,0,0,79.67,438.51Z"/><path class="cls-4" d="M73.17,400.84H564.92c-.48-1.85-1-3.65-1.63-5.38H74.79C74.2,397.19,73.65,399,73.17,400.84Z"/><path class="cls-4" d="M74.79,395.46h488.5c-.64-1.89-1.34-3.69-2-5.38H76.85C76.14,391.77,75.44,393.57,74.79,395.46Z"/><path class="cls-4" d="M71.36,411.6H566.72a53.37,53.37,0,0,0-.64-5.38H72C71.71,408,71.49,409.79,71.36,411.6Z"/><path class="cls-4" d="M72,406.22H566.08c-.31-1.83-.71-3.63-1.16-5.38H73.17C72.72,402.59,72.32,404.39,72,406.22Z"/><line class="cls-6" x1="509.07" y1="50.01" x2="132.04" y2="50.01"/><line class="cls-6" x1="509.07" y1="54.13" x2="132.04" y2="54.13"/><line class="cls-6" x1="509.07" y1="58.26" x2="132.04" y2="58.26"/><line class="cls-6" x1="509.07" y1="62.38" x2="132.04" y2="62.38"/><line class="cls-6" x1="509.07" y1="66.51" x2="132.04" y2="66.51"/><line class="cls-6" x1="509.07" y1="70.63" x2="132.04" y2="70.63"/><line class="cls-6" x1="509.07" y1="74.76" x2="132.04" y2="74.76"/><line class="cls-6" x1="509.07" y1="78.88" x2="132.04" y2="78.88"/><line class="cls-6" x1="509.07" y1="83.01" x2="132.04" y2="83.01"/><line class="cls-6" x1="509.07" y1="87.13" x2="132.04" y2="87.13"/><line class="cls-6" x1="509.07" y1="91.26" x2="132.04" y2="91.26"/><line class="cls-6" x1="509.07" y1="95.38" x2="132.04" y2="95.38"/><line class="cls-6" x1="509.07" y1="99.51" x2="132.04" y2="99.51"/><line class="cls-6" x1="509.07" y1="103.63" x2="132.04" y2="103.63"/><line class="cls-6" x1="509.07" y1="107.76" x2="132.04" y2="107.76"/><line class="cls-6" x1="509.07" y1="111.88" x2="132.04" y2="111.88"/><line class="cls-6" x1="446.08" y1="116.01" x2="197.4" y2="116.01"/><line class="cls-6" x1="430.79" y1="120.13" x2="212.69" y2="120.13"/><line class="cls-6" x1="418.96" y1="124.26" x2="224.51" y2="124.26"/><line class="cls-6" x1="407.95" y1="128.89" x2="235.53" y2="128.89"/><line class="cls-6" x1="398.38" y1="132.51" x2="245.1" y2="132.51"/><rect class="cls-7" x="132.04" y="532.82" width="373.88" height="66.97"/><path class="cls-8" d="M251.11,579.17v0Z"/><circle class="cls-9" cx="251.11" cy="579.17" r="11.2"/><circle class="cls-10" cx="251.11" cy="579.17" r="5.63"/><circle class="cls-9" cx="278.96" cy="579.17" r="11.2"/><circle class="cls-10" cx="278.96" cy="579.17" r="5.63"/><circle class="cls-9" cx="306.8" cy="579.17" r="11.2"/><circle class="cls-10" cx="306.8" cy="579.17" r="5.63"/><circle class="cls-9" cx="334.3" cy="579.17" r="11.2"/><circle class="cls-10" cx="334.3" cy="579.17" r="5.63"/><circle class="cls-9" cx="361.81" cy="579.17" r="11.2"/><circle class="cls-10" cx="361.81" cy="579.17" r="5.63"/><circle class="cls-9" cx="389.99" cy="579.17" r="11.2"/><circle class="cls-10" cx="389.99" cy="579.17" r="5.63"/><path class="cls-11" d="M180,567.9l-46.64,30.91a.82.82,0,0,1-1.32-.67V534.36a.83.83,0,0,1,1.28-.69l46.59,31A2,2,0,0,1,180,567.9Z"/><path class="cls-11" d="M200.53,532.81a38,38,0,0,0,.59,67h17.49a34.44,34.44,0,0,0,3.18-14.47V541.58a13.64,13.64,0,0,0-3.18-8.76H200.53Z"/><path class="cls-11" d="M458,567.9l46.64,30.91a.82.82,0,0,0,1.32-.67V534.36a.83.83,0,0,0-1.28-.69l-46.6,31A1.94,1.94,0,0,0,458,567.9Z"/><path class="cls-11" d="M437.42,532.76a38,38,0,0,1-.59,67H419.34l-2.2-4.74a10.76,10.76,0,0,1-1-4.5V537.79a3.3,3.3,0,0,1,.78-2.14l2.4-2.87Z"/><rect class="cls-12" x="208.05" y="547.45" width="217.39" height="5.43" transform="translate(-14.5 8.6) rotate(-1.52)"/><path class="cls-13" d="M198.42,363.17S228.49,398,201,454.66"/><path class="cls-13" d="M438.45,363.17s-30.06,34.86-2.57,91.49"/><line class="cls-14" x1="132.04" y1="111.88" x2="132.04" y2="46.28"/><rect class="cls-12" x="224.99" y="59.78" width="188.45" height="5.43" rx="2.72" transform="matrix(1, -0.03, 0.03, 1, -1.57, 8.61)"/><path class="cls-15" d="M251.11,91.26v0Z"/><circle class="cls-9" cx="251.11" cy="91.26" r="11.2"/><circle class="cls-10" cx="251.11" cy="91.26" r="5.63"/><circle class="cls-9" cx="278.96" cy="91.26" r="11.2"/><circle class="cls-10" cx="278.96" cy="91.26" r="5.63"/><circle class="cls-9" cx="306.8" cy="91.26" r="11.2"/><circle class="cls-10" cx="306.8" cy="91.26" r="5.63"/><circle class="cls-9" cx="334.3" cy="91.26" r="11.2"/><circle class="cls-10" cx="334.3" cy="91.26" r="5.63"/><circle class="cls-9" cx="361.81" cy="91.26" r="11.2"/><circle class="cls-10" cx="361.81" cy="91.26" r="5.63"/><circle class="cls-9" cx="389.99" cy="91.26" r="11.2"/><circle class="cls-10" cx="389.99" cy="91.26" r="5.63"/><path class="cls-16" d="M202.58,46.28l5.88,3.4A17.15,17.15,0,0,1,217,64.54v42.81a11.89,11.89,0,0,1-3,7.91L209.81,120"/><line class="cls-14" x1="132.04" y1="111.88" x2="132.04" y2="46.28"/><rect class="cls-14" x="132.04" y="236.59" width="380.11" height="65.6"/><rect class="cls-12" x="224.99" y="250.08" width="188.45" height="5.43" rx="2.72" transform="translate(-6.68 8.68) rotate(-1.54)"/><path class="cls-15" d="M251.11,281.56v0Z"/><circle class="cls-9" cx="251.11" cy="281.56" r="11.2"/><circle class="cls-10" cx="251.11" cy="281.56" r="5.63"/><circle class="cls-9" cx="278.96" cy="281.56" r="11.2"/><circle class="cls-10" cx="278.96" cy="281.56" r="5.63"/><circle class="cls-9" cx="306.8" cy="281.56" r="11.2"/><circle class="cls-10" cx="306.8" cy="281.56" r="5.63"/><circle class="cls-9" cx="334.3" cy="281.56" r="11.2"/><circle class="cls-10" cx="334.3" cy="281.56" r="5.63"/><circle class="cls-9" cx="361.81" cy="281.56" r="11.2"/><circle class="cls-10" cx="361.81" cy="281.56" r="5.63"/><circle class="cls-9" cx="389.99" cy="281.56" r="11.2"/><circle class="cls-10" cx="389.99" cy="281.56" r="5.63"/><path class="cls-16" d="M202.58,236.59l5.88,3c5.31,2.74,8.58,7.79,8.58,13.25V291a10,10,0,0,1-3,7l-4.22,4.24"/><path class="cls-16" d="M440.17,236.18l-5.88,3a15.07,15.07,0,0,0-8.58,13.24v38.16a10,10,0,0,0,3,7.05l4.23,4.24"/><rect class="cls-17" x="132.04" y="236.59" width="380.11" height="65.6"/><path class="cls-15" d="M249.55,435v0Z"/><path class="cls-16" d="M438.52,46.28l-5.88,3.4a17.15,17.15,0,0,0-8.58,14.86v42.81a11.89,11.89,0,0,0,3,7.91l4.22,4.76"/><path class="cls-18" d="M320.55,46.28H509.07v66h-38l-2,.19a196.83,196.83,0,0,0-62.33,16.81h0a76.79,76.79,0,0,1-31.91,6.94H266.25a76.79,76.79,0,0,1-31.91-6.94h0A196.83,196.83,0,0,0,172,112.48l-2-.19H132v-66H320.55"/><path class="cls-19" d="M320.55,196.38H508.46v-6.12L467,189.82a87.44,87.44,0,0,1-12.09-1l-1.95-.29A59.79,59.79,0,0,1,426,177.38a6.77,6.77,0,0,0-4-1.38H219.09a6.77,6.77,0,0,0-4,1.38,59.79,59.79,0,0,1-26.93,11.19l-1.95.29a87.32,87.32,0,0,1-12.09,1l-41.45.44v6.12Z"/><circle class="cls-20" cx="305.07" cy="448.73" r="11.2"/><circle class="cls-21" cx="305.07" cy="448.73" r="5.63"/><circle class="cls-20" cx="277.39" cy="443.13" r="11.2"/><circle class="cls-21" cx="277.39" cy="443.13" r="5.63"/><circle class="cls-20" cx="388.42" cy="435" r="11.2"/><circle class="cls-21" cx="388.42" cy="435" r="5.63"/><circle class="cls-20" cx="249.55" cy="435" r="11.2"/><circle class="cls-21" cx="249.55" cy="435" r="5.63"/><circle class="cls-20" cx="332.74" cy="448.73" r="11.2"/><circle class="cls-21" cx="332.74" cy="448.73" r="5.63"/><circle class="cls-20" cx="360.24" cy="443.13" r="11.2"/><circle class="cls-21" cx="360.24" cy="443.13" r="5.63"/><rect class="cls-8" x="223.43" y="403.54" width="188.45" height="5.43" rx="2.72" transform="translate(-10.81 8.69) rotate(-1.54)"/><path class="cls-15" d="M249.55,435v0Z"/><circle class="cls-9" cx="249.55" cy="435" r="11.2"/><circle class="cls-10" cx="249.55" cy="435" r="5.63"/><circle class="cls-9" cx="388.42" cy="435.02" r="11.2"/><circle class="cls-10" cx="388.42" cy="435.02" r="5.63"/><circle class="cls-9" cx="277.39" cy="443.11" r="11.2"/><circle class="cls-10" cx="277.39" cy="443.11" r="5.63"/><circle class="cls-9" cx="305.07" cy="448.76" r="11.2"/><circle class="cls-10" cx="305.07" cy="448.76" r="5.63"/><circle class="cls-9" cx="332.74" cy="448.73" r="11.2"/><circle class="cls-10" cx="332.74" cy="448.73" r="5.63"/><circle class="cls-9" cx="360.24" cy="443.11" r="11.2"/><circle class="cls-10" cx="360.24" cy="443.11" r="5.63"/><path class="cls-22" d="M317.16,490.36a2.33,2.33,0,0,0,3.77,0c18.25-25.08,43.9-15.35,65.55-8.79,22.41,6.79,37.35-.68,37.35-.68a7.24,7.24,0,0,1-1.64-3.87c-1.31-7.4,3.49-16.51,10.09-20.11C452,446.17,485.57,452,508,455.11a61.9,61.9,0,0,0,35.33-5.35c46.15-22.28,10.26-74.13,10.26-74.13s-49.24,30.22-100.17-4.08c-48.13-32.41-79.89-21.45-100.43-8.68a13.91,13.91,0,0,1-7.74,2.1h-.28a13.7,13.7,0,0,1-10.23-5.07l-12.82-15.76a3.64,3.64,0,0,0-5.65,0L303.4,359.89A13.72,13.72,0,0,1,293.16,365h-.27a13.91,13.91,0,0,1-7.74-2.1c-20.54-12.77-52.3-23.73-100.43,8.68-50.94,34.3-100.17,4.08-100.17,4.08s-35.9,51.85,10.26,74.13a61.9,61.9,0,0,0,35.33,5.35c22.38-3.09,55.94-8.94,75.67,1.8,6.6,3.6,11.4,12.71,10.09,20.11a7.24,7.24,0,0,1-1.64,3.87s14.94,7.47,37.35.68C273.26,475,298.91,465.28,317.16,490.36Z"/><path class="cls-19" d="M317.16,490.29a2.33,2.33,0,0,0,3.77,0c18.25-25.08,43.9-15.35,65.55-8.79,22.41,6.79,37.35-.68,37.35-.68a7.24,7.24,0,0,1-1.64-3.87c-1.31-7.4,3.49-16.51,10.09-20.11C452,446.1,485.57,452,508,455a61.82,61.82,0,0,0,35.33-5.35c46.15-22.28,10.26-74.13,10.26-74.13s-49.24,30.22-100.17-4.07c-48.13-32.42-79.89-21.46-100.43-8.69a13.83,13.83,0,0,1-7.74,2.1h-.28a13.72,13.72,0,0,1-10.23-5.06l-12.82-15.77a3.64,3.64,0,0,0-5.65,0L303.4,359.83a13.74,13.74,0,0,1-10.24,5.06h-.27a13.83,13.83,0,0,1-7.74-2.1c-20.54-12.77-52.3-23.73-100.43,8.69-50.94,34.29-100.17,4.07-100.17,4.07s-35.9,51.85,10.26,74.13A61.82,61.82,0,0,0,130.14,455c22.38-3.09,55.94-8.94,75.67,1.8,6.6,3.6,11.4,12.71,10.09,20.11a7.24,7.24,0,0,1-1.64,3.87s14.94,7.47,37.35.68C273.26,474.94,298.91,465.21,317.16,490.29Z"/><rect class="cls-12" x="223.43" y="403.54" width="188.45" height="5.43" rx="2.72" transform="translate(-10.81 8.69) rotate(-1.54)"/><rect class="cls-23" width="638.09" height="638.09"/></g></g></svg>