<svg xmlns="http://www.w3.org/2000/svg" viewBox="0 0 522.7 522.93"><defs><style>.cls-1,.cls-2,.cls-6,.cls-7{fill:none;}.cls-1,.cls-2,.cls-3,.cls-4,.cls-5,.cls-7{stroke:#000;stroke-miterlimit:10;}.cls-1{stroke-width:0.95px;}.cls-2,.cls-3,.cls-4,.cls-5{stroke-width:0.48px;}.cls-3{fill:#fff;}.cls-4{fill:#29abe2;}.cls-7{stroke-width:0.52px;}</style></defs><title>Gibson</title><g id="Layer_2" data-name="Layer 2"><g id="Layer_1-2" data-name="Layer 1"><path class="cls-1" d="M259.14,80.77c153.47-1,129.36,78.07,106.31,128.38-21.13,46.08,59.73,36.43,61.83,155.1,1.05,59.21-50.79,129.91-168.2,131.52-117.41-1.61-169.25-72.31-168.2-131.52,2.1-118.67,83-109,61.83-155.1C129.65,158.84,105.55,79.72,259,80.77Z"/><circle class="cls-2" cx="259.08" cy="198.17" r="35.38"/><circle class="cls-2" cx="259.08" cy="198.17" r="38.92"/><circle class="cls-2" cx="259.08" cy="198.17" r="43.87"/><circle class="cls-2" cx="259.08" cy="198.17" r="47.04"/><circle class="cls-2" cx="259.08" cy="198.17" r="50.7"/><circle class="cls-2" cx="259.08" cy="198.17" r="54.08"/><path class="cls-3" d="M279.26.24c1,53.28,1.92,101.91,2.66,155.18-11.95-10.93-10.8,3.26-22.84-1.55H259c-12.05,4.81-10.89-9.38-22.85,1.55.75-53.95,1.54-101.23,2.57-155.18Z"/><path class="cls-4" d="M301,164a54.08,54.08,0,0,1-21.2,84.1v23.39a23.94,23.94,0,0,0,23.94,23.94h15.6A29.59,29.59,0,0,0,349,265.87S353.4,176.66,301,164Z"/><line class="cls-2" x1="235.63" y1="317.09" x2="240.49" y2="0.24"/><line class="cls-2" x1="244.14" y1="316.83" x2="247.45" y2="0.24"/><line class="cls-2" x1="252.61" y1="316.56" x2="254.51" y2="0.24"/><line class="cls-2" x1="269.73" y1="316.91" x2="269.03" y2="0.24"/><line class="cls-2" x1="261.35" y1="316.91" x2="262.1" y2="0.24"/><line class="cls-2" x1="278.12" y1="316.91" x2="275.62" y2="0.24"/><path class="cls-2" d="M255.73,300.85H197.07v20.26s20.61,1,32.14,8.38h26.52"/><path class="cls-2" d="M255.73,300.85h58.65v20.26s-20.61,1-32.13,8.38H255.73"/><path class="cls-2" d="M222.73,326.29s11.06-14.31,2-25.44"/><path class="cls-2" d="M288.87,326.29s-11.07-14.31-2-25.44"/><circle class="cls-3" cx="235.63" cy="316.91" r="3.36"/><circle class="cls-3" cx="244.14" cy="317.09" r="3.36"/><circle class="cls-3" cx="252.72" cy="317.09" r="3.36"/><circle class="cls-3" cx="261.35" cy="316.91" r="3.36"/><circle class="cls-3" cx="269.74" cy="316.91" r="3.36"/><circle class="cls-3" cx="278.12" cy="316.91" r="3.36"/><path class="cls-5" d="M232.27,306.5a.81.81,0,0,1,0-1.61l49.22-1.31h0a.8.8,0,0,1,.8.78.82.82,0,0,1-.78.83l-49.21,1.31Z"/><rect class="cls-6" y="0.24" width="522.7" height="522.7"/><circle class="cls-2" cx="250.68" cy="46.19" r="2.58"/><circle class="cls-2" cx="265.53" cy="46.08" r="2.58"/><line class="cls-7" x1="238.39" y1="22.61" x2="279.69" y2="22.61"/><line class="cls-2" x1="238.08" y1="38.85" x2="279.99" y2="38.85"/><line class="cls-2" x1="237.81" y1="53.52" x2="280.26" y2="53.52"/><line class="cls-2" x1="237.55" y1="67.93" x2="280.52" y2="67.93"/><line class="cls-2" x1="237.28" y1="83.39" x2="280.79" y2="83.39"/><line class="cls-2" x1="236.73" y1="116.92" x2="281.35" y2="116.92"/><line class="cls-2" x1="236.91" y1="105.4" x2="281.16" y2="105.4"/><line class="cls-2" x1="237.1" y1="94.13" x2="280.97" y2="94.13"/><line class="cls-2" x1="236.56" y1="127.67" x2="281.52" y2="127.67"/><line class="cls-2" x1="236.41" y1="137.36" x2="281.66" y2="137.36"/><line class="cls-2" x1="236.27" y1="146.79" x2="281.8" y2="146.79"/></g></g></svg>