<svg xmlns="http://www.w3.org/2000/svg" viewBox="0 0 678.69 678.69"><defs><style>.cls-1{fill:#29abe2;stroke-width:0.3px;}.cls-1,.cls-15,.cls-17,.cls-18,.cls-19,.cls-2,.cls-3,.cls-4,.cls-5,.cls-6,.cls-7,.cls-8{stroke:#000;}.cls-1,.cls-13,.cls-14,.cls-15,.cls-17,.cls-18,.cls-19,.cls-2,.cls-3,.cls-4,.cls-5,.cls-6,.cls-7,.cls-8{stroke-miterlimit:10;}.cls-13,.cls-17,.cls-18,.cls-19,.cls-2,.cls-20,.cls-3,.cls-5{fill:none;}.cls-15,.cls-2{stroke-width:3.06px;}.cls-14,.cls-3,.cls-4{stroke-width:0.25px;}.cls-4,.cls-6,.cls-7{fill:#666;}.cls-5{stroke-width:0.33px;}.cls-6{stroke-width:0.74px;}.cls-7{stroke-width:0.22px;}.cls-8{fill:#fff;stroke-width:0.9px;}.cls-9{opacity:0.43;}.cls-10{fill:#ce1c1f;}.cls-11{fill:#2b5086;}.cls-12{fill:#eee7d3;}.cls-13{stroke:#fbb03b;stroke-width:4px;}.cls-14{fill:#ffffb3;stroke:#b3b3b3;}.cls-16{fill:#603813;}.cls-18{stroke-width:0.83px;}.cls-19{stroke-width:0.62px;}</style></defs><title>Internal Bracing</title><g id="Layer_2" data-name="Layer 2"><g id="Layer_1-2" data-name="Layer 1"><path class="cls-1" d="M361.73,156.31c-3.37-.2-6.86-.36-10.41-.47l-.08,7.34c3.35.11,6.49.24,9.56.42Z"/><path class="cls-1" d="M380.2,165.33l2.77-7c-3.12-.42-6.33-.78-9.58-1.1l-1.71,7.22C374.72,164.69,377.52,165,380.2,165.33Z"/><path class="cls-1" d="M372.36,157.1c-3.07-.28-6.29-.53-9.61-.73l-.93,7.29c3,.18,5.92.4,8.83.66Z"/><path class="cls-1" d="M350.3,155.81c-3.35-.1-6.78-.16-10.44-.19V163c3.54,0,7,.1,10.36.2Z"/><path class="cls-1" d="M338.84,163v-7.33c-3.67,0-7.1.09-10.44.19l.07,7.34C331.81,163.05,335.29,163,338.84,163Z"/><path class="cls-1" d="M414.68,173.23l7.24-5.13a116.81,116.81,0,0,0-13.53-4.72l-5.27,6.23A116.72,116.72,0,0,1,414.68,173.23Z"/><path class="cls-1" d="M433.55,183.35l9.3-2.24a61.88,61.88,0,0,0-8.24-6.35l-8.79,3.56A61.64,61.64,0,0,1,433.55,183.35Z"/><path class="cls-1" d="M441.05,190.53l9-1.2a51.16,51.16,0,0,0-6.34-7.38l-9.19,2.21A46.77,46.77,0,0,1,441.05,190.53Z"/><path class="cls-1" d="M391.22,167l3.86-6.77c-3.5-.67-7.21-1.28-11.07-1.81l-2.77,7C384.63,165.91,388,166.42,391.22,167Z"/><path class="cls-1" d="M424.67,177.68l8.88-3.59A83.34,83.34,0,0,0,423,168.57l-7.21,5.1A84,84,0,0,1,424.67,177.68Z"/><path class="cls-1" d="M443.46,193.71a38.71,38.71,0,0,1,3.09,5.51l8.67-.46a47.44,47.44,0,0,0-4.49-8.49l-8.93,1.19C442.42,192.25,443,193,443.46,193.71Z"/><path class="cls-1" d="M402,169.33l5.27-6.25c-3.53-1-7.28-1.86-11.16-2.63l-3.85,6.75C395.63,167.83,398.91,168.54,402,169.33Z"/><path class="cls-1" d="M251.3,307.92a28.94,28.94,0,0,0,.86-8H243.7a22.36,22.36,0,0,1-.9,8Z"/><path class="cls-1" d="M231.71,200.22l-8.63-.46a51.61,51.61,0,0,0-2.56,9.25l8.57-.39A43.72,43.72,0,0,1,231.71,200.22Z"/><path class="cls-1" d="M235.23,193.71c.48-.71,1-1.46,1.67-2.25L228,190.27a48,48,0,0,0-4.48,8.49l8.66.46A40.17,40.17,0,0,1,235.23,193.71Z"/><path class="cls-1" d="M244.15,184.16,235,182a50.47,50.47,0,0,0-6.33,7.38l9,1.2A46.31,46.31,0,0,1,244.15,184.16Z"/><path class="cls-1" d="M228,219.27l-8.47.67a82,82,0,0,0,.59,9.83l8.49-1A72.1,72.1,0,0,1,228,219.27Z"/><path class="cls-1" d="M228.89,209.65l-8.55.39a62.94,62.94,0,0,0-.78,8.88l8.48-.67A53.9,53.9,0,0,1,228.89,209.65Z"/><path class="cls-1" d="M228.76,229.81l-8.49,1c.4,3,.95,6.1,1.63,9.15l8.54-1.24C229.72,235.65,229.16,232.67,228.76,229.81Z"/><path class="cls-1" d="M252.87,178.32l-8.79-3.56a61.77,61.77,0,0,0-8.23,6.35l9.3,2.24A61.51,61.51,0,0,1,252.87,178.32Z"/><path class="cls-1" d="M286.41,167.2l-3.85-6.75c-3.88.77-7.63,1.66-11.17,2.63l5.28,6.25C279.79,168.54,283.06,167.83,286.41,167.2Z"/><path class="cls-1" d="M307,164.41l-1.71-7.22c-3.25.32-6.47.68-9.59,1.1l2.77,7C301.17,165,304,164.69,307,164.41Z"/><path class="cls-1" d="M316.87,163.66l-.93-7.29c-3.32.2-6.54.45-9.61.73l1.71,7.22C311,164.06,313.92,163.84,316.87,163.66Z"/><path class="cls-1" d="M297.45,165.46l-2.77-7c-3.86.53-7.57,1.14-11.06,1.81l3.85,6.77C290.71,166.42,294.06,165.91,297.45,165.46Z"/><path class="cls-1" d="M327.45,163.18l-.07-7.34c-3.55.11-7.05.27-10.42.47l.93,7.29C321,163.42,324.1,163.29,327.45,163.18Z"/><path class="cls-1" d="M275.57,169.61l-5.26-6.23a118.22,118.22,0,0,0-13.54,4.72l7.24,5.13A117.56,117.56,0,0,1,275.57,169.61Z"/><path class="cls-1" d="M262.87,173.67l-7.2-5.1a82.66,82.66,0,0,0-10.52,5.52l8.88,3.59A83.86,83.86,0,0,1,262.87,173.67Z"/><path class="cls-1" d="M431.3,317.91h9.1a49.62,49.62,0,0,1-4.19-9h-8.54A49.33,49.33,0,0,0,431.3,317.91Z"/><path class="cls-1" d="M477.16,397.53l8.55-.22c-.91-2.77-1.89-5.52-2.92-8.18l-8.66.22C475.2,392,476.22,394.77,477.16,397.53Z"/><path class="cls-1" d="M473.72,388.34l8.67-.22c-1.17-3-2.45-6-3.81-9l-8.82.23C471.17,382.35,472.51,385.36,473.72,388.34Z"/><path class="cls-1" d="M480.36,408.22l8.48-.22c-.81-3.18-1.75-6.43-2.79-9.67l-8.56.22C478.55,401.73,479.51,405,480.36,408.22Z"/><path class="cls-1" d="M469.28,378.36l8.83-.23c-1.36-2.92-2.78-5.8-4.23-8.56l-9,.23C466.44,372.68,467.93,375.55,469.28,378.36Z"/><path class="cls-1" d="M458.22,358.47l9.25-.24c-1.7-2.79-3.47-5.59-5.41-8.52l-9.43.25C454.62,352.87,456.46,355.67,458.22,358.47Z"/><path class="cls-1" d="M482.6,418.22,491,418c-.55-2.93-1.2-5.95-2-9l-8.48.22C481.37,412.19,482,415.21,482.6,418.22Z"/><path class="cls-1" d="M464.32,368.8l9-.24c-1.65-3.08-3.42-6.21-5.28-9.32l-9.23.24C460.77,362.57,462.61,365.7,464.32,368.8Z"/><path class="cls-1" d="M449.61,208.62l8.56.39a51.59,51.59,0,0,0-2.55-9.25l-8.63.46A43.72,43.72,0,0,1,449.61,208.62Z"/><path class="cls-1" d="M484.63,433.38c.15,1.8.26,3.67.35,5.54l8.42-.22c-.09-1.95-.2-3.65-.32-5.27s-.28-3.13-.46-4.76l-8.42.22C484.39,430.58,484.53,432,484.63,433.38Z"/><polygon class="cls-1" points="427.48 539.26 427.65 539.75 427.48 539.26 427.48 539.26"/><path class="cls-1" d="M484.08,427.87l8.42-.21c-.34-2.89-.77-5.79-1.28-8.64l-8.44.22C483.3,422.12,483.74,425,484.08,427.87Z"/><path class="cls-1" d="M451.94,349l9.45-.24c-1.79-2.69-3.67-5.41-5.73-8.3l-9.61.25C447.81,343.09,449.83,345.89,451.94,349Z"/><polygon class="cls-1" points="452.89 515.79 452.84 515.73 452.84 515.73 452.89 515.79"/><path class="cls-1" d="M426.54,299.92a28.16,28.16,0,0,0,.86,8h8.49a22.35,22.35,0,0,1-.89-8Z"/><path class="cls-1" d="M448.25,238.69l8.54,1.24c.69-3.05,1.23-6.12,1.63-9.15l-8.49-1C449.54,232.66,449,235.64,448.25,238.69Z"/><path class="cls-1" d="M445.26,249.2l8.54,1.61c1.1-3.47,2-6.79,2.76-9.89L448,239.69C447.26,242.74,446.34,245.93,445.26,249.2Z"/><path class="cls-1" d="M438.45,266.5l8.85,1.4c1-2.37,2-4.76,2.95-7.13l-8.64-1.64C440.65,261.51,439.58,264,438.45,266.5Z"/><path class="cls-1" d="M442,258.17l8.63,1.63c1.05-2.72,2-5.41,2.86-8l-8.55-1.62C444.05,252.79,443.06,255.47,442,258.17Z"/><path class="cls-1" d="M450.66,218.25l8.47.67a61.76,61.76,0,0,0-.77-8.88l-8.56-.39A55.07,55.07,0,0,1,450.66,218.25Z"/><path class="cls-1" d="M450.07,228.8l8.48,1a80.07,80.07,0,0,0,.6-9.83l-8.48-.67A72,72,0,0,1,450.07,228.8Z"/><path class="cls-1" d="M430.86,283.35l9.06.72c1-2.2,2.07-4.57,3.45-7.54l-9.05-1.06C432.85,278.67,431.76,281.15,430.86,283.35Z"/><path class="cls-1" d="M435.87,272.11l-1.1,2.39,9.05,1.06,1.6-3.46c.51-1.09,1-2.16,1.46-3.24L438,267.47Z"/><path class="cls-1" d="M230.68,239.69l-8.55,1.23c.73,3.1,1.66,6.42,2.77,9.89l8.53-1.61C232.36,245.94,231.43,242.75,230.68,239.69Z"/><path class="cls-1" d="M437.77,328.87l9.5-.13c-.26-.37-.52-.74-.75-1.09-2.27-3.39-4.07-6.25-5.53-8.72h-9.16C433.37,321.83,435.32,325.09,437.77,328.87Z"/><path class="cls-1" d="M426.58,298.9h8.52a32.52,32.52,0,0,1,1.39-6.14h-8.88A35.14,35.14,0,0,0,426.58,298.9Z"/><path class="cls-1" d="M439.37,331.3c1.38,2.06,3.13,4.47,5.16,7.26l.8,1.1,9.61-.25c-1.21-1.69-2.35-3.27-3.41-4.72-1.33-1.83-2.52-3.47-3.56-4.94l-9.53.13C438.74,330.35,439.05,330.82,439.37,331.3Z"/><path class="cls-1" d="M427.89,291.74h8.93c.65-1.89,1.49-4,2.67-6.68l-9-.72A70.69,70.69,0,0,0,427.89,291.74Z"/><path class="cls-1" d="M347.42,542.22l-.09,8.66c4.82-.14,9.51-.35,14-.61l-.21-8.7C356.69,541.85,352.09,542.07,347.42,542.22Z"/><path class="cls-1" d="M339.34,542.43c-2.4,0-4.74-.1-7-.17l.09,8.65q3.48.11,7,.16t7-.16l.09-8.65q-3.45.11-7,.17"/><path class="cls-1" d="M362.12,541.5l.22,8.71c3.91-.25,7.8-.55,11.58-.89l-.51-8.72C369.8,540.94,366,541.25,362.12,541.5Z"/><path class="cls-1" d="M374.43,540.5l.5,8.72c4.52-.43,8.94-.94,13.15-1.51l-1.42-8.66C382.71,539.6,378.6,540.09,374.43,540.5Z"/><path class="cls-1" d="M317.59,541.57l-.21,8.7c4.47.26,9.17.47,14,.61l-.09-8.66C326.6,542.07,322,541.85,317.59,541.57Z"/><path class="cls-1" d="M387.67,538.91l1.42,8.66c4.62-.66,9.12-1.41,13.4-2.25l-2.73-8.4C395.91,537.65,391.85,538.32,387.67,538.91Z"/><path class="cls-1" d="M267.06,534.32l-4.05,8c3.86,1,7.95,2,12.19,2.82l2.72-8.4C274.17,536,270.52,535.19,267.06,534.32Z"/><path class="cls-1" d="M304.78,549.32c3.77.34,7.66.64,11.58.89l.21-8.71c-3.89-.25-7.68-.56-11.29-.9Z"/><path class="cls-1" d="M244.72,527l-3.9,7.71c3.2,1.4,6.6,2.73,10.14,4l4-7.82C251.34,529.62,247.91,528.33,244.72,527Z"/><path class="cls-1" d="M400.77,536.72l2.72,8.4c4.25-.85,8.34-1.8,12.19-2.82l-4-8C408.18,535.19,404.53,536,400.77,536.72Z"/><path class="cls-1" d="M255.9,531.13l-4,7.83c3.28,1.12,6.66,2.15,10.07,3.07l4-8C262.53,533.16,259.12,532.18,255.9,531.13Z"/><path class="cls-1" d="M278.93,536.92l-2.72,8.4c4.28.84,8.77,1.59,13.39,2.25l1.42-8.66C286.84,538.32,282.78,537.65,278.93,536.92Z"/><path class="cls-1" d="M290.61,547.71c4.21.57,8.63,1.08,13.15,1.51l.51-8.72c-4.17-.42-8.28-.9-12.24-1.45Z"/><path class="cls-1" d="M423.77,530.81l4,7.82c3.53-1.22,6.93-2.55,10.14-4L434,527C430.78,528.33,427.36,529.61,423.77,530.81Z"/><path class="cls-1" d="M484.56,457.85l8.52.3c.24-2.77.4-5.68.46-8.65l-8.48.22C485,452.43,484.82,455.16,484.56,457.85Z"/><path class="cls-1" d="M483.18,467.72l8.41,1.47c.6-3.24,1.07-6.61,1.4-10l-8.52-.31C484.16,461.9,483.72,464.87,483.18,467.72Z"/><path class="cls-1" d="M480.64,477.9l8.22,2.49a99.35,99.35,0,0,0,2.54-10.2L483,468.72A88,88,0,0,1,480.64,477.9Z"/><path class="cls-1" d="M477.06,487.23l7.76,3.83a89,89,0,0,0,3.73-9.69l-8.23-2.5A78.91,78.91,0,0,1,477.06,487.23Z"/><path class="cls-1" d="M485,439.94c.11,2.87.13,5.75.07,8.76l8.47-.22c0-2.89,0-5.83-.12-8.76Z"/><path class="cls-1" d="M470.38,498.8l7.49,4.46A79.46,79.46,0,0,0,484.39,492l-7.77-3.83A72.41,72.41,0,0,1,470.38,498.8Z"/><path class="cls-1" d="M444.51,521.79l4.26,7.47a101.1,101.1,0,0,0,9.41-6l-5.39-6.75A88.91,88.91,0,0,1,444.51,521.79Z"/><path class="cls-1" d="M412.65,534.06l4,8c3.41-.92,6.79-1.95,10.07-3.07l-4-7.83C419.57,532.18,416.16,533.16,412.65,534.06Z"/><path class="cls-1" d="M235.07,522.28l-4.26,7.48c2.89,1.6,5.94,3.11,9.07,4.51l3.91-7.71C240.74,525.23,237.82,523.8,235.07,522.28Z"/><path class="cls-1" d="M434.91,526.56l3.9,7.71c3.13-1.39,6.18-2.91,9.07-4.51l-4.26-7.48C440.88,523.8,438,525.23,434.91,526.56Z"/><path class="cls-1" d="M233.76,250.17l-8.54,1.62c.85,2.6,1.8,5.29,2.85,8l8.63-1.63C235.63,255.47,234.65,252.79,233.76,250.17Z"/><path class="cls-1" d="M463.65,507l-.7.72,6.27,6a80.19,80.19,0,0,0,8.07-9.64l-7.5-4.47A72.66,72.66,0,0,1,463.65,507Z"/><path class="cls-1" d="M453.61,515.88l5.39,6.75a86.67,86.67,0,0,0,9.51-8.17l-6.28-6A78.87,78.87,0,0,1,453.61,515.88Z"/><path class="cls-1" d="M226.07,350l-9.44-.25c-1.93,2.92-3.71,5.72-5.4,8.52l9.24.24C222.23,355.68,224.07,352.88,226.07,350Z"/><path class="cls-1" d="M246.86,318.93h-9.15c-1.47,2.49-3.23,5.27-5.54,8.72-.23.35-.48.72-.74,1.09l9.49.13C243.38,325.09,245.33,321.83,246.86,318.93Z"/><path class="cls-1" d="M234.24,338.46c2-2.75,3.73-5.13,5.08-7.16l.94-1.42-9.54-.13c-1,1.47-2.23,3.11-3.55,4.94-1.06,1.45-2.21,3-3.42,4.72l9.62.25Z"/><path class="cls-1" d="M232.64,340.66l-9.6-.25c-2.06,2.89-3.94,5.61-5.74,8.3l9.45.24C228.87,345.89,230.88,343.09,232.64,340.66Z"/><path class="cls-1" d="M219.85,359.48l-9.23-.24c-1.86,3.11-3.63,6.24-5.27,9.32l9,.24C216.09,365.7,217.93,362.57,219.85,359.48Z"/><path class="cls-1" d="M208.94,379.37l-8.82-.23c-1.36,3-2.64,6-3.82,9l8.67.22C206.19,385.36,207.52,382.35,208.94,379.37Z"/><path class="cls-1" d="M213.82,369.8l-9-.23c-1.46,2.77-2.88,5.65-4.23,8.56l8.82.23C210.77,375.55,212.25,372.68,213.82,369.8Z"/><path class="cls-1" d="M242.82,272.11l-2.14-4.64-8.86,1.39c.47,1.08.94,2.15,1.45,3.24l1.6,3.46,9.06-1.06Z"/><path class="cls-1" d="M251,308.94h-8.53a49.75,49.75,0,0,1-4.2,9h9.1A49.33,49.33,0,0,0,251,308.94Z"/><path class="cls-1" d="M244.37,275.47l-9.05,1.06c1.38,3,2.48,5.34,3.45,7.54l9.07-.72C246.93,281.15,245.84,278.67,244.37,275.47Z"/><path class="cls-1" d="M237.09,259.13l-8.64,1.64c.93,2.38,1.92,4.77,3,7.13l8.85-1.4C239.11,264,238.05,261.51,237.09,259.13Z"/><path class="cls-1" d="M248.24,284.34l-9,.72c1.17,2.69,2,4.79,2.66,6.68h8.94A75.64,75.64,0,0,0,248.24,284.34Z"/><path class="cls-1" d="M252.11,298.9a35,35,0,0,0-1-6.14H242.2a31.83,31.83,0,0,1,1.4,6.14Z"/><path class="cls-1" d="M198.37,478.87l-8.23,2.5a89,89,0,0,0,3.74,9.69l7.76-3.83A78.94,78.94,0,0,1,198.37,478.87Z"/><path class="cls-1" d="M225.9,516.49l-5.38,6.75a100.92,100.92,0,0,0,9.4,6l4.26-7.47A91.64,91.64,0,0,1,225.9,516.49Z"/><path class="cls-1" d="M202.07,488.15,194.31,492a80.53,80.53,0,0,0,6.51,11.28l7.49-4.46A73.31,73.31,0,0,1,202.07,488.15Z"/><path class="cls-1" d="M194.23,458.86l-8.52.31c.32,3.42.79,6.79,1.39,10l8.41-1.47C195,464.88,194.54,461.9,194.23,458.86Z"/><path class="cls-1" d="M195.71,468.72l-8.42,1.47a98.07,98.07,0,0,0,2.55,10.2l8.22-2.49A91.92,91.92,0,0,1,195.71,468.72Z"/><path class="cls-1" d="M204.57,389.35l-8.67-.22c-1,2.67-2,5.42-2.92,8.18l8.56.22C202.48,394.77,203.5,392,204.57,389.35Z"/><path class="cls-1" d="M216.46,508.44l-6.27,6a84.85,84.85,0,0,0,9.51,8.17l5.38-6.75A78.87,78.87,0,0,1,216.46,508.44Z"/><path class="cls-1" d="M215,507a70.25,70.25,0,0,1-6.13-7.37l-7.5,4.47a79.34,79.34,0,0,0,8.06,9.64l6.27-6Z"/><path class="cls-1" d="M193.63,449.72l-8.48-.22c.07,3,.22,5.88.46,8.65l8.52-.3C193.88,455.17,193.71,452.44,193.63,449.72Z"/><path class="cls-1" d="M195.91,419.24l-8.44-.22c-.5,2.85-.93,5.75-1.27,8.64l8.42.21C195,425,195.39,422.12,195.91,419.24Z"/><path class="cls-1" d="M201.21,398.55l-8.56-.22c-1.05,3.24-2,6.49-2.79,9.67l8.48.22C199.18,405,200.14,401.74,201.21,398.55Z"/><path class="cls-1" d="M198.08,409.23,189.6,409c-.75,3.05-1.4,6.07-1.94,9l8.44.21C196.66,415.21,197.33,412.2,198.08,409.23Z"/><path class="cls-1" d="M194.06,433.38c.11-1.38.25-2.83.43-4.49l-8.41-.22c-.19,1.67-.34,3.24-.46,4.76s-.23,3.31-.32,5.27l8.42.22C193.81,437.08,193.92,435.22,194.06,433.38Z"/><path class="cls-1" d="M193.68,439.94l-8.42-.22c-.13,2.95-.17,5.89-.12,8.76l8.46.22C193.54,445.7,193.56,442.82,193.68,439.94Z"/><path class="cls-2" d="M339.35,551.73c-79.69-.62-161.09-16.73-153.43-118.25,4.08-54,35.68-91.75,44.86-106,15.9-24.74,13.25-27.53,1-55-48-107.91,44.85-117.24,107-117.24h1c62.18,0,155,9.33,107,117.24-12.23,27.52-14.88,30.31,1,55,9.17,14.27,40.78,52,44.85,106C500.44,535,419,551.11,339.35,551.73"/><circle class="cls-2" cx="339.35" cy="269.35" r="35.68"/><path class="cls-3" d="M457.38,242.24c.74-3.16,1.34-6.22,1.78-9.16"/><polygon class="cls-4" points="378.04 391.89 381.77 395.66 445.34 332.02 442.51 327.46 378.04 391.89"/><polygon class="cls-4" points="414.84 429.67 418.57 433.44 474.15 377.71 471.33 373.15 414.84 429.67"/><polygon class="cls-4" points="269.41 542.05 276.49 543.71 425.99 442.86 423.92 437.79 269.41 542.05"/><polygon class="cls-4" points="269.21 426.42 265.47 430.18 207.32 371.95 210.14 367.39 269.21 426.42"/><polygon class="cls-4" points="302.46 389.95 298.72 393.72 235.16 330.08 237.98 325.52 302.46 389.95"/><polygon class="cls-4" points="403.08 293.02 398.93 296.85 369.42 225.49 375.03 225.37 403.08 293.02"/><polygon class="cls-4" points="275.87 294.16 280.49 296.85 310 225.49 304.39 225.37 275.87 294.16"/><path class="cls-5" d="M302.46,546.41l13.39.58q23.49,1,47,0l13.39-.58V534.47a6.47,6.47,0,0,0-6.6-6.33H309.05a6.46,6.46,0,0,0-6.59,6.33Z"/><path class="cls-6" d="M457.21,225.49H221.49a68.49,68.49,0,0,1,1.22-18.9H456A69.27,69.27,0,0,1,457.21,225.49Z"/><polygon class="cls-7" points="275.09 424.54 402.29 424 372.46 393.72 303.67 393.72 275.09 424.54"/><path class="cls-4" d="M454.68,237.66c-.44,2.94-1,6-1.79,9.16L201.57,498q-1.38-2.29-2.64-4.73Z"/><path class="cls-4" d="M223.7,237.66c.44,2.94,1,6,1.78,9.16L476.8,498q1.4-2.29,2.64-4.73Z"/><polygon class="cls-4" points="220.58 520.44 225.16 523.69 404.14 425.33 400.19 421.42 220.58 520.44"/><path class="cls-8" d="M311.77,186.7h55.15a5.3,5.3,0,0,0,5.3-5.3v-22h0a538.19,538.19,0,0,0-65.75,0h0v22A5.3,5.3,0,0,0,311.77,186.7Z"/><g class="cls-9"><path class="cls-10" d="M231.8,272.42c12.23,27.53,14.88,30.32-1,55.05-9.18,14.28-40.78,52-44.86,106-6.09,80.7,44.1,107.42,105,115.31V158.08C240.06,165.43,195.41,190.55,231.8,272.42Z"/><path class="cls-11" d="M492.77,433.5c-4.07-54-35.68-91.75-44.85-106-15.9-24.73-13.25-27.52-1-55.05,36.66-82.48-8.94-107.36-60.23-114.51V549C448.05,541.26,498.9,514.7,492.77,433.5Z"/><path class="cls-12" d="M340.43,155.15h-1c-15,0-31.79.55-48,2.89V548.77a401.05,401.05,0,0,0,95.78.14v-391C371.43,155.67,355.08,155.15,340.43,155.15Z"/><circle class="cls-13" cx="339.35" cy="269.34" r="39.15"/><path class="cls-14" d="M339.35,553.25h0c-45.26-.35-101.17-5.07-132.14-38.74-17.74-19.28-25.41-46.58-22.8-81.16,3.56-47.2,27.49-81.41,40.34-99.79,1.9-2.71,3.54-5.05,4.75-6.94,14.67-22.82,13.3-25.88,2.65-49.69L230.4,273c-16-36-17.64-64.31-4.82-84,20.6-31.69,74.5-35.36,113.26-35.36h1c16.72,0,41.52.6,63.71,5.8C427.31,165,444,174.94,453.11,189c12.82,19.72,11.2,48-4.81,84l-1.75,3.91c-10.65,23.81-12,26.87,2.65,49.69,1.22,1.89,2.85,4.23,4.75,6.94,12.86,18.38,36.79,52.59,40.35,99.79,2.61,34.58-5.06,61.88-22.8,81.16-31,33.67-86.89,38.39-132.14,38.74Zm-.51-396.56c-38,0-90.91,3.52-110.69,34-12.22,18.8-10.52,46.09,5,81.12l1.74,3.9c10.76,24.05,12.7,28.39-2.87,52.59-1.24,1.94-2.9,4.31-4.81,7-12.69,18.14-36.3,51.91-39.8,98.28-2.55,33.69,4.85,60.22,22,78.85,30.51,33.17,88.75,37.43,129.9,37.75,85.91-.67,115.28-21.86,129.9-37.75,17.14-18.63,24.54-45.16,22-78.85-3.5-46.37-27.12-80.14-39.81-98.28-1.91-2.73-3.56-5.1-4.81-7-15.56-24.2-13.62-28.54-2.87-52.59l1.74-3.9c15.57-35,17.27-62.32,5.05-81.12-19.79-30.45-72.65-34-110.69-34h-1Z"/><circle class="cls-15" cx="339.35" cy="269.34" r="35.68"/><path class="cls-16" d="M399.69,229.81c1.18-.37,2.37-.75,3.61-1.17A24.93,24.93,0,0,0,399.69,229.81Z"/><path class="cls-16" d="M384.56,353.86a54.9,54.9,0,0,1,38.53,15.71,10.64,10.64,0,0,0,10.72,2.77c3.74-1.24,7.38-4.84,7.44-14.1.05-7.66-5-12.17-14.4-32.27-16.5-35.19,6.52-46.05,8.57-72.15a25.93,25.93,0,0,0-32.12-25.18h0a24.93,24.93,0,0,0-3.61,1.17c-15.33,4.79-24.93,5.08-29.95,4.62a1.25,1.25,0,0,0-1,2.16A45.58,45.58,0,0,1,337.18,315s.32,34.13,47.38,38.83"/><path class="cls-17" d="M344.56,400a96,96,0,0,1-10.46,0c-8.86-.48-26.8-1.56-37.15-3-11.9-1.65-16.94,8-19.54,18.89,0,0,16.25,1.53,24.54,8.26,5.79,4.7,20,3.26,29.11,1.69a49.21,49.21,0,0,1,16.6,0c9.13,1.56,23.3,3,29.09-1.7,8.28-6.73,24.54-8.26,24.54-8.26-2.61-10.86-7.65-20.54-19.55-18.89C371.38,398.42,353.41,399.51,344.56,400Z"/><line class="cls-17" x1="313.77" y1="408.94" x2="366.65" y2="408.4"/><circle class="cls-18" cx="288.57" cy="406.62" r="3.25"/><circle class="cls-18" cx="388.16" cy="406.62" r="3.25"/><circle class="cls-18" cx="308.55" cy="409.49" r="3.69"/><circle class="cls-19" cx="307.09" cy="419.5" r="2.77"/><circle class="cls-19" cx="316.54" cy="418.01" r="2.77"/><circle class="cls-19" cx="325.64" cy="418.01" r="2.77"/><circle class="cls-19" cx="335.36" cy="418.01" r="2.77"/><circle class="cls-19" cx="344.86" cy="418.01" r="2.77"/><circle class="cls-19" cx="354.26" cy="418.01" r="2.77"/><circle class="cls-19" cx="362.53" cy="418.01" r="2.77"/><circle class="cls-19" cx="373.17" cy="419.5" r="2.77"/><circle class="cls-18" cx="372.25" cy="409.49" r="3.69"/><line class="cls-19" x1="309.19" y1="408.16" x2="307.91" y2="410.53"/><line class="cls-19" x1="307.36" y1="408.7" x2="309.74" y2="409.99"/><line class="cls-19" x1="306.37" y1="418.43" x2="308.03" y2="420.57"/><line class="cls-19" x1="306.14" y1="420.33" x2="308.27" y2="418.67"/><line class="cls-19" x1="373.43" y1="418.17" x2="372.91" y2="420.82"/><line class="cls-19" x1="371.84" y1="419.24" x2="374.5" y2="419.76"/><line class="cls-19" x1="371.5" y1="408.22" x2="373.01" y2="410.47"/><line class="cls-19" x1="371.13" y1="410.1" x2="373.37" y2="408.59"/></g><rect class="cls-20" width="678.69" height="678.69"/></g></g></svg>