<svg xmlns="http://www.w3.org/2000/svg" viewBox="0 0 615.47 615.47"><defs><style>.cls-1{fill:#999;}.cls-1,.cls-11{stroke:#999;}.cls-1,.cls-10,.cls-11,.cls-12,.cls-13,.cls-14,.cls-15,.cls-3,.cls-9{stroke-miterlimit:10;}.cls-2{font-size:16.45px;}.cls-2,.cls-4,.cls-5,.cls-6,.cls-7{font-family:Helvetica;}.cls-10,.cls-15,.cls-3{fill:#fff;}.cls-15,.cls-3{stroke:#fff;}.cls-4{font-size:32.23px;}.cls-5{font-size:14.9px;}.cls-6{font-size:17.05px;}.cls-7{font-size:20.43px;}.cls-11,.cls-12,.cls-13,.cls-14,.cls-8{fill:none;}.cls-9{fill:#29abe2;}.cls-13,.cls-9{stroke:#29abe2;}.cls-10{stroke:#22b573;}.cls-10,.cls-14{stroke-width:1.15px;}.cls-11,.cls-12,.cls-13{stroke-width:1.15px;}.cls-11{stroke-dasharray:2 2 2 2 2 2;}.cls-12{stroke:#b3b3b3;stroke-dasharray:1 1 1 1;}.cls-14{stroke:#000;}.cls-15{stroke-width:2px;}</style></defs><title>Refret</title><g id="Layer_2" data-name="Layer 2"><g id="Tracing"><rect class="cls-1" x="0.83" y="321.31" width="612.86" height="7.87"/><text class="cls-2" transform="translate(70.11 254.1)">32</text><path class="cls-3" d="M323.1,322.62h-1.37c-2.69,1-6.2,3.52-6.18,6.53l7,0h7C329.48,326.16,325.79,323.59,323.1,322.62Z"/><text class="cls-4" transform="translate(130.03 262.23)">1</text><text class="cls-5" transform="translate(49.14 220.91)">1</text><text class="cls-4" transform="translate(281.11 262.23)">2</text><text class="cls-6" transform="translate(8.29 254.1)">INCH</text><text class="cls-7" transform="translate(8.29 214.68)">cm</text><text class="cls-5" transform="translate(109.48 220.91)">2</text><text class="cls-7" transform="translate(68.64 214.68)">cm</text><text class="cls-5" transform="translate(169.83 220.91)">3</text><text class="cls-7" transform="translate(128.99 214.68)">cm</text><text class="cls-5" transform="translate(230.18 220.91)">4</text><text class="cls-7" transform="translate(189.33 214.68)">cm</text><text class="cls-5" transform="translate(290.53 220.91)">5</text><text class="cls-7" transform="translate(249.68 214.68)">cm</text><text class="cls-5" transform="translate(350.87 220.91)">6</text><text class="cls-7" transform="translate(310.03 214.68)">cm</text><text class="cls-5" transform="translate(411.22 220.91)">7</text><text class="cls-7" transform="translate(370.37 214.68)">cm</text><text class="cls-5" transform="translate(471.57 220.91)">8</text><text class="cls-7" transform="translate(430.72 214.68)">cm</text><text class="cls-5" transform="translate(531.91 220.91)">9</text><text class="cls-7" transform="translate(491.07 214.68)">cm</text><text class="cls-5" transform="translate(584.24 220.91)">10</text><text class="cls-7" transform="translate(551.42 214.68)">cm</text><text class="cls-2" transform="translate(378.01 254.1)">32</text><text class="cls-4" transform="translate(437.93 262.23)">3</text><text class="cls-4" transform="translate(589.02 262.23)">4</text><text class="cls-6" transform="translate(316.2 254.1)">INCH</text><polygon class="cls-8" points="154.63 224.39 154.63 277.73 154.63 291.68 154.93 291.68 154.93 277.73 154.93 224.39 154.63 224.39"/><path class="cls-3" d="M214,322.62h-1.36c-2.7,1-6.21,3.52-6.18,6.53l7,0h7C220.41,326.16,216.71,323.59,214,322.62Z"/><path class="cls-3" d="M528.56,329.18c0-3-3.69-5.59-6.38-6.56h-1.37c-2.69,1-6.2,3.52-6.17,6.53l7,0Z"/><path class="cls-3" d="M105,329.18c0-3-3.69-5.59-6.38-6.56H97.27c-2.69,1-6.2,3.52-6.17,6.53l7,0Z"/><path class="cls-3" d="M432.56,329.18c0-3-3.69-5.59-6.39-6.56h-1.36c-2.69,1-6.2,3.52-6.18,6.53l7,0Z"/><path class="cls-9" d="M213.46,329.19H98.06m224.45,0h-109m212.13,0H322.51m199.09,0h-96V339M98.06,329.19H.83v22.92H613.68V329.19H521.6M44.39,346.38a5.73,5.73,0,1,1,5.73-5.73A5.72,5.72,0,0,1,44.39,346.38Zm225.83,0a5.73,5.73,0,1,1,5.73-5.73A5.73,5.73,0,0,1,270.22,346.38Zm299.2,0a5.73,5.73,0,1,1,5.73-5.73A5.73,5.73,0,0,1,569.42,346.38Z"/><path class="cls-10" d="M44.39,334.92a5.73,5.73,0,1,0,5.73,5.73A5.73,5.73,0,0,0,44.39,334.92Z"/><path class="cls-10" d="M270.22,334.92a5.73,5.73,0,1,0,5.73,5.73A5.74,5.74,0,0,0,270.22,334.92Z"/><path class="cls-10" d="M569.42,334.92a5.73,5.73,0,1,0,5.73,5.73A5.74,5.74,0,0,0,569.42,334.92Z"/><path class="cls-11" d="M613.68,435.9h0v-8.59h0v-8.59h0v-8.59h0v-8.59h0V393h0v-8.59h0v-8.59h0v-8.59h0V358.6h0v-6.49H.83v91.71H360.67q12.75,0,25.57.67H613.68Z"/><path class="cls-12" d="M612,530.39h1.67V521.8h0v-8.59h0v-8.59h0V496h0v-8.59h0v-8.59h0v-8.59h0v-8.59h0v-8.59h0v-8.59H386.24c70.89,3.67,142.38,22.95,199.23,64.68l28.21,22.57v-1.35Z"/><line class="cls-13" x1="613.69" y1="427.31" x2="613.69" y2="418.72"/><line class="cls-13" x1="613.69" y1="435.9" x2="613.69" y2="427.31"/><line class="cls-13" x1="613.69" y1="444.49" x2="613.69" y2="435.9"/><path class="cls-13" d="M613.69,358.6v-6.49H.83v91.71H360.67q12.75,0,25.58.67"/><line class="cls-13" x1="613.69" y1="367.18" x2="613.69" y2="358.6"/><line class="cls-13" x1="613.69" y1="375.77" x2="613.69" y2="367.18"/><line class="cls-13" x1="613.69" y1="384.36" x2="613.69" y2="375.77"/><line class="cls-13" x1="613.69" y1="392.95" x2="613.69" y2="384.36"/><line class="cls-13" x1="613.69" y1="401.54" x2="613.69" y2="392.95"/><line class="cls-13" x1="613.69" y1="410.13" x2="613.69" y2="401.54"/><line class="cls-13" x1="613.69" y1="418.72" x2="613.69" y2="410.13"/><line class="cls-13" x1="613.69" y1="453.08" x2="613.69" y2="444.49"/><line class="cls-13" x1="613.69" y1="461.67" x2="613.69" y2="453.08"/><line class="cls-13" x1="613.69" y1="470.26" x2="613.69" y2="461.67"/><line class="cls-13" x1="613.69" y1="478.85" x2="613.69" y2="470.26"/><line class="cls-13" x1="613.69" y1="487.44" x2="613.69" y2="478.85"/><line class="cls-13" x1="613.69" y1="496.03" x2="613.69" y2="487.44"/><line class="cls-13" x1="613.69" y1="504.62" x2="613.69" y2="496.03"/><line class="cls-13" x1="613.69" y1="513.21" x2="613.69" y2="504.62"/><line class="cls-13" x1="613.69" y1="521.8" x2="613.69" y2="513.21"/><path class="cls-13" d="M386.25,444.49c70.88,3.67,142.37,22.95,199.22,64.68l28.22,22.57v-1.35h0V521.8"/><rect class="cls-14" x="63.14" y="305.1" width="4.72" height="16.21"/><polygon class="cls-14" points="135.22 297.26 116.28 297.26 116.28 299.52 125.68 299.52 135.22 299.52 135.22 299.29 135.22 299.52 144.65 299.52 144.65 298.83 144.65 299.52 154.41 299.52 154.41 305.1 149.65 305.1 149.65 321.31 154.63 321.31 154.63 297.26 154.41 297.26 135.22 297.26"/><rect class="cls-14" x="67.86" y="305.1" width="5" height="16.21"/><polygon class="cls-14" points="77.62 305.1 72.86 305.1 72.86 321.31 77.73 321.31 77.73 305.1 77.62 305.1"/><rect class="cls-14" x="43.86" y="305.1" width="5.03" height="16.21"/><rect class="cls-14" x="48.89" y="305.1" width="4.77" height="16.21"/><rect class="cls-14" x="53.65" y="305.1" width="4.77" height="16.21"/><rect class="cls-14" x="58.42" y="305.1" width="4.72" height="16.21"/><rect class="cls-14" x="139.93" y="305.1" width="4.72" height="16.21"/><rect class="cls-14" x="135.22" y="305.1" width="4.72" height="16.21"/><rect class="cls-14" x="39.22" y="305.1" width="4.64" height="16.21"/><rect class="cls-14" x="144.65" y="305.1" width="5" height="16.21"/><rect class="cls-14" x="130.45" y="305.1" width="4.77" height="16.21"/><rect class="cls-14" x="116.28" y="305.1" width="4.38" height="16.21"/><rect class="cls-14" x="120.65" y="305.1" width="5.03" height="16.21"/><rect class="cls-14" x="125.68" y="305.1" width="4.77" height="16.21"/><rect class="cls-14" x="77.73" y="305.1" width="0.15" height="16.21"/><polygon class="cls-14" points="58.42 299.52 58.42 299.29 58.42 299.52 67.86 299.52 77.62 299.52 77.73 299.52 77.73 297.26 77.62 297.26 58.42 297.26 39.22 297.26 39.22 299.52 48.89 299.52 58.42 299.52"/><polygon class="cls-14" points="77.62 291.68 77.73 291.68 77.73 277.73 39.22 277.73 39.22 291.68 58.42 291.68 77.62 291.68"/><polygon class="cls-14" points="116.28 277.73 116.28 291.68 135.22 291.68 154.41 291.68 154.63 291.68 154.63 277.73 116.28 277.73"/><rect class="cls-14" x="77.73" y="297.26" width="0.15" height="2.27"/><rect class="cls-14" x="77.73" y="277.73" width="0.15" height="13.95"/><polygon class="cls-14" points="77.73 277.73 77.73 261 77.73 277.73 77.88 277.73 116.28 277.73 154.63 277.73 154.63 224.39 121.52 224.39 77.73 224.39 61.17 224.39 0.83 224.39 0.83 277.73 39.22 277.73 77.73 277.73"/><polygon class="cls-14" points="39.22 291.68 39.22 277.73 0.83 277.73 0.83 291.68 20.03 291.68 39.22 291.68"/><rect class="cls-14" x="5.46" y="305.1" width="5.03" height="16.21"/><rect class="cls-14" x="20.03" y="305.1" width="4.72" height="16.21"/><rect class="cls-14" x="24.74" y="305.1" width="4.72" height="16.21"/><rect class="cls-14" x="29.46" y="305.1" width="5" height="16.21"/><rect class="cls-14" x="15.26" y="305.1" width="4.77" height="16.21"/><rect class="cls-14" x="34.46" y="305.1" width="4.76" height="16.21"/><rect class="cls-14" x="10.49" y="305.1" width="4.77" height="16.21"/><rect class="cls-14" x="0.83" y="305.1" width="4.64" height="16.21"/><polygon class="cls-14" points="20.03 299.52 20.03 299.29 20.03 299.52 29.46 299.52 39.22 299.52 39.22 297.26 20.03 297.26 0.83 297.26 0.83 299.52 10.49 299.52 20.03 299.52"/><rect class="cls-14" x="101.54" y="305.1" width="4.72" height="16.21"/><rect class="cls-14" x="96.82" y="305.1" width="4.72" height="16.21"/><rect class="cls-14" x="92.05" y="305.1" width="4.77" height="16.21"/><polygon class="cls-14" points="116.02 305.1 111.25 305.1 111.25 321.31 116.28 321.31 116.28 305.1 116.02 305.1"/><rect class="cls-14" x="87.28" y="305.1" width="4.77" height="16.21"/><rect class="cls-14" x="106.26" y="305.1" width="5" height="16.21"/><rect class="cls-14" x="77.88" y="305.1" width="4.38" height="16.21"/><polygon class="cls-14" points="96.82 291.68 116.02 291.68 116.28 291.68 116.28 277.73 77.88 277.73 77.88 291.68 96.82 291.68"/><polygon class="cls-14" points="96.82 297.26 77.88 297.26 77.88 299.52 87.28 299.52 96.82 299.52 96.82 299.29 96.82 299.52 106.25 299.52 116.02 299.52 116.28 299.52 116.28 297.26 116.02 297.26 96.82 297.26"/><rect class="cls-14" x="82.26" y="305.1" width="5.03" height="16.21"/><rect class="cls-14" x="279.27" y="305.1" width="4.77" height="16.21"/><rect class="cls-14" x="274.24" y="305.1" width="5.03" height="16.21"/><rect class="cls-14" x="270.38" y="305.1" width="3.86" height="16.21"/><polygon class="cls-14" points="231.98 299.52 231.98 297.26 231.98 291.68 231.98 277.73 231.83 277.73 231.83 299.29 231.85 299.29 231.85 304.87 231.83 304.87 231.83 321.31 231.98 321.31 231.98 305.1 231.98 299.52"/><rect class="cls-14" x="288.8" y="305.1" width="4.72" height="16.21"/><rect class="cls-14" x="284.04" y="305.1" width="4.77" height="16.21"/><rect class="cls-14" x="293.52" y="305.1" width="4.72" height="16.21"/><rect class="cls-14" x="303.24" y="305.1" width="5.5" height="16.21"/><polygon class="cls-14" points="193.46 304.87 193.46 299.29 212.01 299.29 221.45 299.29 221.45 298.83 221.45 299.29 231.83 299.29 231.83 277.73 193.33 277.73 193.33 291.68 212.01 291.68 231.52 291.68 231.52 297.26 212.01 297.26 193.33 297.26 193.33 299.52 193.33 305.1 193.33 321.31 197.45 321.31 197.45 304.87 193.46 304.87"/><polygon class="cls-14" points="270.38 291.68 288.8 291.68 308.73 291.68 308.73 277.73 270.38 277.73 270.38 291.68"/><polygon class="cls-14" points="270.38 297.26 270.38 299.52 279.27 299.52 288.8 299.52 288.8 299.29 288.8 299.52 298.24 299.52 308.73 299.52 308.73 297.26 288.8 297.26 270.38 297.26"/><polygon class="cls-14" points="202.47 304.87 197.45 304.87 197.45 321.31 202.47 321.31 202.47 305.1 202.47 304.87"/><polygon class="cls-14" points="212.01 304.87 212.01 321.31 216.73 321.31 216.73 305.04 216.73 321.31 221.45 321.31 221.45 305.04 221.45 321.31 226.44 321.31 226.44 305.04 226.44 321.31 231.83 321.31 231.83 304.87 212.01 304.87"/><rect class="cls-14" x="207.24" y="304.87" width="4.77" height="16.44"/><polygon class="cls-14" points="202.47 304.87 202.47 305.1 202.47 321.31 207.24 321.31 207.24 304.87 202.47 304.87"/><rect class="cls-14" x="298.24" y="305.1" width="5" height="16.21"/><path class="cls-14" d="M242.22,224.39H154.93v53.34h153.8V224.39H242.22ZM232,270.6v0Z"/><rect class="cls-14" x="164.08" y="305.1" width="4.77" height="16.21"/><rect class="cls-14" x="178.33" y="305.1" width="4.72" height="16.21"/><rect class="cls-14" x="188.05" y="305.1" width="5.28" height="16.21"/><rect class="cls-14" x="173.61" y="305.1" width="4.72" height="16.21"/><rect class="cls-14" x="183.05" y="305.1" width="5" height="16.21"/><rect class="cls-14" x="168.84" y="305.1" width="4.77" height="16.21"/><rect class="cls-14" x="159.05" y="305.1" width="5.03" height="16.21"/><polygon class="cls-14" points="173.61 299.52 173.61 299.29 173.61 299.52 183.05 299.52 193.33 299.52 193.33 297.26 193.12 297.26 193.12 291.68 193.33 291.68 193.33 277.73 154.93 277.73 154.93 291.68 173.61 291.68 192.81 291.68 192.81 297.26 173.61 297.26 154.93 297.26 154.93 299.52 164.08 299.52 173.61 299.52"/><rect class="cls-14" x="154.93" y="305.1" width="4.12" height="16.21"/><rect class="cls-14" x="264.84" y="305.1" width="5.54" height="16.21"/><polygon class="cls-14" points="270.38 291.68 270.38 277.73 231.98 277.73 231.98 291.68 250.41 291.68 270.38 291.68"/><rect class="cls-14" x="231.98" y="305.1" width="3.86" height="16.21"/><polygon class="cls-14" points="250.41 299.52 250.41 299.29 250.41 299.52 259.84 299.52 270.38 299.52 270.38 297.26 250.41 297.26 231.98 297.26 231.98 299.52 241.65 299.52 250.41 299.52"/><rect class="cls-14" x="259.84" y="305.1" width="5" height="16.21"/><rect class="cls-14" x="255.12" y="305.1" width="4.72" height="16.21"/><polygon class="cls-14" points="241.65 305.1 240.87 305.1 240.87 321.31 245.64 321.31 245.64 305.1 241.65 305.1"/><rect class="cls-14" x="245.64" y="305.1" width="4.77" height="16.21"/><rect class="cls-14" x="250.41" y="305.1" width="4.72" height="16.21"/><rect class="cls-14" x="235.84" y="305.1" width="5.03" height="16.21"/><polygon class="cls-14" points="61.17 176.62 29.11 176.62 29.11 193.36 29.11 176.62 0.83 176.62 0.83 224.39 61.17 224.39 61.17 176.62"/><rect class="cls-14" x="0.83" y="142.71" width="60.35" height="24.04"/><polygon class="cls-14" points="61.17 176.62 61.17 166.75 0.83 166.75 0.83 176.62 29.11 176.62 61.17 176.62"/><rect class="cls-14" x="20.03" y="291.68" width="19.2" height="5.58"/><rect class="cls-14" x="0.83" y="291.68" width="19.2" height="5.58"/><polygon class="cls-14" points="29.46 299.52 29.46 305.04 29.46 305.1 34.46 305.1 34.46 305.04 34.46 305.1 39.22 305.1 39.22 299.52 29.46 299.52"/><polygon class="cls-14" points="29.46 299.52 20.03 299.52 20.03 304.87 20.03 305.1 24.74 305.1 24.74 305.04 24.74 305.1 29.46 305.1 29.46 305.04 29.46 299.52"/><polygon class="cls-14" points="5.46 304.87 5.46 305.1 10.49 305.1 10.49 304.87 10.49 299.52 0.83 299.52 0.83 305.1 5.46 305.1 5.46 304.87"/><polygon class="cls-14" points="20.03 299.52 10.49 299.52 10.49 304.87 10.49 305.1 15.26 305.1 15.26 304.87 15.26 305.1 20.03 305.1 20.03 304.87 20.03 299.52"/><rect class="cls-14" x="58.42" y="291.68" width="19.2" height="5.58"/><rect class="cls-14" x="39.22" y="291.68" width="19.2" height="5.58"/><polygon class="cls-14" points="58.42 299.52 48.89 299.52 48.89 304.87 48.89 305.1 53.65 305.1 53.65 304.87 53.65 305.1 58.42 305.1 58.42 304.87 58.42 299.52"/><polygon class="cls-14" points="67.86 299.52 67.86 305.04 67.86 305.1 72.86 305.1 72.86 305.04 72.86 305.1 77.62 305.1 77.62 299.52 67.86 299.52"/><polygon class="cls-14" points="48.89 299.52 39.22 299.52 39.22 305.1 43.86 305.1 43.86 304.87 43.86 305.1 48.89 305.1 48.89 304.87 48.89 299.52"/><polygon class="cls-14" points="67.86 299.52 58.42 299.52 58.42 304.87 58.42 305.1 63.14 305.1 63.14 305.04 63.14 305.1 67.86 305.1 67.86 305.04 67.86 299.52"/><rect class="cls-14" x="77.62" y="291.68" width="0.11" height="5.58"/><rect class="cls-14" x="77.73" y="291.68" width="0.15" height="5.58"/><rect class="cls-14" x="77.88" y="291.68" width="18.94" height="5.58"/><rect class="cls-14" x="96.82" y="291.68" width="19.2" height="5.58"/><rect class="cls-14" x="77.62" y="299.52" width="0.11" height="5.58"/><rect class="cls-14" x="77.73" y="299.52" width="0.15" height="5.58"/><polygon class="cls-14" points="106.25 299.52 96.82 299.52 96.82 304.87 96.82 305.1 101.54 305.1 101.54 305.04 101.54 305.1 106.25 305.1 106.25 305.04 106.25 299.52"/><polygon class="cls-14" points="87.28 299.52 77.88 299.52 77.88 305.1 82.26 305.1 82.26 304.87 82.26 305.1 87.28 305.1 87.28 304.87 87.28 299.52"/><polygon class="cls-14" points="96.82 299.52 87.28 299.52 87.28 304.87 87.28 305.1 92.05 305.1 92.05 304.87 92.05 305.1 96.82 305.1 96.82 304.87 96.82 299.52"/><polygon class="cls-14" points="106.25 299.52 106.25 305.04 106.25 305.1 111.25 305.1 111.25 305.04 111.25 305.1 116.02 305.1 116.02 299.52 106.25 299.52"/><rect class="cls-14" x="116.28" y="291.68" width="18.94" height="5.58"/><rect class="cls-14" x="135.22" y="291.68" width="19.2" height="5.58"/><rect class="cls-14" x="116.02" y="291.68" width="0.26" height="5.58"/><polygon class="cls-14" points="135.22 305.1 139.93 305.1 139.93 305.04 139.93 305.1 144.65 305.1 144.65 305.04 144.65 305.1 149.65 305.1 149.65 305.04 149.65 305.1 154.41 305.1 154.41 299.52 144.65 299.52 144.65 304.4 144.65 299.52 135.22 299.52 135.22 304.87 135.22 305.1"/><polygon class="cls-14" points="125.68 305.1 130.45 305.1 130.45 304.87 130.45 305.1 135.22 305.1 135.22 304.87 135.22 299.52 125.68 299.52 125.68 304.87 125.68 305.1"/><polygon class="cls-14" points="120.65 305.1 120.65 304.87 120.65 305.1 125.68 305.1 125.68 304.87 125.68 299.52 116.28 299.52 116.28 305.1 120.65 305.1"/><rect class="cls-14" x="116.02" y="299.52" width="0.26" height="5.58"/><rect class="cls-14" x="154.63" y="291.68" width="0.3" height="5.58"/><rect class="cls-14" x="154.41" y="291.68" width="0.21" height="5.58"/><rect class="cls-14" x="154.93" y="291.68" width="18.68" height="5.58"/><rect class="cls-14" x="173.61" y="291.68" width="19.2" height="5.58"/><polygon class="cls-14" points="183.05 299.52 173.61 299.52 173.61 304.87 173.61 305.1 178.33 305.1 178.33 305.04 178.33 305.1 183.05 305.1 183.05 305.04 183.05 299.52"/><polygon class="cls-14" points="173.61 299.52 164.08 299.52 164.08 304.87 164.08 305.1 168.84 305.1 168.84 304.87 168.84 305.1 173.61 305.1 173.61 304.87 173.61 299.52"/><polygon class="cls-14" points="159.05 304.87 159.05 305.1 164.08 305.1 164.08 304.87 164.08 299.52 154.93 299.52 154.93 305.1 159.05 305.1 159.05 304.87"/><polygon class="cls-14" points="183.05 305.04 183.05 305.1 188.05 305.1 188.05 305.04 188.05 305.1 193.33 305.1 193.33 299.52 183.05 299.52 183.05 305.04"/><rect class="cls-14" x="212.01" y="291.68" width="19.51" height="5.58"/><rect class="cls-14" x="193.33" y="291.68" width="18.68" height="5.58"/><rect class="cls-14" x="193.12" y="291.68" width="0.21" height="5.58"/><polygon class="cls-14" points="193.46 299.29 193.46 304.87 197.45 304.87 202.47 304.87 202.47 299.52 202.47 304.87 207.24 304.87 212.01 304.87 212.01 299.29 193.46 299.29"/><rect class="cls-14" x="231.83" y="299.29" width="0.02" height="5.58"/><polygon class="cls-14" points="221.45 304.4 221.45 299.29 212.01 299.29 212.01 304.87 231.83 304.87 231.83 299.29 221.45 299.29 221.45 304.4"/><rect class="cls-14" x="231.98" y="291.68" width="18.42" height="5.58"/><rect class="cls-14" x="250.41" y="291.68" width="19.97" height="5.58"/><polygon class="cls-14" points="250.41 299.52 241.65 299.52 241.65 305.1 245.64 305.1 245.64 304.87 245.64 305.1 250.41 305.1 250.41 304.87 250.41 299.52"/><polygon class="cls-14" points="259.84 299.52 250.41 299.52 250.41 304.87 250.41 305.1 255.13 305.1 255.13 305.04 255.13 305.1 259.84 305.1 259.84 305.04 259.84 299.52"/><polygon class="cls-14" points="259.84 299.52 259.84 305.04 259.84 305.1 264.84 305.1 264.84 305.04 264.84 305.1 270.38 305.1 270.38 299.52 259.84 299.52"/><polygon class="cls-14" points="231.98 299.52 231.98 305.1 235.84 305.1 235.84 304.87 235.84 305.1 240.87 305.1 240.87 304.87 240.87 305.1 241.65 305.1 241.65 299.52 231.98 299.52"/><rect class="cls-14" x="288.8" y="291.68" width="19.93" height="5.58"/><rect class="cls-14" x="270.38" y="291.68" width="18.42" height="5.58"/><polygon class="cls-14" points="298.24 299.52 298.24 305.04 298.24 305.1 303.24 305.1 303.24 305.04 303.24 305.1 308.73 305.1 308.73 299.52 298.24 299.52"/><polygon class="cls-14" points="298.24 299.52 288.8 299.52 288.8 304.87 288.8 305.1 293.52 305.1 293.52 305.04 293.52 305.1 298.24 305.1 298.24 305.04 298.24 299.52"/><polygon class="cls-14" points="279.27 299.52 270.38 299.52 270.38 305.1 274.24 305.1 274.24 304.87 274.24 305.1 279.27 305.1 279.27 304.87 279.27 299.52"/><polygon class="cls-14" points="288.8 299.52 279.27 299.52 279.27 304.87 279.27 305.1 284.04 305.1 284.04 304.87 284.04 305.1 288.8 305.1 288.8 304.87 288.8 299.52"/><polygon class="cls-14" points="89.46 176.62 89.46 193.36 89.46 176.62 61.17 176.62 61.17 224.39 77.73 224.39 121.52 224.39 121.52 176.62 89.46 176.62"/><rect class="cls-14" x="61.17" y="142.71" width="60.35" height="24.04"/><polygon class="cls-14" points="121.52 176.62 121.52 166.75 61.17 166.75 61.17 176.62 89.46 176.62 121.52 176.62"/><polygon class="cls-14" points="181.87 224.39 181.87 176.62 149.81 176.62 149.81 193.36 149.81 176.62 121.52 176.62 121.52 224.39 154.63 224.39 154.93 224.39 181.87 224.39"/><rect class="cls-14" x="121.52" y="142.71" width="60.35" height="24.04"/><polygon class="cls-14" points="149.81 176.62 181.87 176.62 181.87 166.75 121.52 166.75 121.52 176.62 149.81 176.62"/><polygon class="cls-14" points="210.16 176.62 210.16 193.36 210.16 176.62 181.87 176.62 181.87 224.39 231.83 224.39 242.22 224.39 242.22 176.62 210.16 176.62"/><rect class="cls-14" x="181.87" y="142.71" width="60.35" height="24.04"/><polygon class="cls-14" points="210.16 176.62 242.22 176.62 242.22 166.75 181.87 166.75 181.87 176.62 210.16 176.62"/><polygon class="cls-14" points="270.5 193.36 270.5 176.62 242.22 176.62 242.22 224.39 302.56 224.39 302.56 176.62 270.5 176.62 270.5 193.36"/><rect class="cls-14" x="242.22" y="142.71" width="60.35" height="24.04"/><polygon class="cls-14" points="270.5 176.62 302.56 176.62 302.56 166.75 242.22 166.75 242.22 176.62 270.5 176.62"/><polygon class="cls-14" points="330.85 176.62 330.85 193.36 330.85 176.62 302.56 176.62 302.56 224.39 308.73 224.39 362.91 224.39 362.91 176.62 330.85 176.62"/><rect class="cls-14" x="302.56" y="142.71" width="60.35" height="24.04"/><polygon class="cls-14" points="330.85 176.62 362.91 176.62 362.91 166.75 302.56 166.75 302.56 176.62 330.85 176.62"/><polygon class="cls-14" points="391.2 193.36 391.2 176.62 362.91 176.62 362.91 224.39 385.63 224.39 423.26 224.39 423.26 176.62 391.2 176.62 391.2 193.36"/><rect class="cls-14" x="362.91" y="142.71" width="60.35" height="24.04"/><polygon class="cls-14" points="362.91 166.75 362.91 176.62 391.2 176.62 423.26 176.62 423.26 166.75 362.91 166.75"/><polygon class="cls-14" points="483.61 176.62 451.55 176.62 451.55 193.36 451.55 176.62 423.26 176.62 423.26 224.39 462.53 224.39 462.84 224.39 483.61 224.39 483.61 176.62"/><rect class="cls-14" x="423.26" y="142.71" width="60.35" height="24.04"/><polygon class="cls-14" points="423.26 166.75 423.26 176.62 451.55 176.62 483.61 176.62 483.61 166.75 423.26 166.75"/><polygon class="cls-14" points="511.89 176.62 511.89 193.36 511.89 176.62 483.61 176.62 483.61 224.39 539.74 224.39 543.95 224.39 543.95 176.62 511.89 176.62"/><rect class="cls-14" x="483.61" y="142.71" width="60.35" height="24.04"/><polygon class="cls-14" points="543.95 176.62 543.95 166.75 483.61 166.75 483.61 176.62 511.89 176.62 543.95 176.62"/><polygon class="cls-14" points="572.24 176.62 572.24 193.36 572.24 176.62 543.95 176.62 543.95 224.39 604.3 224.39 604.3 176.62 572.24 176.62"/><rect class="cls-14" x="543.95" y="142.71" width="60.35" height="24.04"/><polygon class="cls-14" points="572.24 176.62 604.3 176.62 604.3 166.75 543.95 166.75 543.95 176.62 572.24 176.62"/><rect class="cls-14" x="604.3" y="176.62" width="9.38" height="47.77"/><rect class="cls-14" x="604.3" y="142.71" width="9.38" height="24.04"/><rect class="cls-14" x="604.3" y="166.74" width="9.38" height="9.88"/><polygon class="cls-14" points="385.79 299.52 385.79 297.26 385.63 297.26 385.63 321.31 385.79 321.31 385.79 305.1 385.79 299.52"/><rect class="cls-14" x="361.56" y="305.1" width="4.77" height="16.21"/><polygon class="cls-14" points="385.53 297.26 366.33 297.26 347.13 297.26 347.13 299.52 356.79 299.52 366.33 299.52 366.33 299.29 366.33 299.52 375.76 299.52 385.53 299.52 385.53 305.1 380.76 305.1 380.76 321.31 385.63 321.31 385.63 297.26 385.53 297.26"/><rect class="cls-14" x="356.79" y="305.1" width="4.77" height="16.21"/><rect class="cls-14" x="438.35" y="305.1" width="4.77" height="16.21"/><rect class="cls-14" x="366.33" y="305.1" width="4.72" height="16.21"/><rect class="cls-14" x="351.77" y="305.1" width="5.03" height="16.21"/><polygon class="cls-14" points="366.33 291.68 385.53 291.68 385.63 291.68 385.63 277.73 347.13 277.73 347.13 291.68 366.33 291.68"/><rect class="cls-14" x="385.63" y="277.73" width="0.15" height="13.95"/><rect class="cls-14" x="375.76" y="305.1" width="5" height="16.21"/><rect class="cls-14" x="347.13" y="305.1" width="4.64" height="16.21"/><rect class="cls-14" x="371.05" y="305.1" width="4.72" height="16.21"/><rect class="cls-14" x="443.12" y="305.1" width="4.72" height="16.21"/><polygon class="cls-14" points="424.18 291.68 443.12 291.68 462.32 291.68 462.32 297.26 443.12 297.26 424.18 297.26 424.18 299.52 433.58 299.52 443.12 299.52 443.12 299.29 443.12 299.52 452.56 299.52 462.53 299.52 462.53 277.73 424.18 277.73 424.18 291.68"/><rect class="cls-14" x="424.18" y="305.1" width="4.38" height="16.21"/><rect class="cls-14" x="457.55" y="305.1" width="4.98" height="16.21"/><rect class="cls-14" x="447.84" y="305.1" width="4.72" height="16.21"/><rect class="cls-14" x="428.56" y="305.1" width="5.03" height="16.21"/><rect class="cls-14" x="433.59" y="305.1" width="4.77" height="16.21"/><rect class="cls-14" x="452.56" y="305.1" width="5" height="16.21"/><polygon class="cls-14" points="385.63 224.39 362.91 224.39 308.73 224.39 308.73 277.73 347.13 277.73 385.63 277.73 385.63 261 385.63 277.73 385.79 277.73 424.18 277.73 462.53 277.73 462.53 224.39 423.26 224.39 385.63 224.39"/><rect class="cls-14" x="342.36" y="305.1" width="4.76" height="16.21"/><polygon class="cls-14" points="308.78 297.26 308.73 297.26 308.73 299.52 308.78 299.52 318.39 299.52 327.93 299.52 327.93 299.29 327.93 299.52 337.37 299.52 347.13 299.52 347.13 297.26 327.93 297.26 308.78 297.26"/><rect class="cls-14" x="337.37" y="305.1" width="5" height="16.21"/><polygon class="cls-14" points="308.78 291.68 327.93 291.68 347.13 291.68 347.13 277.73 308.73 277.73 308.73 291.68 308.78 291.68"/><rect class="cls-14" x="323.16" y="305.1" width="4.77" height="16.21"/><rect class="cls-14" x="313.37" y="305.1" width="5.03" height="16.21"/><polygon class="cls-14" points="308.78 305.1 308.73 305.1 308.73 321.31 313.37 321.31 313.37 305.1 308.78 305.1"/><rect class="cls-14" x="327.93" y="305.1" width="4.72" height="16.21"/><rect class="cls-14" x="332.65" y="305.1" width="4.72" height="16.21"/><rect class="cls-14" x="318.39" y="305.1" width="4.77" height="16.21"/><rect class="cls-14" x="399.96" y="305.1" width="4.77" height="16.21"/><rect class="cls-14" x="414.16" y="305.1" width="5" height="16.21"/><rect class="cls-14" x="419.16" y="305.1" width="5.02" height="16.21"/><rect class="cls-14" x="409.44" y="305.1" width="4.72" height="16.21"/><polygon class="cls-14" points="404.73 297.26 385.79 297.26 385.79 299.52 395.19 299.52 404.73 299.52 404.73 299.29 404.73 299.52 414.16 299.52 424.18 299.52 424.18 297.26 423.92 297.26 404.73 297.26"/><rect class="cls-14" x="404.72" y="305.1" width="4.72" height="16.21"/><polygon class="cls-14" points="404.73 291.68 423.92 291.68 424.18 291.68 424.18 277.73 385.79 277.73 385.79 291.68 404.73 291.68"/><rect class="cls-14" x="395.19" y="305.1" width="4.77" height="16.21"/><rect class="cls-14" x="390.16" y="305.1" width="5.03" height="16.21"/><rect class="cls-14" x="385.78" y="305.1" width="4.38" height="16.21"/><rect class="cls-14" x="606.14" y="305.1" width="5" height="16.21"/><rect class="cls-14" x="601.43" y="305.1" width="4.72" height="16.21"/><rect class="cls-14" x="596.71" y="305.1" width="4.72" height="16.21"/><rect class="cls-14" x="524.63" y="305.1" width="4.72" height="16.21"/><rect class="cls-14" x="611.14" y="305.1" width="2.54" height="16.21"/><rect class="cls-14" x="529.35" y="305.1" width="5" height="16.21"/><rect class="cls-14" x="519.92" y="305.1" width="4.72" height="16.21"/><rect class="cls-14" x="534.35" y="305.1" width="5.39" height="16.21"/><polygon class="cls-14" points="578.29 297.26 578.29 299.52 587.17 299.52 596.71 299.52 596.71 299.29 596.71 299.52 606.14 299.52 613.68 299.52 613.68 297.26 596.71 297.26 578.29 297.26"/><rect class="cls-14" x="515.15" y="305.1" width="4.77" height="16.21"/><rect class="cls-14" x="505.35" y="305.1" width="5.03" height="16.21"/><polygon class="cls-14" points="596.71 291.68 613.68 291.68 613.68 277.73 578.29 277.73 578.29 291.68 596.71 291.68"/><polygon class="cls-14" points="501.36 305.1 501.36 299.52 510.38 299.52 519.91 299.52 519.91 299.29 519.91 299.52 529.35 299.52 539.74 299.52 539.74 297.26 519.91 297.26 501.36 297.26 501.36 291.68 519.91 291.68 539.74 291.68 539.74 277.73 501.23 277.73 501.23 291.68 501.23 297.26 501.23 299.52 501.23 305.1 501.23 321.31 505.35 321.31 505.35 305.1 501.36 305.1"/><rect class="cls-14" x="510.38" y="305.1" width="4.77" height="16.21"/><polygon class="cls-14" points="539.89 299.52 539.89 297.26 539.89 291.68 539.89 277.73 539.74 277.73 539.74 291.68 539.76 291.68 539.76 297.26 539.74 297.26 539.74 299.52 539.76 299.52 539.76 305.1 539.74 305.1 539.74 321.31 539.89 321.31 539.89 305.1 539.89 299.52"/><rect class="cls-14" x="591.94" y="305.1" width="4.77" height="16.21"/><rect class="cls-14" x="582.15" y="305.1" width="5.03" height="16.21"/><rect class="cls-14" x="587.17" y="305.1" width="4.77" height="16.21"/><rect class="cls-14" x="578.29" y="305.1" width="3.86" height="16.21"/><path class="cls-14" d="M539.74,277.73h73.94V224.39H462.84v53.34h76.9Zm.15-23.86v0Z"/><rect class="cls-14" x="466.96" y="305.1" width="5.03" height="16.21"/><rect class="cls-14" x="476.75" y="305.1" width="4.77" height="16.21"/><rect class="cls-14" x="462.84" y="305.1" width="4.12" height="16.21"/><rect class="cls-14" x="490.95" y="305.1" width="5" height="16.21"/><rect class="cls-14" x="495.95" y="305.1" width="5.28" height="16.21"/><polygon class="cls-14" points="481.52 299.52 481.52 299.29 481.52 299.52 490.95 299.52 501.23 299.52 501.23 297.26 481.52 297.26 462.84 297.26 462.84 299.52 471.98 299.52 481.52 299.52"/><rect class="cls-14" x="481.52" y="305.1" width="4.72" height="16.21"/><rect class="cls-14" x="486.24" y="305.1" width="4.72" height="16.21"/><rect class="cls-14" x="471.98" y="305.1" width="4.77" height="16.21"/><polygon class="cls-14" points="501.23 291.68 501.23 277.73 462.84 277.73 462.84 291.68 481.52 291.68 501.23 291.68"/><rect class="cls-14" x="563.03" y="305.1" width="4.72" height="16.21"/><rect class="cls-14" x="558.31" y="305.1" width="4.72" height="16.21"/><rect class="cls-14" x="567.75" y="305.1" width="5" height="16.21"/><polygon class="cls-14" points="578.29 291.68 578.29 277.73 539.89 277.73 539.89 291.68 558.31 291.68 578.29 291.68"/><rect class="cls-14" x="572.75" y="305.1" width="5.54" height="16.21"/><rect class="cls-14" x="539.89" y="305.1" width="3.86" height="16.21"/><polygon class="cls-14" points="558.31 299.52 558.31 299.29 558.31 299.52 567.75 299.52 578.29 299.52 578.29 297.26 558.31 297.26 539.89 297.26 539.89 299.52 548.78 299.52 558.31 299.52"/><rect class="cls-14" x="543.75" y="305.1" width="5.03" height="16.21"/><rect class="cls-14" x="553.54" y="305.1" width="4.77" height="16.21"/><rect class="cls-14" x="548.78" y="305.1" width="4.77" height="16.21"/><rect class="cls-14" x="308.78" y="291.68" width="19.15" height="5.58"/><rect class="cls-14" x="327.93" y="291.68" width="19.2" height="5.58"/><rect class="cls-14" x="308.73" y="291.68" width="0.05" height="5.58"/><polygon class="cls-14" points="327.93 299.52 318.39 299.52 318.39 304.87 318.39 305.1 323.16 305.1 323.16 304.87 323.16 305.1 327.93 305.1 327.93 304.87 327.93 299.52"/><polygon class="cls-14" points="337.37 305.04 337.37 305.1 342.36 305.1 342.36 305.04 342.36 305.1 347.13 305.1 347.13 299.52 337.37 299.52 337.37 305.04"/><polygon class="cls-14" points="318.39 299.52 308.78 299.52 308.78 305.1 313.37 305.1 313.37 304.87 313.37 305.1 318.39 305.1 318.39 304.87 318.39 299.52"/><polygon class="cls-14" points="337.37 299.52 327.93 299.52 327.93 304.87 327.93 305.1 332.65 305.1 332.65 305.04 332.65 305.1 337.37 305.1 337.37 305.04 337.37 299.52"/><rect class="cls-14" x="308.73" y="299.52" width="0.05" height="5.58"/><rect class="cls-14" x="347.13" y="291.68" width="19.2" height="5.58"/><rect class="cls-14" x="366.33" y="291.68" width="19.2" height="5.58"/><polygon class="cls-14" points="356.79 305.1 361.56 305.1 361.56 304.87 361.56 305.1 366.33 305.1 366.33 304.87 366.33 299.52 356.79 299.52 356.79 304.87 356.79 305.1"/><polygon class="cls-14" points="375.76 305.1 380.76 305.1 380.76 305.04 380.76 305.1 385.53 305.1 385.53 299.52 375.76 299.52 375.76 305.04 375.76 305.1"/><polygon class="cls-14" points="351.76 305.1 351.76 304.87 351.76 305.1 356.79 305.1 356.79 304.87 356.79 299.52 347.13 299.52 347.13 305.1 351.76 305.1"/><polygon class="cls-14" points="366.33 305.1 371.05 305.1 371.05 305.04 371.05 305.1 375.76 305.1 375.76 305.04 375.76 299.52 366.33 299.52 366.33 304.87 366.33 305.1"/><rect class="cls-14" x="385.63" y="291.68" width="0.15" height="5.58"/><rect class="cls-14" x="385.53" y="291.68" width="0.11" height="5.58"/><rect class="cls-14" x="385.78" y="291.68" width="18.94" height="5.58"/><rect class="cls-14" x="404.72" y="291.68" width="19.2" height="5.58"/><polygon class="cls-14" points="414.16 305.04 414.16 305.1 419.16 305.1 419.16 305.04 419.16 305.1 424.18 305.1 424.18 299.52 414.16 299.52 414.16 305.04"/><polygon class="cls-14" points="414.16 299.52 404.73 299.52 404.73 304.87 404.73 305.1 409.44 305.1 409.44 305.04 409.44 305.1 414.16 305.1 414.16 305.04 414.16 299.52"/><polygon class="cls-14" points="404.73 299.52 395.19 299.52 395.19 304.87 395.19 305.1 399.96 305.1 399.96 304.87 399.96 305.1 404.73 305.1 404.73 304.87 404.73 299.52"/><polygon class="cls-14" points="395.19 299.52 385.79 299.52 385.79 305.1 390.16 305.1 390.16 304.87 390.16 305.1 395.19 305.1 395.19 304.87 395.19 299.52"/><rect class="cls-14" x="424.18" y="291.68" width="18.94" height="5.58"/><rect class="cls-14" x="443.12" y="291.68" width="19.2" height="5.58"/><rect class="cls-14" x="423.92" y="291.68" width="0.26" height="5.58"/><rect class="cls-14" x="462.53" y="299.52" width="0.05" height="5.58"/><polygon class="cls-14" points="443.12 305.1 447.84 305.1 447.84 305.04 447.84 305.1 452.56 305.1 452.56 305.04 452.56 299.52 443.12 299.52 443.12 304.87 443.12 305.1"/><polygon class="cls-14" points="433.58 305.1 438.35 305.1 438.35 304.87 438.35 305.1 443.12 305.1 443.12 304.87 443.12 299.52 433.58 299.52 433.58 304.87 433.58 305.1"/><polygon class="cls-14" points="428.56 305.1 428.56 304.87 428.56 305.1 433.58 305.1 433.58 304.87 433.58 299.52 424.18 299.52 424.18 305.1 428.56 305.1"/><polygon class="cls-14" points="452.56 305.04 452.56 305.1 457.56 305.1 457.56 305.04 457.56 305.1 462.53 305.1 462.53 299.52 452.56 299.52 452.56 305.04"/><rect class="cls-14" x="481.52" y="291.68" width="19.72" height="5.58"/><rect class="cls-14" x="462.84" y="291.68" width="18.68" height="5.58"/><polygon class="cls-14" points="490.95 305.04 490.95 305.1 495.95 305.1 495.95 305.04 495.95 305.1 501.23 305.1 501.23 299.52 490.95 299.52 490.95 305.04"/><polygon class="cls-14" points="481.52 299.52 471.98 299.52 471.98 304.87 471.98 305.1 476.75 305.1 476.75 304.87 476.75 305.1 481.52 305.1 481.52 304.87 481.52 299.52"/><polygon class="cls-14" points="490.95 299.52 481.52 299.52 481.52 304.87 481.52 305.1 486.24 305.1 486.24 305.04 486.24 305.1 490.95 305.1 490.95 305.04 490.95 299.52"/><polygon class="cls-14" points="466.96 304.87 466.96 305.1 471.98 305.1 471.98 304.87 471.98 299.52 462.84 299.52 462.84 305.1 466.96 305.1 466.96 304.87"/><rect class="cls-14" x="501.36" y="291.68" width="18.55" height="5.58"/><rect class="cls-14" x="519.92" y="291.68" width="19.82" height="5.58"/><rect class="cls-14" x="539.74" y="291.68" width="0.02" height="5.58"/><polygon class="cls-14" points="529.35 299.52 519.91 299.52 519.91 304.87 519.91 305.1 524.63 305.1 524.63 305.04 524.63 305.1 529.35 305.1 529.35 305.04 529.35 299.52"/><polygon class="cls-14" points="510.38 299.52 501.36 299.52 501.36 305.1 505.35 305.1 505.35 304.87 505.35 305.1 510.38 305.1 510.38 304.87 510.38 299.52"/><rect class="cls-14" x="539.74" y="299.52" width="0.02" height="5.58"/><polygon class="cls-14" points="519.91 299.52 510.38 299.52 510.38 304.87 510.38 305.1 515.15 305.1 515.15 304.87 515.15 305.1 519.91 305.1 519.91 304.87 519.91 299.52"/><polygon class="cls-14" points="529.35 305.04 529.35 305.1 534.35 305.1 534.35 305.04 534.35 305.1 539.74 305.1 539.74 299.52 529.35 299.52 529.35 305.04"/><rect class="cls-14" x="558.31" y="291.68" width="19.97" height="5.58"/><rect class="cls-14" x="539.89" y="291.68" width="18.42" height="5.58"/><polygon class="cls-14" points="548.78 299.52 539.89 299.52 539.89 305.1 543.75 305.1 543.75 304.87 543.75 305.1 548.78 305.1 548.78 304.87 548.78 299.52"/><polygon class="cls-14" points="558.31 299.52 548.78 299.52 548.78 304.87 548.78 305.1 553.54 305.1 553.54 304.87 553.54 305.1 558.31 305.1 558.31 304.87 558.31 299.52"/><polygon class="cls-14" points="567.75 299.52 567.75 305.04 567.75 305.1 572.75 305.1 572.75 305.04 572.75 305.1 578.29 305.1 578.29 299.52 567.75 299.52"/><polygon class="cls-14" points="567.75 299.52 558.31 299.52 558.31 304.87 558.31 305.1 563.03 305.1 563.03 305.04 563.03 305.1 567.75 305.1 567.75 305.04 567.75 299.52"/><rect class="cls-14" x="578.29" y="291.68" width="18.42" height="5.58"/><rect class="cls-14" x="596.71" y="291.68" width="16.97" height="5.58"/><polygon class="cls-14" points="606.14 299.52 596.71 299.52 596.71 304.87 596.71 305.1 601.43 305.1 601.43 305.04 601.43 305.1 606.14 305.1 606.14 305.04 606.14 299.52"/><polygon class="cls-14" points="606.14 299.52 606.14 305.04 606.14 305.1 611.14 305.1 611.14 305.04 611.14 305.1 613.68 305.1 613.68 299.52 606.14 299.52"/><polygon class="cls-14" points="587.17 299.52 578.29 299.52 578.29 305.1 582.15 305.1 582.15 304.87 582.15 305.1 587.17 305.1 587.17 304.87 587.17 299.52"/><polygon class="cls-14" points="596.71 299.52 587.17 299.52 587.17 304.87 587.17 305.1 591.94 305.1 591.94 304.87 591.94 305.1 596.71 305.1 596.71 304.87 596.71 299.52"/><line class="cls-15" x1="322.51" y1="338.95" x2="322.51" y2="328.28"/><line class="cls-15" x1="425.59" y1="338.95" x2="425.59" y2="328.36"/><line class="cls-15" x1="213.44" y1="338.95" x2="213.44" y2="327.14"/><line class="cls-15" x1="98.06" y1="338.95" x2="98.06" y2="327.14"/><line class="cls-15" x1="521.6" y1="338.96" x2="521.6" y2="328.29"/><rect class="cls-8" width="615.47" height="615.47"/></g></g></svg>