<svg xmlns="http://www.w3.org/2000/svg" viewBox="0 0 482.17 483.41"><defs><style>.cls-1,.cls-10,.cls-11,.cls-12,.cls-13,.cls-14,.cls-15,.cls-2,.cls-6,.cls-8,.cls-9{fill:none;}.cls-1,.cls-10,.cls-11,.cls-12,.cls-13,.cls-14,.cls-2{stroke:#666;}.cls-1,.cls-10,.cls-2{stroke-linecap:round;}.cls-1,.cls-10,.cls-11,.cls-12,.cls-13,.cls-14,.cls-2,.cls-6,.cls-7,.cls-8,.cls-9{stroke-miterlimit:10;}.cls-12,.cls-2{stroke-width:2px;}.cls-3{fill:#205077;}.cls-4{fill:#fffb6e;}.cls-5,.cls-7{fill:#fff;}.cls-6,.cls-7,.cls-8{stroke:#000;}.cls-6{stroke-width:7.52px;}.cls-7{stroke-width:1.74px;}.cls-8{stroke-width:6px;}.cls-9{stroke:#4d4d4d;stroke-width:5px;}.cls-10,.cls-11{stroke-width:3px;}.cls-14{stroke-width:0.75px;}</style></defs><title>The nut</title><g id="Layer_2" data-name="Layer 2"><g id="Layer_1-2" data-name="Layer 1"><line class="cls-1" x1="282.98" y1="2.21" x2="287.68" y2="2.99"/><line class="cls-1" x1="282.77" y1="3.44" x2="287.47" y2="4.23"/><line class="cls-1" x1="282.57" y1="4.68" x2="287.26" y2="5.46"/><line class="cls-1" x1="282.36" y1="5.91" x2="287.06" y2="6.7"/><line class="cls-1" x1="282.15" y1="7.15" x2="286.85" y2="7.93"/><line class="cls-1" x1="281.95" y1="8.38" x2="286.65" y2="9.17"/><line class="cls-1" x1="281.74" y1="9.62" x2="286.44" y2="10.4"/><line class="cls-1" x1="281.53" y1="10.85" x2="286.23" y2="11.64"/><line class="cls-1" x1="281.33" y1="12.08" x2="286.03" y2="12.87"/><line class="cls-1" x1="281.12" y1="13.32" x2="285.82" y2="14.11"/><line class="cls-1" x1="280.91" y1="14.55" x2="285.61" y2="15.34"/><line class="cls-1" x1="280.71" y1="15.79" x2="285.41" y2="16.57"/><line class="cls-1" x1="280.5" y1="17.02" x2="285.2" y2="17.81"/><line class="cls-1" x1="280.29" y1="18.26" x2="284.99" y2="19.04"/><line class="cls-1" x1="280.09" y1="19.49" x2="284.79" y2="20.28"/><line class="cls-1" x1="279.88" y1="20.73" x2="284.58" y2="21.51"/><line class="cls-1" x1="279.67" y1="21.96" x2="284.37" y2="22.75"/><line class="cls-1" x1="279.47" y1="23.2" x2="284.17" y2="23.98"/><line class="cls-1" x1="279.26" y1="24.43" x2="283.96" y2="25.22"/><line class="cls-1" x1="279.05" y1="25.67" x2="283.75" y2="26.45"/><line class="cls-1" x1="278.85" y1="26.9" x2="283.55" y2="27.69"/><line class="cls-1" x1="278.64" y1="28.14" x2="283.34" y2="28.92"/><line class="cls-1" x1="278.44" y1="29.37" x2="283.13" y2="30.16"/><line class="cls-1" x1="278.23" y1="30.6" x2="282.93" y2="31.39"/><line class="cls-1" x1="278.02" y1="31.84" x2="282.72" y2="32.63"/><line class="cls-1" x1="277.82" y1="33.07" x2="282.52" y2="33.86"/><line class="cls-1" x1="277.61" y1="34.31" x2="282.31" y2="35.09"/><line class="cls-1" x1="277.4" y1="35.54" x2="282.1" y2="36.33"/><line class="cls-1" x1="277.2" y1="36.78" x2="281.9" y2="37.56"/><line class="cls-1" x1="276.99" y1="38.01" x2="281.69" y2="38.8"/><line class="cls-1" x1="185.54" y1="2.82" x2="190.25" y2="2.08"/><line class="cls-1" x1="185.74" y1="4.06" x2="190.45" y2="3.32"/><line class="cls-1" x1="185.93" y1="5.29" x2="190.64" y2="4.56"/><line class="cls-1" x1="186.13" y1="6.53" x2="190.83" y2="5.79"/><line class="cls-1" x1="186.32" y1="7.77" x2="191.03" y2="7.03"/><line class="cls-1" x1="186.51" y1="9" x2="191.22" y2="8.27"/><line class="cls-1" x1="186.71" y1="10.24" x2="191.41" y2="9.5"/><line class="cls-1" x1="186.9" y1="11.48" x2="191.61" y2="10.74"/><line class="cls-1" x1="187.09" y1="12.71" x2="191.8" y2="11.98"/><line class="cls-1" x1="187.29" y1="13.95" x2="191.99" y2="13.21"/><line class="cls-1" x1="187.48" y1="15.19" x2="192.19" y2="14.45"/><line class="cls-1" x1="187.67" y1="16.42" x2="192.38" y2="15.69"/><line class="cls-1" x1="187.87" y1="17.66" x2="192.58" y2="16.92"/><line class="cls-1" x1="188.06" y1="18.9" x2="192.77" y2="18.16"/><line class="cls-1" x1="188.25" y1="20.13" x2="192.96" y2="19.4"/><line class="cls-1" x1="188.45" y1="21.37" x2="193.16" y2="20.63"/><line class="cls-1" x1="188.64" y1="22.61" x2="193.35" y2="21.87"/><line class="cls-1" x1="188.84" y1="23.84" x2="193.54" y2="23.11"/><line class="cls-1" x1="189.03" y1="25.08" x2="193.74" y2="24.34"/><line class="cls-1" x1="189.22" y1="26.32" x2="193.93" y2="25.58"/><line class="cls-1" x1="189.42" y1="27.55" x2="194.12" y2="26.82"/><line class="cls-1" x1="189.61" y1="28.79" x2="194.32" y2="28.05"/><line class="cls-1" x1="189.8" y1="30.03" x2="194.51" y2="29.29"/><line class="cls-1" x1="190" y1="31.26" x2="194.7" y2="30.53"/><line class="cls-1" x1="190.19" y1="32.5" x2="194.9" y2="31.76"/><line class="cls-1" x1="190.38" y1="33.74" x2="195.09" y2="33"/><line class="cls-1" x1="190.58" y1="34.97" x2="195.29" y2="34.24"/><line class="cls-1" x1="190.77" y1="36.21" x2="195.48" y2="35.47"/><line class="cls-1" x1="190.96" y1="37.45" x2="195.67" y2="36.71"/><line class="cls-1" x1="191.16" y1="38.68" x2="195.87" y2="37.95"/><line class="cls-2" x1="149.8" y1="3.94" x2="154.51" y2="3.22"/><line class="cls-2" x1="150.14" y1="6.16" x2="154.85" y2="5.43"/><line class="cls-2" x1="150.48" y1="8.37" x2="155.19" y2="7.65"/><line class="cls-2" x1="150.82" y1="10.58" x2="155.53" y2="9.86"/><line class="cls-2" x1="151.16" y1="12.8" x2="155.87" y2="12.07"/><line class="cls-2" x1="151.5" y1="15.01" x2="156.21" y2="14.29"/><line class="cls-2" x1="151.85" y1="17.23" x2="156.55" y2="16.5"/><line class="cls-2" x1="152.19" y1="19.44" x2="156.9" y2="18.71"/><line class="cls-2" x1="152.53" y1="21.65" x2="157.24" y2="20.93"/><line class="cls-2" x1="152.87" y1="23.87" x2="157.58" y2="23.14"/><line class="cls-2" x1="153.21" y1="26.08" x2="157.92" y2="25.35"/><line class="cls-2" x1="153.55" y1="28.29" x2="158.26" y2="27.57"/><line class="cls-2" x1="153.89" y1="30.51" x2="158.6" y2="29.78"/><line class="cls-2" x1="154.23" y1="32.72" x2="158.94" y2="32"/><line class="cls-2" x1="154.58" y1="34.93" x2="159.28" y2="34.21"/><line class="cls-2" x1="154.92" y1="37.15" x2="159.63" y2="36.42"/><path class="cls-3" d="M401,2c-23.64,39.94-48.93,96.38-55.83,196.38H129.75C122.85,98.36,97.56,41.92,73.92,2"/><path class="cls-4" d="M354.55,208.42H120.36l-.64-9.37C112.8,98.79,85.53,38.68,63.81,2H84.08c22.16,37.44,46.86,87.72,55,186.32H335.83C344,89.7,367.19,39.42,389.35,2h20.3c-21.72,36.7-47.54,96.81-54.46,197.07Z"/><path class="cls-5" d="M292.92,2c-.27-.48-.42-.71-.69-1.19l-54.84,0h0C221.1.82,183.1,0,183.1,0,171.68,20.16,163.27,39.12,162,46.5c-2.95,17.7,46.63,135.16,46.63,135.16h32.46"/><path class="cls-5" d="M233.78,181.66h32.46S315.82,64.2,312.87,46.5c-1.19-7.14-9.1-25.11-19.95-44.52"/><path class="cls-5" d="M294.94,2c10.24,18.44,18.38,36.48,19.67,44.23s-6.22,32.93-22.3,75.14c-11.9,31.24-24.32,60.7-24.44,61l-.46,1.08H207.5l-.46-1.08c-.13-.3-12.55-29.76-24.45-61C166.52,79.14,159,53.86,160.3,46.21S169.73,20.42,180,2M184,2c-10.94,19.38-19,37.47-20.24,44.81-.66,4,1.34,18.74,22.11,73.29,10.59,27.81,21.6,54.21,23.95,59.81h55.21c2.35-5.6,13.35-32,23.95-59.81,20.77-54.55,22.77-69.34,22.11-73.29"/><path d="M188.94,61.41a9.59,9.59,0,1,1,9.59-9.59A9.6,9.6,0,0,1,188.94,61.41Zm0-18a8.39,8.39,0,1,0,8.39,8.39A8.4,8.4,0,0,0,188.94,43.43Z"/><rect x="188.04" y="45.86" width="1.8" height="11.92" transform="translate(28.65 164.48) rotate(-50.44)"/><path d="M288.31,61.41a10,10,0,0,1-2-.21,9.62,9.62,0,1,1,2,.21Zm0-18a8.4,8.4,0,1,0,4.58,15.44h0a8.39,8.39,0,0,0-2.81-15.25A8.88,8.88,0,0,0,288.28,43.42Z"/><rect x="282.33" y="50.92" width="11.92" height="1.8" transform="translate(203.61 332.23) rotate(-83.38)"/><path class="cls-6" d="M352.79,483c-1.18-61.8-3.56-202.82-4.74-264.62H126c-1.18,61.8-3.38,202.82-4.56,264.62"/><path class="cls-7" d="M111.84,187.2H361.64a8.41,8.41,0,0,1,8.41,8.41v23.24a0,0,0,0,1,0,0H104.86a0,0,0,0,1,0,0V194.18A7,7,0,0,1,111.84,187.2Z"/><path class="cls-7" d="M106.18,217.53H368.72V195.61a7.1,7.1,0,0,0-7.08-7.09H111.84a5.67,5.67,0,0,0-5.66,5.66Z"/><rect x="140.18" y="187.2" width="9.14" height="31.65"/><line class="cls-5" x1="180.98" y1="187.2" x2="180.98" y2="218.85"/><rect x="177.32" y="187.2" width="7.32" height="31.65"/><line class="cls-5" x1="329.86" y1="187.2" x2="329.86" y2="218.85"/><rect x="328.95" y="187.2" width="1.83" height="31.65"/><line class="cls-5" x1="292.56" y1="187.2" x2="292.56" y2="218.85"/><rect x="291.19" y="187.2" width="2.74" height="31.65"/><line class="cls-5" x1="255.26" y1="187.2" x2="255.26" y2="218.85"/><rect x="253.43" y="187.2" width="3.66" height="31.65"/><line class="cls-5" x1="217.2" y1="187.2" x2="217.2" y2="218.85"/><rect x="214.45" y="187.2" width="5.49" height="31.65"/><line class="cls-8" x1="122.7" y1="387.35" x2="352.79" y2="387.35"/><line class="cls-9" x1="144.26" y1="482.99" x2="144.41" y2="187.72"/><line class="cls-10" x1="141.24" y1="191.22" x2="147.35" y2="191.22"/><line class="cls-2" x1="178.1" y1="188.78" x2="182.86" y2="188.78"/><line class="cls-1" x1="214.78" y1="188.52" x2="219.55" y2="188.52"/><line class="cls-1" x1="214.78" y1="189.77" x2="219.55" y2="189.77"/><line class="cls-1" x1="214.78" y1="191.02" x2="219.55" y2="191.02"/><line class="cls-1" x1="214.78" y1="192.27" x2="219.55" y2="192.27"/><line class="cls-1" x1="214.78" y1="193.53" x2="219.55" y2="193.53"/><line class="cls-1" x1="214.78" y1="194.78" x2="219.55" y2="194.78"/><line class="cls-1" x1="214.78" y1="196.03" x2="219.55" y2="196.03"/><line class="cls-1" x1="214.78" y1="197.28" x2="219.55" y2="197.28"/><line class="cls-1" x1="214.78" y1="198.53" x2="219.55" y2="198.53"/><line class="cls-1" x1="214.78" y1="199.78" x2="219.55" y2="199.78"/><line class="cls-1" x1="214.78" y1="201.04" x2="219.55" y2="201.04"/><line class="cls-1" x1="214.78" y1="202.29" x2="219.55" y2="202.29"/><line class="cls-1" x1="214.78" y1="203.54" x2="219.55" y2="203.54"/><line class="cls-1" x1="214.78" y1="204.79" x2="219.55" y2="204.79"/><line class="cls-1" x1="214.78" y1="206.04" x2="219.55" y2="206.04"/><line class="cls-1" x1="214.78" y1="207.29" x2="219.55" y2="207.29"/><line class="cls-1" x1="214.78" y1="208.55" x2="219.55" y2="208.55"/><line class="cls-1" x1="214.78" y1="209.8" x2="219.55" y2="209.8"/><line class="cls-1" x1="214.78" y1="211.05" x2="219.55" y2="211.05"/><line class="cls-1" x1="214.78" y1="212.3" x2="219.55" y2="212.3"/><line class="cls-1" x1="214.78" y1="213.55" x2="219.55" y2="213.55"/><line class="cls-1" x1="214.78" y1="214.81" x2="219.55" y2="214.81"/><line class="cls-1" x1="214.78" y1="216.06" x2="219.55" y2="216.06"/><line class="cls-1" x1="214.78" y1="217.31" x2="219.55" y2="217.31"/><line class="cls-1" x1="214.78" y1="218.56" x2="219.55" y2="218.56"/><line class="cls-1" x1="214.78" y1="219.81" x2="219.55" y2="219.81"/><line class="cls-1" x1="214.78" y1="221.06" x2="219.55" y2="221.06"/><line class="cls-1" x1="214.78" y1="222.32" x2="219.55" y2="222.32"/><line class="cls-1" x1="214.78" y1="223.57" x2="219.55" y2="223.57"/><line class="cls-1" x1="214.78" y1="224.82" x2="219.55" y2="224.82"/><line class="cls-1" x1="214.78" y1="226.07" x2="219.55" y2="226.07"/><line class="cls-1" x1="214.78" y1="227.32" x2="219.55" y2="227.32"/><line class="cls-1" x1="214.78" y1="228.58" x2="219.55" y2="228.58"/><line class="cls-1" x1="214.78" y1="229.83" x2="219.55" y2="229.83"/><line class="cls-1" x1="214.78" y1="231.08" x2="219.55" y2="231.08"/><line class="cls-1" x1="214.78" y1="232.33" x2="219.55" y2="232.33"/><line class="cls-1" x1="214.78" y1="233.58" x2="219.55" y2="233.58"/><line class="cls-1" x1="214.78" y1="234.83" x2="219.55" y2="234.83"/><line class="cls-1" x1="214.78" y1="236.09" x2="219.55" y2="236.09"/><line class="cls-1" x1="214.78" y1="237.34" x2="219.55" y2="237.34"/><line class="cls-1" x1="214.78" y1="238.59" x2="219.55" y2="238.59"/><line class="cls-1" x1="214.78" y1="239.84" x2="219.55" y2="239.84"/><line class="cls-1" x1="214.78" y1="241.09" x2="219.55" y2="241.09"/><line class="cls-1" x1="214.78" y1="242.35" x2="219.55" y2="242.35"/><line class="cls-1" x1="214.78" y1="243.6" x2="219.55" y2="243.6"/><line class="cls-1" x1="214.78" y1="244.85" x2="219.55" y2="244.85"/><line class="cls-1" x1="214.78" y1="246.1" x2="219.55" y2="246.1"/><line class="cls-1" x1="214.78" y1="247.35" x2="219.55" y2="247.35"/><line class="cls-1" x1="214.78" y1="248.6" x2="219.55" y2="248.6"/><line class="cls-1" x1="214.78" y1="249.86" x2="219.55" y2="249.86"/><line class="cls-1" x1="214.78" y1="251.11" x2="219.55" y2="251.11"/><line class="cls-1" x1="214.78" y1="252.36" x2="219.55" y2="252.36"/><line class="cls-1" x1="214.78" y1="253.61" x2="219.55" y2="253.61"/><line class="cls-1" x1="214.78" y1="254.86" x2="219.55" y2="254.86"/><line class="cls-1" x1="214.78" y1="256.12" x2="219.55" y2="256.12"/><line class="cls-1" x1="214.78" y1="257.37" x2="219.55" y2="257.37"/><line class="cls-1" x1="214.78" y1="258.62" x2="219.55" y2="258.62"/><line class="cls-1" x1="214.78" y1="259.87" x2="219.55" y2="259.87"/><line class="cls-1" x1="214.78" y1="261.12" x2="219.55" y2="261.12"/><line class="cls-1" x1="214.78" y1="262.37" x2="219.55" y2="262.37"/><line class="cls-1" x1="214.78" y1="263.63" x2="219.55" y2="263.63"/><line class="cls-1" x1="214.78" y1="264.88" x2="219.55" y2="264.88"/><line class="cls-1" x1="214.78" y1="266.13" x2="219.55" y2="266.13"/><line class="cls-1" x1="214.78" y1="267.38" x2="219.55" y2="267.38"/><line class="cls-1" x1="214.78" y1="268.63" x2="219.55" y2="268.63"/><line class="cls-1" x1="214.78" y1="269.89" x2="219.55" y2="269.89"/><line class="cls-1" x1="214.78" y1="271.14" x2="219.55" y2="271.14"/><line class="cls-1" x1="214.78" y1="272.39" x2="219.55" y2="272.39"/><line class="cls-1" x1="214.78" y1="273.64" x2="219.55" y2="273.64"/><line class="cls-1" x1="214.78" y1="274.89" x2="219.55" y2="274.89"/><line class="cls-1" x1="214.78" y1="276.14" x2="219.55" y2="276.14"/><line class="cls-1" x1="214.78" y1="277.4" x2="219.55" y2="277.4"/><line class="cls-1" x1="214.78" y1="278.65" x2="219.55" y2="278.65"/><line class="cls-1" x1="214.78" y1="279.9" x2="219.55" y2="279.9"/><line class="cls-1" x1="214.78" y1="281.15" x2="219.55" y2="281.15"/><line class="cls-1" x1="214.78" y1="282.4" x2="219.55" y2="282.4"/><line class="cls-1" x1="214.78" y1="283.65" x2="219.55" y2="283.65"/><line class="cls-1" x1="214.78" y1="284.91" x2="219.55" y2="284.91"/><line class="cls-1" x1="214.78" y1="286.16" x2="219.55" y2="286.16"/><line class="cls-1" x1="214.78" y1="287.41" x2="219.55" y2="287.41"/><line class="cls-1" x1="214.78" y1="288.66" x2="219.55" y2="288.66"/><line class="cls-1" x1="214.78" y1="289.91" x2="219.55" y2="289.91"/><line class="cls-1" x1="214.78" y1="291.17" x2="219.55" y2="291.17"/><line class="cls-1" x1="214.78" y1="292.42" x2="219.55" y2="292.42"/><line class="cls-1" x1="214.78" y1="293.67" x2="219.55" y2="293.67"/><line class="cls-1" x1="214.78" y1="294.92" x2="219.55" y2="294.92"/><line class="cls-1" x1="214.78" y1="296.17" x2="219.55" y2="296.17"/><line class="cls-1" x1="214.78" y1="297.42" x2="219.55" y2="297.42"/><line class="cls-1" x1="214.78" y1="298.68" x2="219.55" y2="298.68"/><line class="cls-1" x1="214.78" y1="299.93" x2="219.55" y2="299.93"/><line class="cls-1" x1="214.78" y1="301.18" x2="219.55" y2="301.18"/><line class="cls-1" x1="214.78" y1="302.43" x2="219.55" y2="302.43"/><line class="cls-1" x1="214.78" y1="303.68" x2="219.55" y2="303.68"/><line class="cls-1" x1="214.78" y1="304.94" x2="219.55" y2="304.94"/><line class="cls-1" x1="214.78" y1="306.19" x2="219.55" y2="306.19"/><line class="cls-1" x1="214.78" y1="307.44" x2="219.55" y2="307.44"/><line class="cls-1" x1="214.78" y1="308.69" x2="219.55" y2="308.69"/><line class="cls-1" x1="214.78" y1="309.94" x2="219.55" y2="309.94"/><line class="cls-1" x1="214.78" y1="311.19" x2="219.55" y2="311.19"/><line class="cls-1" x1="214.78" y1="312.45" x2="219.55" y2="312.45"/><line class="cls-1" x1="214.78" y1="313.7" x2="219.55" y2="313.7"/><line class="cls-1" x1="214.78" y1="314.95" x2="219.55" y2="314.95"/><line class="cls-1" x1="214.78" y1="316.2" x2="219.55" y2="316.2"/><line class="cls-1" x1="214.78" y1="317.45" x2="219.55" y2="317.45"/><line class="cls-1" x1="214.78" y1="318.71" x2="219.55" y2="318.71"/><line class="cls-1" x1="214.78" y1="319.96" x2="219.55" y2="319.96"/><line class="cls-2" x1="178.1" y1="191.02" x2="182.86" y2="191.02"/><line class="cls-2" x1="178.1" y1="193.26" x2="182.86" y2="193.26"/><line class="cls-2" x1="178.1" y1="195.5" x2="182.86" y2="195.5"/><line class="cls-2" x1="178.1" y1="197.74" x2="182.86" y2="197.74"/><line class="cls-2" x1="178.1" y1="199.98" x2="182.86" y2="199.98"/><line class="cls-2" x1="178.1" y1="202.22" x2="182.86" y2="202.22"/><line class="cls-2" x1="178.1" y1="204.46" x2="182.86" y2="204.46"/><line class="cls-2" x1="178.1" y1="206.7" x2="182.86" y2="206.7"/><line class="cls-2" x1="178.1" y1="208.94" x2="182.86" y2="208.94"/><line class="cls-2" x1="178.1" y1="211.18" x2="182.86" y2="211.18"/><line class="cls-2" x1="178.1" y1="213.42" x2="182.86" y2="213.42"/><line class="cls-2" x1="178.1" y1="215.66" x2="182.86" y2="215.66"/><line class="cls-2" x1="178.1" y1="217.9" x2="182.86" y2="217.9"/><line class="cls-2" x1="178.1" y1="220.14" x2="182.86" y2="220.14"/><line class="cls-2" x1="178.1" y1="222.38" x2="182.86" y2="222.38"/><line class="cls-2" x1="178.1" y1="224.62" x2="182.86" y2="224.62"/><line class="cls-2" x1="178.1" y1="226.86" x2="182.86" y2="226.86"/><line class="cls-2" x1="178.1" y1="229.1" x2="182.86" y2="229.1"/><line class="cls-2" x1="178.1" y1="231.34" x2="182.86" y2="231.34"/><line class="cls-2" x1="178.1" y1="233.58" x2="182.86" y2="233.58"/><line class="cls-2" x1="178.1" y1="235.82" x2="182.86" y2="235.82"/><line class="cls-2" x1="178.1" y1="238.06" x2="182.86" y2="238.06"/><line class="cls-2" x1="178.1" y1="240.3" x2="182.86" y2="240.3"/><line class="cls-2" x1="178.1" y1="242.54" x2="182.86" y2="242.54"/><line class="cls-2" x1="178.1" y1="244.78" x2="182.86" y2="244.78"/><line class="cls-2" x1="178.1" y1="247.02" x2="182.86" y2="247.02"/><line class="cls-2" x1="178.1" y1="249.26" x2="182.86" y2="249.26"/><line class="cls-2" x1="178.1" y1="251.5" x2="182.86" y2="251.5"/><line class="cls-2" x1="178.1" y1="253.74" x2="182.86" y2="253.74"/><line class="cls-2" x1="178.1" y1="255.98" x2="182.86" y2="255.98"/><line class="cls-2" x1="178.1" y1="258.22" x2="182.86" y2="258.22"/><line class="cls-2" x1="178.1" y1="260.46" x2="182.86" y2="260.46"/><line class="cls-2" x1="178.1" y1="262.7" x2="182.86" y2="262.7"/><line class="cls-2" x1="178.1" y1="264.94" x2="182.86" y2="264.94"/><line class="cls-2" x1="178.1" y1="267.18" x2="182.86" y2="267.18"/><line class="cls-2" x1="178.1" y1="269.41" x2="182.86" y2="269.41"/><line class="cls-2" x1="178.1" y1="271.65" x2="182.86" y2="271.65"/><line class="cls-2" x1="178.1" y1="273.89" x2="182.86" y2="273.89"/><line class="cls-2" x1="178.1" y1="276.13" x2="182.86" y2="276.13"/><line class="cls-2" x1="178.1" y1="278.37" x2="182.86" y2="278.37"/><line class="cls-2" x1="178.1" y1="280.61" x2="182.86" y2="280.61"/><line class="cls-2" x1="178.1" y1="282.85" x2="182.86" y2="282.85"/><line class="cls-2" x1="178.1" y1="285.09" x2="182.86" y2="285.09"/><line class="cls-2" x1="178.1" y1="287.33" x2="182.86" y2="287.33"/><line class="cls-2" x1="178.1" y1="289.57" x2="182.86" y2="289.57"/><line class="cls-2" x1="178.1" y1="291.81" x2="182.86" y2="291.81"/><line class="cls-2" x1="178.1" y1="294.05" x2="182.86" y2="294.05"/><line class="cls-2" x1="178.1" y1="296.29" x2="182.86" y2="296.29"/><line class="cls-2" x1="178.1" y1="298.53" x2="182.86" y2="298.53"/><line class="cls-2" x1="178.1" y1="300.77" x2="182.86" y2="300.77"/><line class="cls-2" x1="178.1" y1="303.01" x2="182.86" y2="303.01"/><line class="cls-2" x1="178.1" y1="305.25" x2="182.86" y2="305.25"/><line class="cls-2" x1="178.1" y1="307.49" x2="182.86" y2="307.49"/><line class="cls-2" x1="178.1" y1="309.73" x2="182.86" y2="309.73"/><line class="cls-2" x1="178.1" y1="311.97" x2="182.86" y2="311.97"/><line class="cls-2" x1="178.1" y1="314.21" x2="182.86" y2="314.21"/><line class="cls-2" x1="178.1" y1="316.45" x2="182.86" y2="316.45"/><line class="cls-2" x1="178.1" y1="318.69" x2="182.86" y2="318.69"/><line class="cls-2" x1="178.1" y1="320.93" x2="182.86" y2="320.93"/><line class="cls-2" x1="178.1" y1="323.17" x2="182.86" y2="323.17"/><line class="cls-2" x1="178.1" y1="325.41" x2="182.86" y2="325.41"/><line class="cls-2" x1="178.1" y1="327.65" x2="182.86" y2="327.65"/><line class="cls-2" x1="178.1" y1="329.89" x2="182.86" y2="329.89"/><line class="cls-2" x1="178.1" y1="332.13" x2="182.86" y2="332.13"/><line class="cls-2" x1="178.1" y1="334.37" x2="182.86" y2="334.37"/><line class="cls-2" x1="178.1" y1="336.61" x2="182.86" y2="336.61"/><line class="cls-10" x1="141.24" y1="194.73" x2="147.35" y2="194.73"/><line class="cls-10" x1="141.24" y1="198.23" x2="147.35" y2="198.23"/><line class="cls-10" x1="141.24" y1="201.73" x2="147.35" y2="201.73"/><line class="cls-10" x1="141.24" y1="205.23" x2="147.35" y2="205.23"/><line class="cls-10" x1="141.24" y1="208.73" x2="147.35" y2="208.73"/><line class="cls-10" x1="141.24" y1="212.24" x2="147.35" y2="212.24"/><line class="cls-10" x1="141.24" y1="215.74" x2="147.35" y2="215.74"/><line class="cls-10" x1="141.24" y1="219.24" x2="147.35" y2="219.24"/><line class="cls-10" x1="141.24" y1="222.74" x2="147.35" y2="222.74"/><line class="cls-10" x1="141.24" y1="226.25" x2="147.35" y2="226.25"/><polyline class="cls-11" points="217.4 482.99 216.98 186.99 187.87 2.1"/><polyline class="cls-11" points="180.09 482.99 180.48 186.82 150.75 1.98"/><line class="cls-1" x1="214.78" y1="321.21" x2="219.55" y2="321.21"/><line class="cls-1" x1="214.78" y1="322.46" x2="219.55" y2="322.46"/><line class="cls-1" x1="214.78" y1="323.71" x2="219.55" y2="323.71"/><line class="cls-1" x1="214.78" y1="324.96" x2="219.55" y2="324.96"/><line class="cls-1" x1="214.78" y1="326.22" x2="219.55" y2="326.22"/><line class="cls-1" x1="214.78" y1="327.47" x2="219.55" y2="327.47"/><line class="cls-1" x1="214.78" y1="328.72" x2="219.55" y2="328.72"/><line class="cls-1" x1="214.78" y1="329.97" x2="219.55" y2="329.97"/><line class="cls-1" x1="214.78" y1="331.22" x2="219.55" y2="331.22"/><line class="cls-1" x1="214.78" y1="332.48" x2="219.55" y2="332.48"/><line class="cls-1" x1="214.78" y1="333.73" x2="219.55" y2="333.73"/><line class="cls-1" x1="214.78" y1="334.98" x2="219.55" y2="334.98"/><line class="cls-1" x1="214.78" y1="336.23" x2="219.55" y2="336.23"/><line class="cls-1" x1="214.78" y1="337.48" x2="219.55" y2="337.48"/><line class="cls-1" x1="214.78" y1="338.73" x2="219.55" y2="338.73"/><line class="cls-1" x1="214.78" y1="339.99" x2="219.55" y2="339.99"/><line class="cls-1" x1="214.78" y1="341.24" x2="219.55" y2="341.24"/><line class="cls-1" x1="214.78" y1="342.49" x2="219.55" y2="342.49"/><line class="cls-1" x1="214.78" y1="343.74" x2="219.55" y2="343.74"/><line class="cls-1" x1="214.78" y1="344.99" x2="219.55" y2="344.99"/><line class="cls-1" x1="214.78" y1="346.25" x2="219.55" y2="346.25"/><line class="cls-1" x1="214.78" y1="347.5" x2="219.55" y2="347.5"/><line class="cls-1" x1="214.78" y1="348.75" x2="219.55" y2="348.75"/><line class="cls-1" x1="214.78" y1="350" x2="219.55" y2="350"/><line class="cls-1" x1="214.78" y1="351.25" x2="219.55" y2="351.25"/><line class="cls-1" x1="214.78" y1="352.5" x2="219.55" y2="352.5"/><line class="cls-1" x1="214.78" y1="353.76" x2="219.55" y2="353.76"/><line class="cls-1" x1="214.78" y1="355.01" x2="219.55" y2="355.01"/><line class="cls-1" x1="214.78" y1="356.26" x2="219.55" y2="356.26"/><line class="cls-1" x1="214.78" y1="357.51" x2="219.55" y2="357.51"/><line class="cls-1" x1="214.78" y1="358.76" x2="219.55" y2="358.76"/><line class="cls-1" x1="214.78" y1="360.01" x2="219.55" y2="360.01"/><line class="cls-1" x1="214.78" y1="361.27" x2="219.55" y2="361.27"/><line class="cls-1" x1="214.78" y1="362.52" x2="219.55" y2="362.52"/><line class="cls-1" x1="214.78" y1="363.77" x2="219.55" y2="363.77"/><line class="cls-1" x1="214.78" y1="365.02" x2="219.55" y2="365.02"/><line class="cls-1" x1="214.78" y1="366.27" x2="219.55" y2="366.27"/><line class="cls-1" x1="214.78" y1="367.53" x2="219.55" y2="367.53"/><line class="cls-1" x1="214.78" y1="368.78" x2="219.55" y2="368.78"/><line class="cls-1" x1="214.78" y1="370.03" x2="219.55" y2="370.03"/><line class="cls-1" x1="214.78" y1="371.28" x2="219.55" y2="371.28"/><line class="cls-1" x1="214.78" y1="372.53" x2="219.55" y2="372.53"/><line class="cls-1" x1="214.78" y1="373.78" x2="219.55" y2="373.78"/><line class="cls-1" x1="214.78" y1="375.04" x2="219.55" y2="375.04"/><line class="cls-1" x1="214.78" y1="376.29" x2="219.55" y2="376.29"/><line class="cls-1" x1="214.78" y1="377.54" x2="219.55" y2="377.54"/><line class="cls-1" x1="214.78" y1="378.79" x2="219.55" y2="378.79"/><line class="cls-1" x1="214.78" y1="380.04" x2="219.55" y2="380.04"/><line class="cls-1" x1="214.78" y1="381.3" x2="219.55" y2="381.3"/><line class="cls-1" x1="214.78" y1="382.55" x2="219.55" y2="382.55"/><line class="cls-1" x1="214.78" y1="383.8" x2="219.55" y2="383.8"/><line class="cls-1" x1="214.78" y1="385.05" x2="219.55" y2="385.05"/><line class="cls-1" x1="214.78" y1="386.3" x2="219.55" y2="386.3"/><line class="cls-1" x1="214.78" y1="387.55" x2="219.55" y2="387.55"/><line class="cls-1" x1="214.78" y1="388.81" x2="219.55" y2="388.81"/><line class="cls-1" x1="214.78" y1="390.06" x2="219.55" y2="390.06"/><line class="cls-1" x1="214.78" y1="391.31" x2="219.55" y2="391.31"/><line class="cls-1" x1="214.78" y1="392.56" x2="219.55" y2="392.56"/><line class="cls-1" x1="214.78" y1="393.81" x2="219.55" y2="393.81"/><line class="cls-1" x1="214.78" y1="395.07" x2="219.55" y2="395.07"/><line class="cls-1" x1="214.78" y1="396.32" x2="219.55" y2="396.32"/><line class="cls-1" x1="214.78" y1="397.57" x2="219.55" y2="397.57"/><line class="cls-1" x1="214.78" y1="398.82" x2="219.55" y2="398.82"/><line class="cls-1" x1="214.78" y1="400.07" x2="219.55" y2="400.07"/><line class="cls-1" x1="214.78" y1="401.32" x2="219.55" y2="401.32"/><line class="cls-1" x1="214.78" y1="402.58" x2="219.55" y2="402.58"/><line class="cls-1" x1="214.78" y1="403.83" x2="219.55" y2="403.83"/><line class="cls-1" x1="214.78" y1="405.08" x2="219.55" y2="405.08"/><line class="cls-1" x1="214.78" y1="406.33" x2="219.55" y2="406.33"/><line class="cls-1" x1="214.78" y1="407.58" x2="219.55" y2="407.58"/><line class="cls-1" x1="214.78" y1="408.84" x2="219.55" y2="408.84"/><line class="cls-1" x1="214.78" y1="410.09" x2="219.55" y2="410.09"/><line class="cls-1" x1="214.78" y1="411.34" x2="219.55" y2="411.34"/><line class="cls-1" x1="214.78" y1="412.59" x2="219.55" y2="412.59"/><line class="cls-1" x1="214.78" y1="413.84" x2="219.55" y2="413.84"/><line class="cls-1" x1="214.78" y1="415.09" x2="219.55" y2="415.09"/><line class="cls-1" x1="214.78" y1="416.35" x2="219.55" y2="416.35"/><line class="cls-1" x1="214.78" y1="417.6" x2="219.55" y2="417.6"/><line class="cls-1" x1="214.78" y1="418.85" x2="219.55" y2="418.85"/><line class="cls-1" x1="214.78" y1="420.1" x2="219.55" y2="420.1"/><line class="cls-1" x1="214.78" y1="421.35" x2="219.55" y2="421.35"/><line class="cls-1" x1="214.78" y1="422.61" x2="219.55" y2="422.61"/><line class="cls-1" x1="214.78" y1="423.86" x2="219.55" y2="423.86"/><line class="cls-1" x1="214.78" y1="425.11" x2="219.55" y2="425.11"/><line class="cls-1" x1="214.78" y1="426.36" x2="219.55" y2="426.36"/><line class="cls-1" x1="214.78" y1="427.61" x2="219.55" y2="427.61"/><line class="cls-1" x1="214.78" y1="428.86" x2="219.55" y2="428.86"/><line class="cls-1" x1="214.78" y1="430.12" x2="219.55" y2="430.12"/><line class="cls-1" x1="214.78" y1="431.37" x2="219.55" y2="431.37"/><line class="cls-1" x1="214.78" y1="432.62" x2="219.55" y2="432.62"/><line class="cls-1" x1="214.78" y1="433.87" x2="219.55" y2="433.87"/><line class="cls-1" x1="214.78" y1="435.12" x2="219.55" y2="435.12"/><line class="cls-1" x1="214.78" y1="436.38" x2="219.55" y2="436.38"/><line class="cls-1" x1="214.78" y1="437.63" x2="219.55" y2="437.63"/><line class="cls-1" x1="214.78" y1="438.88" x2="219.55" y2="438.88"/><line class="cls-1" x1="214.78" y1="440.13" x2="219.55" y2="440.13"/><line class="cls-1" x1="214.78" y1="441.38" x2="219.55" y2="441.38"/><line class="cls-1" x1="214.78" y1="442.63" x2="219.55" y2="442.63"/><line class="cls-1" x1="214.78" y1="443.89" x2="219.55" y2="443.89"/><line class="cls-1" x1="214.78" y1="445.14" x2="219.55" y2="445.14"/><line class="cls-1" x1="214.78" y1="446.39" x2="219.55" y2="446.39"/><line class="cls-1" x1="214.78" y1="447.64" x2="219.55" y2="447.64"/><line class="cls-1" x1="214.78" y1="448.89" x2="219.55" y2="448.89"/><line class="cls-1" x1="214.78" y1="450.14" x2="219.55" y2="450.14"/><line class="cls-1" x1="214.78" y1="451.4" x2="219.55" y2="451.4"/><line class="cls-1" x1="214.78" y1="452.65" x2="219.55" y2="452.65"/><line class="cls-1" x1="214.78" y1="453.9" x2="219.55" y2="453.9"/><line class="cls-1" x1="214.78" y1="455.15" x2="219.55" y2="455.15"/><line class="cls-1" x1="214.78" y1="456.4" x2="219.55" y2="456.4"/><line class="cls-1" x1="214.78" y1="457.66" x2="219.55" y2="457.66"/><line class="cls-1" x1="214.78" y1="458.91" x2="219.55" y2="458.91"/><line class="cls-1" x1="214.78" y1="460.16" x2="219.55" y2="460.16"/><line class="cls-1" x1="214.78" y1="461.41" x2="219.55" y2="461.41"/><line class="cls-1" x1="214.78" y1="462.66" x2="219.55" y2="462.66"/><line class="cls-1" x1="214.78" y1="463.91" x2="219.55" y2="463.91"/><line class="cls-1" x1="214.78" y1="465.17" x2="219.55" y2="465.17"/><line class="cls-1" x1="214.78" y1="466.42" x2="219.55" y2="466.42"/><line class="cls-1" x1="214.78" y1="467.67" x2="219.55" y2="467.67"/><line class="cls-1" x1="214.78" y1="468.92" x2="219.55" y2="468.92"/><line class="cls-1" x1="214.78" y1="470.17" x2="219.55" y2="470.17"/><line class="cls-1" x1="214.78" y1="471.43" x2="219.55" y2="471.43"/><line class="cls-1" x1="214.78" y1="472.68" x2="219.55" y2="472.68"/><line class="cls-1" x1="214.78" y1="473.93" x2="219.55" y2="473.93"/><line class="cls-1" x1="214.78" y1="475.18" x2="219.55" y2="475.18"/><line class="cls-1" x1="214.78" y1="476.43" x2="219.55" y2="476.43"/><line class="cls-1" x1="214.78" y1="477.68" x2="219.55" y2="477.68"/><line class="cls-1" x1="214.78" y1="478.94" x2="219.55" y2="478.94"/><line class="cls-1" x1="214.78" y1="480.19" x2="219.55" y2="480.19"/><line class="cls-1" x1="214.78" y1="481.44" x2="219.55" y2="481.44"/><line class="cls-1" x1="214.78" y1="482.69" x2="219.55" y2="482.69"/><line class="cls-1" x1="252.07" y1="188.52" x2="256.83" y2="188.52"/><line class="cls-1" x1="252.07" y1="189.77" x2="256.83" y2="189.77"/><line class="cls-1" x1="252.07" y1="191.02" x2="256.83" y2="191.02"/><line class="cls-1" x1="252.07" y1="192.27" x2="256.83" y2="192.27"/><line class="cls-1" x1="252.07" y1="193.53" x2="256.83" y2="193.53"/><line class="cls-1" x1="252.07" y1="194.78" x2="256.83" y2="194.78"/><line class="cls-1" x1="252.07" y1="196.03" x2="256.83" y2="196.03"/><line class="cls-1" x1="252.07" y1="197.28" x2="256.83" y2="197.28"/><line class="cls-1" x1="252.07" y1="198.53" x2="256.83" y2="198.53"/><line class="cls-1" x1="252.07" y1="199.78" x2="256.83" y2="199.78"/><line class="cls-1" x1="252.07" y1="201.04" x2="256.83" y2="201.04"/><line class="cls-1" x1="252.07" y1="202.29" x2="256.83" y2="202.29"/><line class="cls-1" x1="252.07" y1="203.54" x2="256.83" y2="203.54"/><line class="cls-1" x1="252.07" y1="204.79" x2="256.83" y2="204.79"/><line class="cls-1" x1="252.07" y1="206.04" x2="256.83" y2="206.04"/><line class="cls-1" x1="252.07" y1="207.29" x2="256.83" y2="207.29"/><line class="cls-1" x1="252.07" y1="208.55" x2="256.83" y2="208.55"/><line class="cls-1" x1="252.07" y1="209.8" x2="256.83" y2="209.8"/><line class="cls-1" x1="252.07" y1="211.05" x2="256.83" y2="211.05"/><line class="cls-1" x1="252.07" y1="212.3" x2="256.83" y2="212.3"/><line class="cls-1" x1="252.07" y1="213.55" x2="256.83" y2="213.55"/><line class="cls-1" x1="252.07" y1="214.81" x2="256.83" y2="214.81"/><line class="cls-1" x1="252.07" y1="216.06" x2="256.83" y2="216.06"/><line class="cls-1" x1="252.07" y1="217.31" x2="256.83" y2="217.31"/><line class="cls-1" x1="252.07" y1="218.56" x2="256.83" y2="218.56"/><line class="cls-1" x1="252.07" y1="219.81" x2="256.83" y2="219.81"/><line class="cls-1" x1="252.07" y1="221.06" x2="256.83" y2="221.06"/><line class="cls-1" x1="252.07" y1="222.32" x2="256.83" y2="222.32"/><line class="cls-1" x1="252.07" y1="223.57" x2="256.83" y2="223.57"/><line class="cls-1" x1="252.07" y1="224.82" x2="256.83" y2="224.82"/><line class="cls-1" x1="252.07" y1="226.07" x2="256.83" y2="226.07"/><line class="cls-1" x1="252.07" y1="227.32" x2="256.83" y2="227.32"/><line class="cls-1" x1="252.07" y1="228.58" x2="256.83" y2="228.58"/><line class="cls-1" x1="252.07" y1="229.83" x2="256.83" y2="229.83"/><line class="cls-1" x1="252.07" y1="231.08" x2="256.83" y2="231.08"/><line class="cls-1" x1="252.07" y1="232.33" x2="256.83" y2="232.33"/><line class="cls-1" x1="252.07" y1="233.58" x2="256.83" y2="233.58"/><line class="cls-1" x1="252.07" y1="234.83" x2="256.83" y2="234.83"/><line class="cls-1" x1="252.07" y1="236.09" x2="256.83" y2="236.09"/><line class="cls-1" x1="252.07" y1="237.34" x2="256.83" y2="237.34"/><line class="cls-1" x1="252.07" y1="238.59" x2="256.83" y2="238.59"/><line class="cls-1" x1="252.07" y1="239.84" x2="256.83" y2="239.84"/><line class="cls-1" x1="252.07" y1="241.09" x2="256.83" y2="241.09"/><line class="cls-1" x1="252.07" y1="242.35" x2="256.83" y2="242.35"/><line class="cls-1" x1="252.07" y1="243.6" x2="256.83" y2="243.6"/><line class="cls-1" x1="252.07" y1="244.85" x2="256.83" y2="244.85"/><line class="cls-1" x1="252.07" y1="246.1" x2="256.83" y2="246.1"/><line class="cls-1" x1="252.07" y1="247.35" x2="256.83" y2="247.35"/><line class="cls-1" x1="252.07" y1="248.6" x2="256.83" y2="248.6"/><line class="cls-1" x1="252.07" y1="249.86" x2="256.83" y2="249.86"/><line class="cls-1" x1="252.07" y1="251.11" x2="256.83" y2="251.11"/><line class="cls-1" x1="252.07" y1="252.36" x2="256.83" y2="252.36"/><line class="cls-1" x1="252.07" y1="253.61" x2="256.83" y2="253.61"/><line class="cls-1" x1="252.07" y1="254.86" x2="256.83" y2="254.86"/><line class="cls-1" x1="252.07" y1="256.12" x2="256.83" y2="256.12"/><line class="cls-1" x1="252.07" y1="257.37" x2="256.83" y2="257.37"/><line class="cls-1" x1="252.07" y1="258.62" x2="256.83" y2="258.62"/><line class="cls-1" x1="252.07" y1="259.87" x2="256.83" y2="259.87"/><line class="cls-1" x1="252.07" y1="261.12" x2="256.83" y2="261.12"/><line class="cls-1" x1="252.07" y1="262.37" x2="256.83" y2="262.37"/><line class="cls-1" x1="252.07" y1="263.63" x2="256.83" y2="263.63"/><line class="cls-1" x1="252.07" y1="264.88" x2="256.83" y2="264.88"/><line class="cls-1" x1="252.07" y1="266.13" x2="256.83" y2="266.13"/><line class="cls-1" x1="252.07" y1="267.38" x2="256.83" y2="267.38"/><line class="cls-1" x1="252.07" y1="268.63" x2="256.83" y2="268.63"/><line class="cls-1" x1="252.07" y1="269.89" x2="256.83" y2="269.89"/><line class="cls-1" x1="252.07" y1="271.14" x2="256.83" y2="271.14"/><line class="cls-1" x1="252.07" y1="272.39" x2="256.83" y2="272.39"/><line class="cls-1" x1="252.07" y1="273.64" x2="256.83" y2="273.64"/><line class="cls-1" x1="252.07" y1="274.89" x2="256.83" y2="274.89"/><line class="cls-1" x1="252.07" y1="276.14" x2="256.83" y2="276.14"/><line class="cls-1" x1="252.07" y1="277.4" x2="256.83" y2="277.4"/><line class="cls-1" x1="252.07" y1="278.65" x2="256.83" y2="278.65"/><line class="cls-1" x1="252.07" y1="279.9" x2="256.83" y2="279.9"/><line class="cls-1" x1="252.07" y1="281.15" x2="256.83" y2="281.15"/><line class="cls-1" x1="252.07" y1="282.4" x2="256.83" y2="282.4"/><line class="cls-1" x1="252.07" y1="283.65" x2="256.83" y2="283.65"/><line class="cls-1" x1="252.07" y1="284.91" x2="256.83" y2="284.91"/><line class="cls-1" x1="252.07" y1="286.16" x2="256.83" y2="286.16"/><line class="cls-1" x1="252.07" y1="287.41" x2="256.83" y2="287.41"/><line class="cls-1" x1="252.07" y1="288.66" x2="256.83" y2="288.66"/><line class="cls-1" x1="252.07" y1="289.91" x2="256.83" y2="289.91"/><line class="cls-1" x1="252.07" y1="291.17" x2="256.83" y2="291.17"/><line class="cls-1" x1="252.07" y1="292.42" x2="256.83" y2="292.42"/><line class="cls-1" x1="252.07" y1="293.67" x2="256.83" y2="293.67"/><line class="cls-1" x1="252.07" y1="294.92" x2="256.83" y2="294.92"/><line class="cls-1" x1="252.07" y1="296.17" x2="256.83" y2="296.17"/><line class="cls-1" x1="252.07" y1="297.42" x2="256.83" y2="297.42"/><line class="cls-1" x1="252.07" y1="298.68" x2="256.83" y2="298.68"/><line class="cls-1" x1="252.07" y1="299.93" x2="256.83" y2="299.93"/><line class="cls-1" x1="252.07" y1="301.18" x2="256.83" y2="301.18"/><line class="cls-1" x1="252.07" y1="302.43" x2="256.83" y2="302.43"/><line class="cls-1" x1="252.07" y1="303.68" x2="256.83" y2="303.68"/><line class="cls-1" x1="252.07" y1="304.94" x2="256.83" y2="304.94"/><line class="cls-1" x1="252.07" y1="306.19" x2="256.83" y2="306.19"/><line class="cls-1" x1="252.07" y1="307.44" x2="256.83" y2="307.44"/><line class="cls-1" x1="252.07" y1="308.69" x2="256.83" y2="308.69"/><line class="cls-1" x1="252.07" y1="309.94" x2="256.83" y2="309.94"/><line class="cls-1" x1="252.07" y1="311.19" x2="256.83" y2="311.19"/><line class="cls-1" x1="252.07" y1="312.45" x2="256.83" y2="312.45"/><line class="cls-1" x1="252.07" y1="313.7" x2="256.83" y2="313.7"/><line class="cls-1" x1="252.07" y1="314.95" x2="256.83" y2="314.95"/><line class="cls-1" x1="252.07" y1="316.2" x2="256.83" y2="316.2"/><line class="cls-1" x1="252.07" y1="317.45" x2="256.83" y2="317.45"/><line class="cls-1" x1="252.07" y1="318.71" x2="256.83" y2="318.71"/><line class="cls-1" x1="252.07" y1="319.96" x2="256.83" y2="319.96"/><line class="cls-1" x1="252.07" y1="321.21" x2="256.83" y2="321.21"/><line class="cls-1" x1="252.07" y1="322.46" x2="256.83" y2="322.46"/><line class="cls-1" x1="252.07" y1="323.71" x2="256.83" y2="323.71"/><line class="cls-1" x1="252.07" y1="324.96" x2="256.83" y2="324.96"/><line class="cls-1" x1="252.07" y1="326.22" x2="256.83" y2="326.22"/><line class="cls-1" x1="252.07" y1="327.47" x2="256.83" y2="327.47"/><line class="cls-1" x1="252.07" y1="328.72" x2="256.83" y2="328.72"/><line class="cls-1" x1="252.07" y1="329.97" x2="256.83" y2="329.97"/><line class="cls-1" x1="252.07" y1="331.22" x2="256.83" y2="331.22"/><line class="cls-1" x1="252.07" y1="332.48" x2="256.83" y2="332.48"/><line class="cls-1" x1="252.07" y1="333.73" x2="256.83" y2="333.73"/><line class="cls-1" x1="252.07" y1="334.98" x2="256.83" y2="334.98"/><line class="cls-1" x1="252.07" y1="336.23" x2="256.83" y2="336.23"/><line class="cls-1" x1="252.07" y1="337.48" x2="256.83" y2="337.48"/><line class="cls-1" x1="252.07" y1="338.73" x2="256.83" y2="338.73"/><line class="cls-1" x1="252.07" y1="339.99" x2="256.83" y2="339.99"/><line class="cls-1" x1="252.07" y1="341.24" x2="256.83" y2="341.24"/><line class="cls-1" x1="252.07" y1="342.49" x2="256.83" y2="342.49"/><line class="cls-1" x1="252.07" y1="343.74" x2="256.83" y2="343.74"/><line class="cls-1" x1="252.07" y1="344.99" x2="256.83" y2="344.99"/><line class="cls-1" x1="252.07" y1="346.25" x2="256.83" y2="346.25"/><line class="cls-1" x1="252.07" y1="347.5" x2="256.83" y2="347.5"/><line class="cls-1" x1="252.07" y1="348.75" x2="256.83" y2="348.75"/><line class="cls-1" x1="252.07" y1="350" x2="256.83" y2="350"/><line class="cls-1" x1="252.07" y1="351.25" x2="256.83" y2="351.25"/><line class="cls-1" x1="252.07" y1="352.5" x2="256.83" y2="352.5"/><line class="cls-1" x1="252.07" y1="353.76" x2="256.83" y2="353.76"/><line class="cls-1" x1="252.07" y1="355.01" x2="256.83" y2="355.01"/><line class="cls-1" x1="252.07" y1="356.26" x2="256.83" y2="356.26"/><line class="cls-1" x1="252.07" y1="357.51" x2="256.83" y2="357.51"/><line class="cls-1" x1="252.07" y1="358.76" x2="256.83" y2="358.76"/><line class="cls-1" x1="252.07" y1="360.01" x2="256.83" y2="360.01"/><line class="cls-1" x1="252.07" y1="361.27" x2="256.83" y2="361.27"/><line class="cls-1" x1="252.07" y1="362.52" x2="256.83" y2="362.52"/><line class="cls-1" x1="252.07" y1="363.77" x2="256.83" y2="363.77"/><line class="cls-1" x1="252.07" y1="365.02" x2="256.83" y2="365.02"/><line class="cls-1" x1="252.07" y1="366.27" x2="256.83" y2="366.27"/><line class="cls-1" x1="252.07" y1="367.53" x2="256.83" y2="367.53"/><line class="cls-1" x1="252.07" y1="368.78" x2="256.83" y2="368.78"/><line class="cls-1" x1="252.07" y1="370.03" x2="256.83" y2="370.03"/><line class="cls-1" x1="252.07" y1="371.28" x2="256.83" y2="371.28"/><line class="cls-1" x1="252.07" y1="372.53" x2="256.83" y2="372.53"/><line class="cls-1" x1="252.07" y1="373.78" x2="256.83" y2="373.78"/><line class="cls-1" x1="252.07" y1="375.04" x2="256.83" y2="375.04"/><line class="cls-1" x1="252.07" y1="376.29" x2="256.83" y2="376.29"/><line class="cls-1" x1="252.07" y1="377.54" x2="256.83" y2="377.54"/><line class="cls-1" x1="252.07" y1="378.79" x2="256.83" y2="378.79"/><line class="cls-1" x1="252.07" y1="380.04" x2="256.83" y2="380.04"/><line class="cls-1" x1="252.07" y1="381.3" x2="256.83" y2="381.3"/><line class="cls-1" x1="252.07" y1="382.55" x2="256.83" y2="382.55"/><line class="cls-1" x1="252.07" y1="383.8" x2="256.83" y2="383.8"/><line class="cls-1" x1="252.07" y1="385.05" x2="256.83" y2="385.05"/><line class="cls-1" x1="252.07" y1="386.3" x2="256.83" y2="386.3"/><line class="cls-1" x1="252.07" y1="387.55" x2="256.83" y2="387.55"/><line class="cls-1" x1="252.07" y1="388.81" x2="256.83" y2="388.81"/><line class="cls-1" x1="252.07" y1="390.06" x2="256.83" y2="390.06"/><line class="cls-1" x1="252.07" y1="391.31" x2="256.83" y2="391.31"/><line class="cls-1" x1="252.07" y1="392.56" x2="256.83" y2="392.56"/><line class="cls-1" x1="252.07" y1="393.81" x2="256.83" y2="393.81"/><line class="cls-1" x1="252.07" y1="395.07" x2="256.83" y2="395.07"/><line class="cls-1" x1="252.07" y1="396.32" x2="256.83" y2="396.32"/><line class="cls-1" x1="252.07" y1="397.57" x2="256.83" y2="397.57"/><line class="cls-1" x1="252.07" y1="398.82" x2="256.83" y2="398.82"/><line class="cls-1" x1="252.07" y1="400.07" x2="256.83" y2="400.07"/><line class="cls-1" x1="252.07" y1="401.32" x2="256.83" y2="401.32"/><line class="cls-1" x1="252.07" y1="402.58" x2="256.83" y2="402.58"/><line class="cls-1" x1="252.07" y1="403.83" x2="256.83" y2="403.83"/><line class="cls-1" x1="252.07" y1="405.08" x2="256.83" y2="405.08"/><line class="cls-1" x1="252.07" y1="406.33" x2="256.83" y2="406.33"/><line class="cls-1" x1="252.07" y1="407.58" x2="256.83" y2="407.58"/><line class="cls-1" x1="252.07" y1="408.84" x2="256.83" y2="408.84"/><line class="cls-1" x1="252.07" y1="410.09" x2="256.83" y2="410.09"/><line class="cls-1" x1="252.07" y1="411.34" x2="256.83" y2="411.34"/><line class="cls-1" x1="252.07" y1="412.59" x2="256.83" y2="412.59"/><line class="cls-1" x1="252.07" y1="413.84" x2="256.83" y2="413.84"/><line class="cls-1" x1="252.07" y1="415.09" x2="256.83" y2="415.09"/><line class="cls-1" x1="252.07" y1="416.35" x2="256.83" y2="416.35"/><line class="cls-1" x1="252.07" y1="417.6" x2="256.83" y2="417.6"/><line class="cls-1" x1="252.07" y1="418.85" x2="256.83" y2="418.85"/><line class="cls-1" x1="252.07" y1="420.1" x2="256.83" y2="420.1"/><line class="cls-1" x1="252.07" y1="421.35" x2="256.83" y2="421.35"/><line class="cls-1" x1="252.07" y1="422.61" x2="256.83" y2="422.61"/><line class="cls-1" x1="252.07" y1="423.86" x2="256.83" y2="423.86"/><line class="cls-1" x1="252.07" y1="425.11" x2="256.83" y2="425.11"/><line class="cls-1" x1="252.07" y1="426.36" x2="256.83" y2="426.36"/><line class="cls-1" x1="252.07" y1="427.61" x2="256.83" y2="427.61"/><line class="cls-1" x1="252.07" y1="428.86" x2="256.83" y2="428.86"/><line class="cls-1" x1="252.07" y1="430.12" x2="256.83" y2="430.12"/><line class="cls-1" x1="252.07" y1="431.37" x2="256.83" y2="431.37"/><line class="cls-1" x1="252.07" y1="432.62" x2="256.83" y2="432.62"/><line class="cls-1" x1="252.07" y1="433.87" x2="256.83" y2="433.87"/><line class="cls-1" x1="252.07" y1="435.12" x2="256.83" y2="435.12"/><line class="cls-1" x1="252.07" y1="436.38" x2="256.83" y2="436.38"/><line class="cls-1" x1="252.07" y1="437.63" x2="256.83" y2="437.63"/><line class="cls-1" x1="252.07" y1="438.88" x2="256.83" y2="438.88"/><line class="cls-1" x1="252.07" y1="440.13" x2="256.83" y2="440.13"/><line class="cls-1" x1="252.07" y1="441.38" x2="256.83" y2="441.38"/><line class="cls-1" x1="252.07" y1="442.63" x2="256.83" y2="442.63"/><line class="cls-1" x1="252.07" y1="443.89" x2="256.83" y2="443.89"/><line class="cls-1" x1="252.07" y1="445.14" x2="256.83" y2="445.14"/><line class="cls-1" x1="252.07" y1="446.39" x2="256.83" y2="446.39"/><line class="cls-1" x1="252.07" y1="447.64" x2="256.83" y2="447.64"/><line class="cls-1" x1="252.07" y1="448.89" x2="256.83" y2="448.89"/><line class="cls-1" x1="252.07" y1="450.14" x2="256.83" y2="450.14"/><line class="cls-1" x1="252.07" y1="451.4" x2="256.83" y2="451.4"/><line class="cls-1" x1="252.07" y1="452.65" x2="256.83" y2="452.65"/><line class="cls-1" x1="252.07" y1="453.9" x2="256.83" y2="453.9"/><line class="cls-1" x1="252.07" y1="455.15" x2="256.83" y2="455.15"/><line class="cls-1" x1="252.07" y1="456.4" x2="256.83" y2="456.4"/><line class="cls-1" x1="252.07" y1="457.66" x2="256.83" y2="457.66"/><line class="cls-1" x1="252.07" y1="458.91" x2="256.83" y2="458.91"/><line class="cls-1" x1="252.07" y1="460.16" x2="256.83" y2="460.16"/><line class="cls-1" x1="252.07" y1="461.41" x2="256.83" y2="461.41"/><line class="cls-1" x1="252.07" y1="462.66" x2="256.83" y2="462.66"/><line class="cls-1" x1="252.07" y1="463.91" x2="256.83" y2="463.91"/><line class="cls-1" x1="252.07" y1="465.17" x2="256.83" y2="465.17"/><line class="cls-1" x1="252.07" y1="466.42" x2="256.83" y2="466.42"/><line class="cls-1" x1="252.07" y1="467.67" x2="256.83" y2="467.67"/><line class="cls-1" x1="252.07" y1="468.92" x2="256.83" y2="468.92"/><line class="cls-1" x1="252.07" y1="470.17" x2="256.83" y2="470.17"/><line class="cls-1" x1="252.07" y1="471.43" x2="256.83" y2="471.43"/><line class="cls-1" x1="252.07" y1="472.68" x2="256.83" y2="472.68"/><line class="cls-1" x1="252.07" y1="473.93" x2="256.83" y2="473.93"/><line class="cls-1" x1="252.07" y1="475.18" x2="256.83" y2="475.18"/><line class="cls-1" x1="252.07" y1="476.43" x2="256.83" y2="476.43"/><line class="cls-1" x1="252.07" y1="477.68" x2="256.83" y2="477.68"/><line class="cls-1" x1="252.07" y1="478.94" x2="256.83" y2="478.94"/><line class="cls-1" x1="252.07" y1="480.19" x2="256.83" y2="480.19"/><line class="cls-1" x1="252.07" y1="481.44" x2="256.83" y2="481.44"/><line class="cls-1" x1="252.07" y1="482.69" x2="256.83" y2="482.69"/><line class="cls-1" x1="276.78" y1="39.25" x2="281.48" y2="40.03"/><line class="cls-1" x1="276.99" y1="38.01" x2="281.69" y2="38.8"/><line class="cls-1" x1="277.2" y1="36.78" x2="281.9" y2="37.56"/><line class="cls-1" x1="277.4" y1="35.54" x2="282.1" y2="36.33"/><line class="cls-1" x1="277.61" y1="34.31" x2="282.31" y2="35.09"/><line class="cls-1" x1="277.82" y1="33.07" x2="282.52" y2="33.86"/><line class="cls-1" x1="278.02" y1="31.84" x2="282.72" y2="32.63"/><line class="cls-1" x1="278.23" y1="30.6" x2="282.93" y2="31.39"/><line class="cls-1" x1="278.44" y1="29.37" x2="283.13" y2="30.16"/><line class="cls-1" x1="278.64" y1="28.14" x2="283.34" y2="28.92"/><line class="cls-1" x1="278.85" y1="26.9" x2="283.55" y2="27.69"/><line class="cls-1" x1="279.05" y1="25.67" x2="283.75" y2="26.45"/><line class="cls-1" x1="279.26" y1="24.43" x2="283.96" y2="25.22"/><line class="cls-1" x1="279.47" y1="23.2" x2="284.17" y2="23.98"/><line class="cls-1" x1="279.67" y1="21.96" x2="284.37" y2="22.75"/><line class="cls-1" x1="279.88" y1="20.73" x2="284.58" y2="21.51"/><line class="cls-1" x1="280.09" y1="19.49" x2="284.79" y2="20.28"/><line class="cls-1" x1="280.29" y1="18.26" x2="284.99" y2="19.04"/><line class="cls-1" x1="280.5" y1="17.02" x2="285.2" y2="17.81"/><line class="cls-1" x1="280.71" y1="15.79" x2="285.41" y2="16.57"/><line class="cls-1" x1="280.91" y1="14.55" x2="285.61" y2="15.34"/><line class="cls-1" x1="281.12" y1="13.32" x2="285.82" y2="14.11"/><line class="cls-1" x1="281.33" y1="12.08" x2="286.03" y2="12.87"/><line class="cls-1" x1="281.53" y1="10.85" x2="286.23" y2="11.64"/><line class="cls-1" x1="281.74" y1="9.62" x2="286.44" y2="10.4"/><line class="cls-1" x1="281.95" y1="8.38" x2="286.65" y2="9.17"/><line class="cls-1" x1="282.15" y1="7.15" x2="286.85" y2="7.93"/><line class="cls-1" x1="282.36" y1="5.91" x2="287.06" y2="6.7"/><line class="cls-1" x1="282.57" y1="4.68" x2="287.26" y2="5.46"/><line class="cls-1" x1="282.77" y1="3.44" x2="287.47" y2="4.23"/><line class="cls-1" x1="282.98" y1="2.21" x2="287.68" y2="2.99"/><line class="cls-1" x1="276.58" y1="40.48" x2="281.28" y2="41.27"/><line class="cls-1" x1="276.37" y1="41.72" x2="281.07" y2="42.5"/><line class="cls-1" x1="276.16" y1="42.95" x2="280.86" y2="43.74"/><line class="cls-1" x1="275.96" y1="44.19" x2="280.66" y2="44.97"/><line class="cls-1" x1="275.75" y1="45.42" x2="280.45" y2="46.21"/><line class="cls-1" x1="275.54" y1="46.65" x2="280.24" y2="47.44"/><line class="cls-1" x1="275.34" y1="47.89" x2="280.04" y2="48.68"/><line class="cls-1" x1="275.13" y1="49.12" x2="279.83" y2="49.91"/><line class="cls-1" x1="274.92" y1="50.36" x2="279.62" y2="51.14"/><line class="cls-1" x1="274.72" y1="51.59" x2="279.42" y2="52.38"/><line class="cls-1" x1="274.51" y1="52.83" x2="279.21" y2="53.61"/><line class="cls-1" x1="274.3" y1="54.06" x2="279" y2="54.85"/><line class="cls-1" x1="274.1" y1="55.3" x2="278.8" y2="56.08"/><line class="cls-1" x1="273.89" y1="56.53" x2="278.59" y2="57.32"/><line class="cls-1" x1="273.69" y1="57.77" x2="278.38" y2="58.55"/><line class="cls-1" x1="273.48" y1="59" x2="278.18" y2="59.79"/><line class="cls-1" x1="273.27" y1="60.24" x2="277.97" y2="61.02"/><line class="cls-1" x1="273.07" y1="61.47" x2="277.77" y2="62.26"/><line class="cls-1" x1="272.86" y1="62.71" x2="277.56" y2="63.49"/><line class="cls-1" x1="272.65" y1="63.94" x2="277.35" y2="64.73"/><line class="cls-1" x1="272.45" y1="65.17" x2="277.15" y2="65.96"/><line class="cls-1" x1="272.24" y1="66.41" x2="276.94" y2="67.2"/><line class="cls-1" x1="272.03" y1="67.64" x2="276.73" y2="68.43"/><line class="cls-1" x1="271.83" y1="68.88" x2="276.53" y2="69.66"/><line class="cls-1" x1="271.62" y1="70.11" x2="276.32" y2="70.9"/><line class="cls-1" x1="271.41" y1="71.35" x2="276.11" y2="72.13"/><line class="cls-1" x1="271.21" y1="72.58" x2="275.91" y2="73.37"/><line class="cls-1" x1="271" y1="73.82" x2="275.7" y2="74.6"/><line class="cls-1" x1="270.79" y1="75.05" x2="275.49" y2="75.84"/><line class="cls-1" x1="270.59" y1="76.29" x2="275.29" y2="77.07"/><line class="cls-1" x1="270.38" y1="77.52" x2="275.08" y2="78.31"/><line class="cls-1" x1="270.17" y1="78.76" x2="274.87" y2="79.54"/><line class="cls-1" x1="269.97" y1="79.99" x2="274.67" y2="80.78"/><line class="cls-1" x1="269.76" y1="81.23" x2="274.46" y2="82.01"/><line class="cls-1" x1="269.56" y1="82.46" x2="274.25" y2="83.25"/><line class="cls-1" x1="269.35" y1="83.69" x2="274.05" y2="84.48"/><line class="cls-1" x1="269.14" y1="84.93" x2="273.84" y2="85.72"/><line class="cls-1" x1="268.94" y1="86.16" x2="273.64" y2="86.95"/><line class="cls-1" x1="268.73" y1="87.4" x2="273.43" y2="88.18"/><line class="cls-1" x1="268.52" y1="88.63" x2="273.22" y2="89.42"/><line class="cls-1" x1="268.32" y1="89.87" x2="273.02" y2="90.65"/><line class="cls-1" x1="268.11" y1="91.1" x2="272.81" y2="91.89"/><line class="cls-1" x1="267.9" y1="92.34" x2="272.6" y2="93.12"/><line class="cls-1" x1="267.7" y1="93.57" x2="272.4" y2="94.36"/><line class="cls-1" x1="267.49" y1="94.81" x2="272.19" y2="95.59"/><line class="cls-1" x1="267.28" y1="96.04" x2="271.98" y2="96.83"/><line class="cls-1" x1="267.08" y1="97.28" x2="271.78" y2="98.06"/><line class="cls-1" x1="266.87" y1="98.51" x2="271.57" y2="99.3"/><line class="cls-1" x1="266.66" y1="99.74" x2="271.36" y2="100.53"/><line class="cls-1" x1="266.46" y1="100.98" x2="271.16" y2="101.77"/><line class="cls-1" x1="266.25" y1="102.21" x2="270.95" y2="103"/><line class="cls-1" x1="266.04" y1="103.45" x2="270.74" y2="104.23"/><line class="cls-1" x1="265.84" y1="104.68" x2="270.54" y2="105.47"/><line class="cls-1" x1="265.63" y1="105.92" x2="270.33" y2="106.7"/><line class="cls-1" x1="265.43" y1="107.15" x2="270.12" y2="107.94"/><line class="cls-1" x1="265.22" y1="108.39" x2="269.92" y2="109.17"/><line class="cls-1" x1="265.01" y1="109.62" x2="269.71" y2="110.41"/><line class="cls-1" x1="264.81" y1="110.86" x2="269.5" y2="111.64"/><line class="cls-1" x1="264.6" y1="112.09" x2="269.3" y2="112.88"/><line class="cls-1" x1="264.39" y1="113.33" x2="269.09" y2="114.11"/><line class="cls-1" x1="264.19" y1="114.56" x2="268.89" y2="115.35"/><line class="cls-1" x1="263.98" y1="115.8" x2="268.68" y2="116.58"/><line class="cls-1" x1="263.77" y1="117.03" x2="268.47" y2="117.82"/><line class="cls-1" x1="263.57" y1="118.26" x2="268.27" y2="119.05"/><line class="cls-1" x1="263.36" y1="119.5" x2="268.06" y2="120.29"/><line class="cls-1" x1="263.15" y1="120.73" x2="267.85" y2="121.52"/><line class="cls-1" x1="262.95" y1="121.97" x2="267.65" y2="122.75"/><line class="cls-1" x1="262.74" y1="123.2" x2="267.44" y2="123.99"/><line class="cls-1" x1="262.53" y1="124.44" x2="267.23" y2="125.22"/><line class="cls-1" x1="262.33" y1="125.67" x2="267.03" y2="126.46"/><line class="cls-1" x1="262.12" y1="126.91" x2="266.82" y2="127.69"/><line class="cls-1" x1="261.91" y1="128.14" x2="266.61" y2="128.93"/><line class="cls-1" x1="261.71" y1="129.38" x2="266.41" y2="130.16"/><line class="cls-1" x1="261.5" y1="130.61" x2="266.2" y2="131.4"/><line class="cls-1" x1="261.29" y1="131.85" x2="265.99" y2="132.63"/><line class="cls-1" x1="261.09" y1="133.08" x2="265.79" y2="133.87"/><line class="cls-1" x1="260.88" y1="134.32" x2="265.58" y2="135.1"/><line class="cls-1" x1="260.68" y1="135.55" x2="265.37" y2="136.34"/><line class="cls-1" x1="260.47" y1="136.78" x2="265.17" y2="137.57"/><line class="cls-1" x1="260.26" y1="138.02" x2="264.96" y2="138.81"/><line class="cls-1" x1="260.06" y1="139.25" x2="264.76" y2="140.04"/><line class="cls-1" x1="259.85" y1="140.49" x2="264.55" y2="141.27"/><line class="cls-1" x1="259.64" y1="141.72" x2="264.34" y2="142.51"/><line class="cls-1" x1="259.44" y1="142.96" x2="264.14" y2="143.74"/><line class="cls-1" x1="259.23" y1="144.19" x2="263.93" y2="144.98"/><line class="cls-1" x1="259.02" y1="145.43" x2="263.72" y2="146.21"/><line class="cls-1" x1="258.82" y1="146.66" x2="263.52" y2="147.45"/><line class="cls-1" x1="258.61" y1="147.9" x2="263.31" y2="148.68"/><line class="cls-1" x1="258.4" y1="149.13" x2="263.1" y2="149.92"/><line class="cls-1" x1="258.2" y1="150.37" x2="262.9" y2="151.15"/><line class="cls-1" x1="257.99" y1="151.6" x2="262.69" y2="152.39"/><line class="cls-1" x1="257.78" y1="152.84" x2="262.48" y2="153.62"/><line class="cls-1" x1="257.58" y1="154.07" x2="262.28" y2="154.86"/><line class="cls-1" x1="257.37" y1="155.3" x2="262.07" y2="156.09"/><line class="cls-1" x1="257.16" y1="156.54" x2="261.86" y2="157.33"/><line class="cls-1" x1="256.96" y1="157.77" x2="261.66" y2="158.56"/><line class="cls-1" x1="256.75" y1="159.01" x2="261.45" y2="159.79"/><line class="cls-1" x1="256.55" y1="160.24" x2="261.24" y2="161.03"/><line class="cls-1" x1="256.34" y1="161.48" x2="261.04" y2="162.26"/><line class="cls-1" x1="256.13" y1="162.71" x2="260.83" y2="163.5"/><line class="cls-1" x1="255.93" y1="163.95" x2="260.63" y2="164.73"/><line class="cls-1" x1="255.72" y1="165.18" x2="260.42" y2="165.97"/><line class="cls-1" x1="255.51" y1="166.42" x2="260.21" y2="167.2"/><line class="cls-1" x1="255.31" y1="167.65" x2="260.01" y2="168.44"/><line class="cls-1" x1="255.1" y1="168.89" x2="259.8" y2="169.67"/><line class="cls-1" x1="254.89" y1="170.12" x2="259.59" y2="170.91"/><line class="cls-1" x1="254.69" y1="171.35" x2="259.39" y2="172.14"/><line class="cls-1" x1="254.48" y1="172.59" x2="259.18" y2="173.38"/><line class="cls-1" x1="254.27" y1="173.82" x2="258.97" y2="174.61"/><line class="cls-1" x1="254.07" y1="175.06" x2="258.77" y2="175.84"/><line class="cls-1" x1="253.86" y1="176.29" x2="258.56" y2="177.08"/><line class="cls-1" x1="253.65" y1="177.53" x2="258.35" y2="178.31"/><line class="cls-1" x1="253.45" y1="178.76" x2="258.15" y2="179.55"/><line class="cls-1" x1="253.24" y1="180" x2="257.94" y2="180.78"/><line class="cls-1" x1="253.03" y1="181.23" x2="257.73" y2="182.02"/><line class="cls-1" x1="252.83" y1="182.47" x2="257.53" y2="183.25"/><line class="cls-1" x1="252.62" y1="183.7" x2="257.32" y2="184.49"/><line class="cls-1" x1="252.42" y1="184.94" x2="257.11" y2="185.72"/><line class="cls-1" x1="252.27" y1="186.69" x2="257.01" y2="187.15"/><line class="cls-1" x1="191.35" y1="39.92" x2="196.06" y2="39.18"/><line class="cls-1" x1="191.16" y1="38.68" x2="195.87" y2="37.95"/><line class="cls-1" x1="190.96" y1="37.45" x2="195.67" y2="36.71"/><line class="cls-1" x1="190.77" y1="36.21" x2="195.48" y2="35.47"/><line class="cls-1" x1="190.58" y1="34.97" x2="195.29" y2="34.24"/><line class="cls-1" x1="190.38" y1="33.74" x2="195.09" y2="33"/><line class="cls-1" x1="190.19" y1="32.5" x2="194.9" y2="31.76"/><line class="cls-1" x1="190" y1="31.26" x2="194.7" y2="30.53"/><line class="cls-1" x1="189.8" y1="30.03" x2="194.51" y2="29.29"/><line class="cls-1" x1="189.61" y1="28.79" x2="194.32" y2="28.05"/><line class="cls-1" x1="189.42" y1="27.55" x2="194.12" y2="26.82"/><line class="cls-1" x1="189.22" y1="26.32" x2="193.93" y2="25.58"/><line class="cls-1" x1="189.03" y1="25.08" x2="193.74" y2="24.34"/><line class="cls-1" x1="188.84" y1="23.84" x2="193.54" y2="23.11"/><line class="cls-1" x1="188.64" y1="22.61" x2="193.35" y2="21.87"/><line class="cls-1" x1="188.45" y1="21.37" x2="193.16" y2="20.63"/><line class="cls-1" x1="188.25" y1="20.13" x2="192.96" y2="19.4"/><line class="cls-1" x1="188.06" y1="18.9" x2="192.77" y2="18.16"/><line class="cls-1" x1="187.87" y1="17.66" x2="192.58" y2="16.92"/><line class="cls-1" x1="187.67" y1="16.42" x2="192.38" y2="15.69"/><line class="cls-1" x1="187.48" y1="15.19" x2="192.19" y2="14.45"/><line class="cls-1" x1="187.29" y1="13.95" x2="191.99" y2="13.21"/><line class="cls-1" x1="187.09" y1="12.71" x2="191.8" y2="11.98"/><line class="cls-1" x1="186.9" y1="11.48" x2="191.61" y2="10.74"/><line class="cls-1" x1="186.71" y1="10.24" x2="191.41" y2="9.5"/><line class="cls-1" x1="186.51" y1="9" x2="191.22" y2="8.27"/><line class="cls-1" x1="186.32" y1="7.77" x2="191.03" y2="7.03"/><line class="cls-1" x1="186.13" y1="6.53" x2="190.83" y2="5.79"/><line class="cls-1" x1="185.93" y1="5.29" x2="190.64" y2="4.56"/><line class="cls-1" x1="185.74" y1="4.06" x2="190.45" y2="3.32"/><line class="cls-1" x1="185.54" y1="2.82" x2="190.25" y2="2.08"/><line class="cls-1" x1="191.55" y1="41.16" x2="196.25" y2="40.42"/><line class="cls-1" x1="191.74" y1="42.39" x2="196.45" y2="41.66"/><line class="cls-1" x1="191.93" y1="43.63" x2="196.64" y2="42.89"/><line class="cls-1" x1="192.13" y1="44.87" x2="196.83" y2="44.13"/><line class="cls-1" x1="192.32" y1="46.1" x2="197.03" y2="45.37"/><line class="cls-1" x1="192.51" y1="47.34" x2="197.22" y2="46.6"/><line class="cls-1" x1="192.71" y1="48.58" x2="197.41" y2="47.84"/><line class="cls-1" x1="192.9" y1="49.81" x2="197.61" y2="49.08"/><line class="cls-1" x1="193.09" y1="51.05" x2="197.8" y2="50.31"/><line class="cls-1" x1="193.29" y1="52.29" x2="198" y2="51.55"/><line class="cls-1" x1="193.48" y1="53.52" x2="198.19" y2="52.79"/><line class="cls-1" x1="193.68" y1="54.76" x2="198.38" y2="54.02"/><line class="cls-1" x1="193.87" y1="56" x2="198.58" y2="55.26"/><line class="cls-1" x1="194.06" y1="57.24" x2="198.77" y2="56.5"/><line class="cls-1" x1="194.26" y1="58.47" x2="198.96" y2="57.74"/><line class="cls-1" x1="194.45" y1="59.71" x2="199.16" y2="58.97"/><line class="cls-1" x1="194.64" y1="60.95" x2="199.35" y2="60.21"/><line class="cls-1" x1="194.84" y1="62.18" x2="199.54" y2="61.45"/><line class="cls-1" x1="195.03" y1="63.42" x2="199.74" y2="62.68"/><line class="cls-1" x1="195.22" y1="64.66" x2="199.93" y2="63.92"/><line class="cls-1" x1="195.42" y1="65.89" x2="200.12" y2="65.16"/><line class="cls-1" x1="195.61" y1="67.13" x2="200.32" y2="66.39"/><line class="cls-1" x1="195.8" y1="68.37" x2="200.51" y2="67.63"/><line class="cls-1" x1="196" y1="69.6" x2="200.71" y2="68.87"/><line class="cls-1" x1="196.19" y1="70.84" x2="200.9" y2="70.1"/><line class="cls-1" x1="196.39" y1="72.08" x2="201.09" y2="71.34"/><line class="cls-1" x1="196.58" y1="73.31" x2="201.29" y2="72.58"/><line class="cls-1" x1="196.77" y1="74.55" x2="201.48" y2="73.81"/><line class="cls-1" x1="196.97" y1="75.79" x2="201.67" y2="75.05"/><line class="cls-1" x1="197.16" y1="77.02" x2="201.87" y2="76.29"/><line class="cls-1" x1="197.35" y1="78.26" x2="202.06" y2="77.52"/><line class="cls-1" x1="197.55" y1="79.5" x2="202.25" y2="78.76"/><line class="cls-1" x1="197.74" y1="80.73" x2="202.45" y2="80"/><line class="cls-1" x1="197.93" y1="81.97" x2="202.64" y2="81.23"/><line class="cls-1" x1="198.13" y1="83.21" x2="202.83" y2="82.47"/><line class="cls-1" x1="198.32" y1="84.44" x2="203.03" y2="83.71"/><line class="cls-1" x1="198.51" y1="85.68" x2="203.22" y2="84.94"/><line class="cls-1" x1="198.71" y1="86.92" x2="203.42" y2="86.18"/><line class="cls-1" x1="198.9" y1="88.15" x2="203.61" y2="87.42"/><line class="cls-1" x1="199.1" y1="89.39" x2="203.8" y2="88.65"/><line class="cls-1" x1="199.29" y1="90.63" x2="204" y2="89.89"/><line class="cls-1" x1="199.48" y1="91.86" x2="204.19" y2="91.13"/><line class="cls-1" x1="199.68" y1="93.1" x2="204.38" y2="92.36"/><line class="cls-1" x1="199.87" y1="94.34" x2="204.58" y2="93.6"/><line class="cls-1" x1="200.06" y1="95.57" x2="204.77" y2="94.84"/><line class="cls-1" x1="200.26" y1="96.81" x2="204.96" y2="96.07"/><line class="cls-1" x1="200.45" y1="98.05" x2="205.16" y2="97.31"/><line class="cls-1" x1="200.64" y1="99.28" x2="205.35" y2="98.55"/><line class="cls-1" x1="200.84" y1="100.52" x2="205.54" y2="99.78"/><line class="cls-1" x1="201.03" y1="101.76" x2="205.74" y2="101.02"/><line class="cls-1" x1="201.22" y1="102.99" x2="205.93" y2="102.26"/><line class="cls-1" x1="201.42" y1="104.23" x2="206.13" y2="103.49"/><line class="cls-1" x1="201.61" y1="105.47" x2="206.32" y2="104.73"/><line class="cls-1" x1="201.81" y1="106.71" x2="206.51" y2="105.97"/><line class="cls-1" x1="202" y1="107.94" x2="206.71" y2="107.21"/><line class="cls-1" x1="202.19" y1="109.18" x2="206.9" y2="108.44"/><line class="cls-1" x1="202.39" y1="110.42" x2="207.09" y2="109.68"/><line class="cls-1" x1="202.58" y1="111.65" x2="207.29" y2="110.92"/><line class="cls-1" x1="202.77" y1="112.89" x2="207.48" y2="112.15"/><line class="cls-1" x1="202.97" y1="114.13" x2="207.67" y2="113.39"/><line class="cls-1" x1="203.16" y1="115.36" x2="207.87" y2="114.63"/><line class="cls-1" x1="203.35" y1="116.6" x2="208.06" y2="115.86"/><line class="cls-1" x1="203.55" y1="117.84" x2="208.25" y2="117.1"/><line class="cls-1" x1="203.74" y1="119.07" x2="208.45" y2="118.34"/><line class="cls-1" x1="203.93" y1="120.31" x2="208.64" y2="119.57"/><line class="cls-1" x1="204.13" y1="121.55" x2="208.84" y2="120.81"/><line class="cls-1" x1="204.32" y1="122.78" x2="209.03" y2="122.05"/><line class="cls-1" x1="204.52" y1="124.02" x2="209.22" y2="123.28"/><line class="cls-1" x1="204.71" y1="125.26" x2="209.42" y2="124.52"/><line class="cls-1" x1="204.9" y1="126.49" x2="209.61" y2="125.76"/><line class="cls-1" x1="205.1" y1="127.73" x2="209.8" y2="126.99"/><line class="cls-1" x1="205.29" y1="128.97" x2="210" y2="128.23"/><line class="cls-1" x1="205.48" y1="130.2" x2="210.19" y2="129.47"/><line class="cls-1" x1="205.68" y1="131.44" x2="210.38" y2="130.7"/><line class="cls-1" x1="205.87" y1="132.68" x2="210.58" y2="131.94"/><line class="cls-1" x1="206.06" y1="133.91" x2="210.77" y2="133.18"/><line class="cls-1" x1="206.26" y1="135.15" x2="210.97" y2="134.41"/><line class="cls-1" x1="206.45" y1="136.39" x2="211.16" y2="135.65"/><line class="cls-1" x1="206.64" y1="137.62" x2="211.35" y2="136.89"/><line class="cls-1" x1="206.84" y1="138.86" x2="211.55" y2="138.12"/><line class="cls-1" x1="207.03" y1="140.1" x2="211.74" y2="139.36"/><line class="cls-1" x1="207.23" y1="141.33" x2="211.93" y2="140.6"/><line class="cls-1" x1="207.42" y1="142.57" x2="212.13" y2="141.83"/><line class="cls-1" x1="207.61" y1="143.81" x2="212.32" y2="143.07"/><line class="cls-1" x1="207.81" y1="145.04" x2="212.51" y2="144.31"/><line class="cls-1" x1="208" y1="146.28" x2="212.71" y2="145.54"/><line class="cls-1" x1="208.19" y1="147.52" x2="212.9" y2="146.78"/><line class="cls-1" x1="208.39" y1="148.75" x2="213.09" y2="148.02"/><line class="cls-1" x1="208.58" y1="149.99" x2="213.29" y2="149.25"/><line class="cls-1" x1="208.77" y1="151.23" x2="213.48" y2="150.49"/><line class="cls-1" x1="208.97" y1="152.46" x2="213.68" y2="151.73"/><line class="cls-1" x1="209.16" y1="153.7" x2="213.87" y2="152.96"/><line class="cls-1" x1="209.35" y1="154.94" x2="214.06" y2="154.2"/><line class="cls-1" x1="209.55" y1="156.17" x2="214.26" y2="155.44"/><line class="cls-1" x1="209.74" y1="157.41" x2="214.45" y2="156.67"/><line class="cls-1" x1="209.94" y1="158.65" x2="214.64" y2="157.91"/><line class="cls-1" x1="210.13" y1="159.89" x2="214.84" y2="159.15"/><line class="cls-1" x1="210.32" y1="161.12" x2="215.03" y2="160.39"/><line class="cls-1" x1="210.52" y1="162.36" x2="215.22" y2="161.62"/><line class="cls-1" x1="210.71" y1="163.6" x2="215.42" y2="162.86"/><line class="cls-1" x1="210.9" y1="164.83" x2="215.61" y2="164.1"/><line class="cls-1" x1="211.1" y1="166.07" x2="215.8" y2="165.33"/><line class="cls-1" x1="211.29" y1="167.31" x2="216" y2="166.57"/><line class="cls-1" x1="211.48" y1="168.54" x2="216.19" y2="167.81"/><line class="cls-1" x1="211.68" y1="169.78" x2="216.39" y2="169.04"/><line class="cls-1" x1="211.87" y1="171.02" x2="216.58" y2="170.28"/><line class="cls-1" x1="212.07" y1="172.25" x2="216.77" y2="171.52"/><line class="cls-1" x1="212.26" y1="173.49" x2="216.97" y2="172.75"/><line class="cls-1" x1="212.45" y1="174.73" x2="217.16" y2="173.99"/><line class="cls-1" x1="212.65" y1="175.96" x2="217.35" y2="175.23"/><line class="cls-1" x1="212.84" y1="177.2" x2="217.55" y2="176.46"/><line class="cls-1" x1="213.03" y1="178.44" x2="217.74" y2="177.7"/><line class="cls-1" x1="213.23" y1="179.67" x2="217.93" y2="178.94"/><line class="cls-1" x1="213.42" y1="180.91" x2="218.13" y2="180.17"/><line class="cls-1" x1="213.61" y1="182.15" x2="218.32" y2="181.41"/><line class="cls-1" x1="213.81" y1="183.38" x2="218.51" y2="182.65"/><line class="cls-1" x1="214" y1="184.62" x2="218.71" y2="183.88"/><line class="cls-1" x1="214.19" y1="185.86" x2="218.9" y2="185.12"/><line class="cls-1" x1="214.67" y1="187.23" x2="219.41" y2="186.76"/><line class="cls-2" x1="178.1" y1="338.85" x2="182.86" y2="338.85"/><line class="cls-2" x1="178.1" y1="341.09" x2="182.86" y2="341.09"/><line class="cls-2" x1="178.1" y1="343.33" x2="182.86" y2="343.33"/><line class="cls-2" x1="178.1" y1="345.57" x2="182.86" y2="345.57"/><line class="cls-2" x1="178.1" y1="347.81" x2="182.86" y2="347.81"/><line class="cls-2" x1="178.1" y1="350.05" x2="182.86" y2="350.05"/><line class="cls-2" x1="178.1" y1="352.29" x2="182.86" y2="352.29"/><line class="cls-2" x1="178.1" y1="354.53" x2="182.86" y2="354.53"/><line class="cls-2" x1="178.1" y1="356.77" x2="182.86" y2="356.77"/><line class="cls-2" x1="178.1" y1="359.01" x2="182.86" y2="359.01"/><line class="cls-2" x1="178.1" y1="361.25" x2="182.86" y2="361.25"/><line class="cls-2" x1="178.1" y1="363.49" x2="182.86" y2="363.49"/><line class="cls-2" x1="178.1" y1="365.73" x2="182.86" y2="365.73"/><line class="cls-2" x1="178.1" y1="367.97" x2="182.86" y2="367.97"/><line class="cls-2" x1="178.1" y1="370.21" x2="182.86" y2="370.21"/><line class="cls-2" x1="178.1" y1="372.45" x2="182.86" y2="372.45"/><line class="cls-2" x1="178.1" y1="374.69" x2="182.86" y2="374.69"/><line class="cls-2" x1="178.1" y1="376.93" x2="182.86" y2="376.93"/><line class="cls-2" x1="178.1" y1="379.17" x2="182.86" y2="379.17"/><line class="cls-2" x1="178.1" y1="381.41" x2="182.86" y2="381.41"/><line class="cls-2" x1="178.1" y1="383.65" x2="182.86" y2="383.65"/><line class="cls-2" x1="178.1" y1="385.89" x2="182.86" y2="385.89"/><line class="cls-2" x1="178.1" y1="388.13" x2="182.86" y2="388.13"/><line class="cls-2" x1="178.1" y1="390.36" x2="182.86" y2="390.36"/><line class="cls-2" x1="178.1" y1="392.6" x2="182.86" y2="392.6"/><line class="cls-2" x1="178.1" y1="394.84" x2="182.86" y2="394.84"/><line class="cls-2" x1="178.1" y1="397.08" x2="182.86" y2="397.08"/><line class="cls-2" x1="178.1" y1="399.32" x2="182.86" y2="399.32"/><line class="cls-2" x1="178.1" y1="401.56" x2="182.86" y2="401.56"/><line class="cls-2" x1="178.1" y1="403.8" x2="182.86" y2="403.8"/><line class="cls-2" x1="178.1" y1="406.04" x2="182.86" y2="406.04"/><line class="cls-2" x1="178.1" y1="408.28" x2="182.86" y2="408.28"/><line class="cls-2" x1="178.1" y1="410.52" x2="182.86" y2="410.52"/><line class="cls-2" x1="178.1" y1="412.76" x2="182.86" y2="412.76"/><line class="cls-2" x1="178.1" y1="415" x2="182.86" y2="415"/><line class="cls-2" x1="178.1" y1="417.24" x2="182.86" y2="417.24"/><line class="cls-2" x1="178.1" y1="419.48" x2="182.86" y2="419.48"/><line class="cls-2" x1="178.1" y1="421.72" x2="182.86" y2="421.72"/><line class="cls-2" x1="178.1" y1="423.96" x2="182.86" y2="423.96"/><line class="cls-2" x1="178.1" y1="426.2" x2="182.86" y2="426.2"/><line class="cls-2" x1="178.1" y1="428.44" x2="182.86" y2="428.44"/><line class="cls-2" x1="178.1" y1="430.68" x2="182.86" y2="430.68"/><line class="cls-2" x1="178.1" y1="432.92" x2="182.86" y2="432.92"/><line class="cls-2" x1="178.1" y1="435.16" x2="182.86" y2="435.16"/><line class="cls-2" x1="178.1" y1="437.4" x2="182.86" y2="437.4"/><line class="cls-2" x1="178.1" y1="439.64" x2="182.86" y2="439.64"/><line class="cls-2" x1="178.1" y1="441.88" x2="182.86" y2="441.88"/><line class="cls-2" x1="178.1" y1="444.12" x2="182.86" y2="444.12"/><line class="cls-2" x1="178.1" y1="446.36" x2="182.86" y2="446.36"/><line class="cls-2" x1="178.1" y1="448.6" x2="182.86" y2="448.6"/><line class="cls-2" x1="178.1" y1="450.84" x2="182.86" y2="450.84"/><line class="cls-2" x1="178.1" y1="453.08" x2="182.86" y2="453.08"/><line class="cls-2" x1="178.1" y1="455.32" x2="182.86" y2="455.32"/><line class="cls-2" x1="178.1" y1="457.56" x2="182.86" y2="457.56"/><line class="cls-2" x1="178.1" y1="459.8" x2="182.86" y2="459.8"/><line class="cls-2" x1="178.1" y1="462.04" x2="182.86" y2="462.04"/><line class="cls-2" x1="178.1" y1="464.28" x2="182.86" y2="464.28"/><line class="cls-2" x1="178.1" y1="466.52" x2="182.86" y2="466.52"/><line class="cls-2" x1="178.1" y1="468.76" x2="182.86" y2="468.76"/><line class="cls-2" x1="178.1" y1="471" x2="182.86" y2="471"/><line class="cls-2" x1="178.1" y1="473.24" x2="182.86" y2="473.24"/><line class="cls-2" x1="178.1" y1="475.48" x2="182.86" y2="475.48"/><line class="cls-2" x1="178.1" y1="477.72" x2="182.86" y2="477.72"/><line class="cls-2" x1="178.1" y1="479.96" x2="182.86" y2="479.96"/><line class="cls-2" x1="178.1" y1="482.2" x2="182.86" y2="482.2"/><line class="cls-2" x1="155.26" y1="39.36" x2="159.97" y2="38.64"/><line class="cls-2" x1="154.88" y1="37.15" x2="159.59" y2="36.42"/><line class="cls-2" x1="154.58" y1="34.93" x2="159.28" y2="34.21"/><line class="cls-2" x1="154.27" y1="32.72" x2="158.98" y2="32"/><line class="cls-2" x1="153.96" y1="30.51" x2="158.67" y2="29.78"/><line class="cls-2" x1="153.65" y1="28.29" x2="158.36" y2="27.57"/><line class="cls-2" x1="153.35" y1="26.08" x2="158.06" y2="25.35"/><line class="cls-2" x1="153.04" y1="23.87" x2="157.75" y2="23.14"/><line class="cls-2" x1="152.73" y1="21.65" x2="157.44" y2="20.93"/><line class="cls-2" x1="152.43" y1="19.44" x2="157.13" y2="18.71"/><line class="cls-2" x1="152.12" y1="17.23" x2="156.83" y2="16.5"/><line class="cls-2" x1="151.81" y1="15.01" x2="156.52" y2="14.29"/><line class="cls-2" x1="151.5" y1="12.8" x2="156.21" y2="12.07"/><line class="cls-2" x1="151.2" y1="10.58" x2="155.91" y2="9.86"/><line class="cls-2" x1="150.89" y1="8.37" x2="155.6" y2="7.65"/><line class="cls-2" x1="150.58" y1="6.16" x2="155.29" y2="5.43"/><line class="cls-2" x1="150.28" y1="3.94" x2="154.98" y2="3.22"/><line class="cls-2" x1="155.6" y1="41.58" x2="160.31" y2="40.85"/><line class="cls-2" x1="155.94" y1="43.79" x2="160.65" y2="43.06"/><line class="cls-2" x1="156.28" y1="46" x2="160.99" y2="45.28"/><line class="cls-2" x1="156.62" y1="48.22" x2="161.33" y2="47.49"/><line class="cls-2" x1="156.96" y1="50.43" x2="161.67" y2="49.7"/><line class="cls-2" x1="157.31" y1="52.64" x2="162.01" y2="51.92"/><line class="cls-2" x1="157.65" y1="54.86" x2="162.36" y2="54.13"/><line class="cls-2" x1="157.99" y1="57.07" x2="162.7" y2="56.35"/><line class="cls-2" x1="158.33" y1="59.29" x2="163.04" y2="58.56"/><line class="cls-2" x1="158.67" y1="61.5" x2="163.38" y2="60.77"/><line class="cls-2" x1="159.01" y1="63.71" x2="163.72" y2="62.99"/><line class="cls-2" x1="159.35" y1="65.93" x2="164.06" y2="65.2"/><line class="cls-2" x1="159.69" y1="68.14" x2="164.4" y2="67.41"/><line class="cls-2" x1="160.04" y1="70.35" x2="164.74" y2="69.63"/><line class="cls-2" x1="160.38" y1="72.57" x2="165.09" y2="71.84"/><line class="cls-2" x1="160.72" y1="74.78" x2="165.43" y2="74.06"/><line class="cls-2" x1="161.06" y1="76.99" x2="165.77" y2="76.27"/><line class="cls-2" x1="161.4" y1="79.21" x2="166.11" y2="78.48"/><line class="cls-2" x1="161.74" y1="81.42" x2="166.45" y2="80.7"/><line class="cls-2" x1="162.08" y1="83.64" x2="166.79" y2="82.91"/><line class="cls-2" x1="162.42" y1="85.85" x2="167.13" y2="85.12"/><line class="cls-2" x1="162.77" y1="88.06" x2="167.47" y2="87.34"/><line class="cls-2" x1="163.11" y1="90.28" x2="167.82" y2="89.55"/><line class="cls-2" x1="163.45" y1="92.49" x2="168.16" y2="91.76"/><line class="cls-2" x1="163.79" y1="94.7" x2="168.5" y2="93.98"/><line class="cls-2" x1="164.13" y1="96.92" x2="168.84" y2="96.19"/><line class="cls-2" x1="164.47" y1="99.13" x2="169.18" y2="98.41"/><line class="cls-2" x1="164.81" y1="101.34" x2="169.52" y2="100.62"/><line class="cls-2" x1="165.15" y1="103.56" x2="169.86" y2="102.83"/><line class="cls-2" x1="165.5" y1="105.77" x2="170.2" y2="105.05"/><line class="cls-2" x1="165.84" y1="107.99" x2="170.55" y2="107.26"/><line class="cls-2" x1="166.18" y1="110.2" x2="170.89" y2="109.47"/><line class="cls-2" x1="166.52" y1="112.41" x2="171.23" y2="111.69"/><line class="cls-2" x1="166.86" y1="114.63" x2="171.57" y2="113.9"/><line class="cls-2" x1="167.2" y1="116.84" x2="171.91" y2="116.11"/><line class="cls-2" x1="167.54" y1="119.05" x2="172.25" y2="118.33"/><line class="cls-2" x1="167.88" y1="121.27" x2="172.59" y2="120.54"/><line class="cls-2" x1="168.23" y1="123.48" x2="172.93" y2="122.76"/><line class="cls-2" x1="168.57" y1="125.7" x2="173.28" y2="124.97"/><line class="cls-2" x1="168.91" y1="127.91" x2="173.62" y2="127.18"/><line class="cls-2" x1="169.25" y1="130.12" x2="173.96" y2="129.4"/><line class="cls-2" x1="169.59" y1="132.34" x2="174.3" y2="131.61"/><line class="cls-2" x1="169.93" y1="134.55" x2="174.64" y2="133.82"/><line class="cls-2" x1="170.27" y1="136.76" x2="174.98" y2="136.04"/><line class="cls-2" x1="170.61" y1="138.98" x2="175.32" y2="138.25"/><line class="cls-2" x1="170.95" y1="141.19" x2="175.66" y2="140.47"/><line class="cls-2" x1="171.3" y1="143.4" x2="176.01" y2="142.68"/><line class="cls-2" x1="171.64" y1="145.62" x2="176.35" y2="144.89"/><line class="cls-2" x1="171.98" y1="147.83" x2="176.69" y2="147.11"/><line class="cls-2" x1="172.32" y1="150.05" x2="177.03" y2="149.32"/><line class="cls-2" x1="172.66" y1="152.26" x2="177.37" y2="151.53"/><line class="cls-2" x1="173" y1="154.47" x2="177.71" y2="153.75"/><line class="cls-2" x1="173.34" y1="156.69" x2="178.05" y2="155.96"/><line class="cls-2" x1="173.68" y1="158.9" x2="178.39" y2="158.17"/><line class="cls-2" x1="174.03" y1="161.11" x2="178.74" y2="160.39"/><line class="cls-2" x1="174.37" y1="163.33" x2="179.08" y2="162.6"/><line class="cls-2" x1="174.71" y1="165.54" x2="179.42" y2="164.82"/><line class="cls-2" x1="175.05" y1="167.76" x2="179.76" y2="167.03"/><line class="cls-2" x1="175.39" y1="169.97" x2="180.1" y2="169.24"/><line class="cls-2" x1="175.73" y1="172.18" x2="180.44" y2="171.46"/><line class="cls-2" x1="176.07" y1="174.4" x2="180.78" y2="173.67"/><line class="cls-2" x1="176.41" y1="176.61" x2="181.12" y2="175.88"/><line class="cls-2" x1="176.76" y1="178.82" x2="181.46" y2="178.1"/><line class="cls-2" x1="177.1" y1="181.04" x2="181.81" y2="180.31"/><line class="cls-2" x1="177.44" y1="183.25" x2="182.15" y2="182.52"/><line class="cls-2" x1="177.78" y1="185.46" x2="182.49" y2="184.74"/><line class="cls-10" x1="141.24" y1="229.75" x2="147.35" y2="229.75"/><line class="cls-10" x1="141.24" y1="233.25" x2="147.35" y2="233.25"/><line class="cls-10" x1="141.24" y1="236.75" x2="147.35" y2="236.75"/><line class="cls-10" x1="141.24" y1="240.25" x2="147.35" y2="240.25"/><line class="cls-10" x1="141.24" y1="243.76" x2="147.35" y2="243.76"/><line class="cls-10" x1="141.24" y1="247.26" x2="147.35" y2="247.26"/><line class="cls-10" x1="141.24" y1="250.76" x2="147.35" y2="250.76"/><line class="cls-10" x1="141.24" y1="254.26" x2="147.35" y2="254.26"/><line class="cls-10" x1="141.24" y1="257.77" x2="147.35" y2="257.77"/><line class="cls-10" x1="141.24" y1="261.27" x2="147.35" y2="261.27"/><line class="cls-10" x1="141.24" y1="264.77" x2="147.35" y2="264.77"/><line class="cls-10" x1="141.24" y1="268.27" x2="147.35" y2="268.27"/><line class="cls-10" x1="141.24" y1="271.77" x2="147.35" y2="271.77"/><line class="cls-10" x1="141.24" y1="275.28" x2="147.35" y2="275.28"/><line class="cls-10" x1="141.24" y1="278.78" x2="147.35" y2="278.78"/><line class="cls-10" x1="141.24" y1="282.28" x2="147.35" y2="282.28"/><line class="cls-10" x1="141.24" y1="285.78" x2="147.35" y2="285.78"/><line class="cls-10" x1="141.24" y1="289.29" x2="147.35" y2="289.29"/><line class="cls-10" x1="141.24" y1="292.79" x2="147.35" y2="292.79"/><line class="cls-10" x1="141.24" y1="296.29" x2="147.35" y2="296.29"/><line class="cls-10" x1="141.24" y1="299.79" x2="147.35" y2="299.79"/><line class="cls-10" x1="141.24" y1="303.3" x2="147.35" y2="303.3"/><line class="cls-10" x1="141.24" y1="306.8" x2="147.35" y2="306.8"/><line class="cls-10" x1="141.24" y1="310.3" x2="147.35" y2="310.3"/><line class="cls-10" x1="141.24" y1="313.8" x2="147.35" y2="313.8"/><line class="cls-10" x1="141.24" y1="317.3" x2="147.35" y2="317.3"/><line class="cls-10" x1="141.24" y1="320.81" x2="147.35" y2="320.81"/><line class="cls-10" x1="141.24" y1="324.31" x2="147.35" y2="324.31"/><line class="cls-10" x1="141.24" y1="327.81" x2="147.35" y2="327.81"/><line class="cls-10" x1="141.24" y1="331.31" x2="147.35" y2="331.31"/><line class="cls-10" x1="141.24" y1="334.82" x2="147.35" y2="334.82"/><line class="cls-10" x1="141.24" y1="338.32" x2="147.35" y2="338.32"/><line class="cls-10" x1="141.24" y1="341.82" x2="147.35" y2="341.82"/><line class="cls-10" x1="141.24" y1="345.32" x2="147.35" y2="345.32"/><line class="cls-10" x1="141.24" y1="348.82" x2="147.35" y2="348.82"/><line class="cls-10" x1="141.24" y1="352.33" x2="147.35" y2="352.33"/><line class="cls-10" x1="141.24" y1="355.83" x2="147.35" y2="355.83"/><line class="cls-10" x1="141.24" y1="359.33" x2="147.35" y2="359.33"/><line class="cls-10" x1="141.24" y1="362.83" x2="147.35" y2="362.83"/><line class="cls-10" x1="141.24" y1="366.34" x2="147.35" y2="366.34"/><line class="cls-10" x1="141.24" y1="369.84" x2="147.35" y2="369.84"/><line class="cls-10" x1="141.24" y1="373.34" x2="147.35" y2="373.34"/><line class="cls-10" x1="141.24" y1="376.84" x2="147.35" y2="376.84"/><line class="cls-10" x1="141.24" y1="380.34" x2="147.35" y2="380.34"/><line class="cls-10" x1="141.24" y1="383.85" x2="147.35" y2="383.85"/><line class="cls-10" x1="141.24" y1="387.35" x2="147.35" y2="387.35"/><line class="cls-10" x1="141.24" y1="390.85" x2="147.35" y2="390.85"/><line class="cls-10" x1="141.24" y1="394.35" x2="147.35" y2="394.35"/><line class="cls-10" x1="141.24" y1="397.86" x2="147.35" y2="397.86"/><line class="cls-10" x1="141.24" y1="401.36" x2="147.35" y2="401.36"/><line class="cls-10" x1="141.23" y1="404.86" x2="147.34" y2="404.86"/><line class="cls-10" x1="141.22" y1="408.36" x2="147.33" y2="408.36"/><line class="cls-10" x1="141.21" y1="411.87" x2="147.32" y2="411.87"/><line class="cls-10" x1="141.2" y1="415.37" x2="147.31" y2="415.37"/><line class="cls-10" x1="141.19" y1="418.87" x2="147.3" y2="418.87"/><line class="cls-10" x1="141.18" y1="422.37" x2="147.29" y2="422.37"/><line class="cls-10" x1="141.17" y1="425.87" x2="147.28" y2="425.87"/><line class="cls-10" x1="141.16" y1="429.38" x2="147.27" y2="429.38"/><line class="cls-10" x1="141.16" y1="432.88" x2="147.26" y2="432.88"/><line class="cls-10" x1="141.15" y1="436.38" x2="147.25" y2="436.38"/><line class="cls-10" x1="141.14" y1="439.88" x2="147.24" y2="439.88"/><line class="cls-10" x1="141.13" y1="443.39" x2="147.24" y2="443.39"/><line class="cls-10" x1="141.12" y1="446.89" x2="147.23" y2="446.89"/><line class="cls-10" x1="141.12" y1="450.39" x2="147.23" y2="450.39"/><line class="cls-10" x1="141.12" y1="453.89" x2="147.23" y2="453.89"/><line class="cls-10" x1="141.12" y1="457.39" x2="147.23" y2="457.39"/><line class="cls-10" x1="141.12" y1="460.9" x2="147.23" y2="460.9"/><line class="cls-10" x1="141.12" y1="464.4" x2="147.23" y2="464.4"/><line class="cls-10" x1="141.12" y1="467.9" x2="147.23" y2="467.9"/><line class="cls-10" x1="141.12" y1="471.4" x2="147.23" y2="471.4"/><line class="cls-10" x1="141.12" y1="474.91" x2="147.23" y2="474.91"/><line class="cls-10" x1="141.12" y1="478.41" x2="147.23" y2="478.41"/><line class="cls-10" x1="141.12" y1="481.91" x2="147.23" y2="481.91"/><polyline class="cls-12" points="254.39 482.99 254.96 185.51 285.74 1.98"/><polyline class="cls-13" points="292.15 482.99 292.53 188.34 317.01 1.98"/><polyline class="cls-14" points="329.72 482.99 330.11 187.9 357.1 1.98"/><polyline class="cls-15" points="292.13 0.82 482.17 0.82 482.17 482.99 0 482.99 0 0.82 182.66 0.82"/><line class="cls-15" x1="182.66" y1="0.82" x2="292.13" y2="0.82"/><line class="cls-9" x1="144.41" y1="187.72" x2="120.87" y2="2.15"/><line class="cls-10" x1="122.48" y1="38.29" x2="128.56" y2="37.72"/><line class="cls-10" x1="122.05" y1="34.82" x2="128.13" y2="34.25"/><line class="cls-10" x1="121.61" y1="31.34" x2="127.7" y2="30.77"/><line class="cls-10" x1="121.18" y1="27.87" x2="127.26" y2="27.3"/><line class="cls-10" x1="120.75" y1="24.39" x2="126.83" y2="23.82"/><line class="cls-10" x1="120.31" y1="20.92" x2="126.39" y2="20.35"/><line class="cls-10" x1="119.88" y1="17.44" x2="125.96" y2="16.87"/><line class="cls-10" x1="119.44" y1="13.97" x2="125.52" y2="13.4"/><line class="cls-10" x1="119.01" y1="10.49" x2="125.09" y2="9.92"/><line class="cls-10" x1="118.57" y1="7.02" x2="124.66" y2="6.45"/><line class="cls-10" x1="118.14" y1="3.54" x2="124.22" y2="2.97"/><line class="cls-10" x1="141.24" y1="187.72" x2="147.35" y2="187.72"/><line class="cls-10" x1="140.87" y1="184.28" x2="146.96" y2="183.72"/><line class="cls-10" x1="140.29" y1="180.77" x2="146.37" y2="180.2"/><line class="cls-10" x1="139.86" y1="177.3" x2="145.94" y2="176.73"/><line class="cls-10" x1="139.42" y1="173.82" x2="145.51" y2="173.25"/><line class="cls-10" x1="138.99" y1="170.35" x2="145.07" y2="169.78"/><line class="cls-10" x1="138.56" y1="166.87" x2="144.64" y2="166.3"/><line class="cls-10" x1="138.12" y1="163.39" x2="144.2" y2="162.83"/><line class="cls-10" x1="137.69" y1="159.92" x2="143.77" y2="159.35"/><line class="cls-10" x1="137.25" y1="156.44" x2="143.33" y2="155.88"/><line class="cls-10" x1="136.82" y1="152.97" x2="142.9" y2="152.4"/><line class="cls-10" x1="136.38" y1="149.49" x2="142.47" y2="148.93"/><line class="cls-10" x1="135.95" y1="146.02" x2="142.03" y2="145.45"/><line class="cls-10" x1="135.51" y1="142.54" x2="141.6" y2="141.98"/><line class="cls-10" x1="135.08" y1="139.07" x2="141.16" y2="138.5"/><line class="cls-10" x1="134.65" y1="135.59" x2="140.73" y2="135.03"/><line class="cls-10" x1="134.21" y1="132.12" x2="140.29" y2="131.55"/><line class="cls-10" x1="133.78" y1="128.64" x2="139.86" y2="128.08"/><line class="cls-10" x1="133.34" y1="125.17" x2="139.42" y2="124.6"/><line class="cls-10" x1="132.91" y1="121.69" x2="138.99" y2="121.13"/><line class="cls-10" x1="132.47" y1="118.22" x2="138.56" y2="117.65"/><line class="cls-10" x1="132.04" y1="114.74" x2="138.12" y2="114.18"/><line class="cls-10" x1="131.6" y1="111.27" x2="137.69" y2="110.7"/><line class="cls-10" x1="131.17" y1="107.79" x2="137.25" y2="107.23"/><line class="cls-10" x1="130.74" y1="104.32" x2="136.82" y2="103.75"/><line class="cls-10" x1="130.3" y1="100.84" x2="136.38" y2="100.28"/><line class="cls-10" x1="129.87" y1="97.37" x2="135.95" y2="96.8"/><line class="cls-10" x1="129.43" y1="93.89" x2="135.52" y2="93.33"/><line class="cls-10" x1="129" y1="90.42" x2="135.08" y2="89.85"/><line class="cls-10" x1="128.56" y1="86.94" x2="134.65" y2="86.38"/><line class="cls-10" x1="128.13" y1="83.47" x2="134.21" y2="82.9"/><line class="cls-10" x1="127.7" y1="79.99" x2="133.78" y2="79.43"/><line class="cls-10" x1="127.26" y1="76.52" x2="133.34" y2="75.95"/><line class="cls-10" x1="126.83" y1="73.04" x2="132.91" y2="72.48"/><line class="cls-10" x1="126.39" y1="69.57" x2="132.47" y2="69"/><line class="cls-10" x1="125.96" y1="66.09" x2="132.04" y2="65.53"/><line class="cls-10" x1="125.52" y1="62.62" x2="131.61" y2="62.05"/><line class="cls-10" x1="125.09" y1="59.14" x2="131.17" y2="58.58"/><line class="cls-10" x1="124.65" y1="55.67" x2="130.74" y2="55.1"/><line class="cls-10" x1="124.22" y1="52.19" x2="130.3" y2="51.63"/><line class="cls-10" x1="123.79" y1="48.72" x2="129.87" y2="48.15"/><line class="cls-10" x1="123.35" y1="45.24" x2="129.43" y2="44.68"/><line class="cls-10" x1="122.92" y1="41.77" x2="129" y2="41.2"/><line class="cls-10" x1="122.48" y1="38.29" x2="128.56" y2="37.72"/><line class="cls-10" x1="122.05" y1="34.82" x2="128.13" y2="34.25"/><line class="cls-10" x1="121.61" y1="31.34" x2="127.69" y2="30.77"/><line class="cls-10" x1="121.18" y1="27.87" x2="127.26" y2="27.3"/><line class="cls-10" x1="120.74" y1="24.39" x2="126.83" y2="23.82"/><line class="cls-10" x1="120.31" y1="20.92" x2="126.39" y2="20.35"/><line class="cls-10" x1="119.87" y1="17.44" x2="125.96" y2="16.87"/><line class="cls-10" x1="119.44" y1="13.97" x2="125.52" y2="13.4"/><line class="cls-10" x1="119" y1="10.49" x2="125.09" y2="9.92"/><line class="cls-10" x1="118.57" y1="7.02" x2="124.65" y2="6.45"/><line class="cls-10" x1="118.13" y1="3.54" x2="124.22" y2="2.97"/></g></g></svg>