<svg xmlns="http://www.w3.org/2000/svg" viewBox="0 0 629.24 629.24"><defs><style>.cls-1,.cls-3,.cls-4,.cls-5{fill:none;}.cls-1,.cls-2,.cls-4{stroke:#000;}.cls-1,.cls-2,.cls-3,.cls-4{stroke-miterlimit:10;}.cls-1,.cls-2{stroke-width:0.76px;}.cls-2{fill:#fff;}.cls-3{stroke:#29abe2;stroke-width:2.22px;}.cls-4{stroke-width:0.18px;stroke-dasharray:3.7 3.7 3.7 3.7 3.7 3.7;}</style></defs><title>Tuning Gears</title><g id="Layer_2" data-name="Layer 2"><g id="Tracing"><path class="cls-1" d="M314.83,577.89H242.71l-18.86-50.22a73.78,73.78,0,0,1-4.56-21.56L194.68,77.63c-.56-9.61,6.18-17.75,14.68-17.75H420.29c8.51,0,15.24,8.14,14.69,17.75L410.36,506.11a73.14,73.14,0,0,1-4.56,21.56L387,577.89H314.83"/><ellipse class="cls-2" cx="395.73" cy="162.46" rx="14.05" ry="1.67" transform="translate(134.11 500.91) rotate(-74.62)"/><path class="cls-3" d="M314.55,578.25H242.43L223.58,528A73.14,73.14,0,0,1,219,506.47L194.4,78c-.55-9.61,6.18-17.75,14.69-17.75H420c8.5,0,15.24,8.14,14.68,17.75L410.09,506.47A73.46,73.46,0,0,1,405.53,528l-18.86,50.22H314.55"/><path class="cls-4" d="M429.68,69.45,405.11,496.71a69.53,69.53,0,0,1-4.32,20.45l-17.87,47.6H246.19l-17.87-47.6A69.54,69.54,0,0,1,224,496.71L199.62,71.14"/><path class="cls-4" d="M204.76,65.84,229,487a65.92,65.92,0,0,0,4.08,19.32l16.9,45H379.16l16.89-45A65.61,65.61,0,0,0,400.14,487l24-421.12"/><path class="cls-4" d="M418.83,65.84,395.15,477.19a62,62,0,0,1-3.85,18.19l-15.91,42.36H253.71L237.8,495.38A62,62,0,0,1,234,477.19L210.3,65.71"/><path class="cls-4" d="M215.85,65.71l23,401.9a57.82,57.82,0,0,0,3.61,17.09l14.94,39.79H371.7l14.95-39.79a58.14,58.14,0,0,0,3.61-17.09L413.53,65.84"/><path class="cls-4" d="M221.39,65.69l22.44,392.16a54.21,54.21,0,0,0,3.37,16l14,37.18H367.94l14-37.18a54.22,54.22,0,0,0,3.38-16l22.46-392"/><path class="cls-4" d="M402.44,65.35,380.39,448.27a50.49,50.49,0,0,1-3.14,14.86l-13,34.61h-99.4l-13-34.61a50.82,50.82,0,0,1-3.15-14.86l-22-382.43"/><path class="cls-4" d="M232.24,65.59,253.7,438.5a46.81,46.81,0,0,0,2.9,13.74l12,32h91.88l12-32a46.51,46.51,0,0,0,2.91-13.74L397.14,65.35"/><path class="cls-4" d="M391.35,65.84l-20.92,362.9a42.83,42.83,0,0,1-2.67,12.61l-11,29.37H272.37l-11-29.37a42.83,42.83,0,0,1-2.67-12.61L237.79,65.59"/><path class="cls-4" d="M243.33,65.84l20.24,353.32A38.78,38.78,0,0,0,266,430.67l10.06,26.8h77l10.07-26.8a39.42,39.42,0,0,0,2.43-11.51L386.05,65.84"/><path class="cls-4" d="M380.26,65.84,360.56,409.4a35.5,35.5,0,0,1-2.2,10.38L349.28,444H279.82l-9.08-24.19a35.17,35.17,0,0,1-2.19-10.38L248.88,65.84"/><path class="cls-4" d="M254.26,65.84l19.27,333.8a31.32,31.32,0,0,0,2,9.26l8.1,21.56h61.93l8.1-21.56a31.63,31.63,0,0,0,1.95-9.26L375,65.84"/><path class="cls-4" d="M369.17,66.32,350.69,390.06a27.53,27.53,0,0,1-1.73,8.16l-7.13,19H287.27l-7.13-19a27.84,27.84,0,0,1-1.72-8.16L259.72,65.84"/><path class="cls-4" d="M265,65.59l18.37,314.7a23.92,23.92,0,0,0,1.49,7L291,403.7h47l6.15-16.37a23.92,23.92,0,0,0,1.49-7l17.68-314"/><path class="cls-4" d="M358.08,65.84,340.82,370.72a20.38,20.38,0,0,1-1.25,5.93l-5.19,13.8H294.73l-5.19-13.8a20.06,20.06,0,0,1-1.25-5.93L271,65.84"/><path class="cls-4" d="M276.12,65.84l17.05,295.3a16.66,16.66,0,0,0,1,4.83l4.22,11.24h32.28L334.91,366a16.34,16.34,0,0,0,1-4.83l16.85-295.3"/><path class="cls-4" d="M281.9,65.84l16.26,285.54a12.41,12.41,0,0,0,.78,3.7l3.24,8.62h24.75l3.24-8.62a12.73,12.73,0,0,0,.78-3.7L347.48,65.84"/><path class="cls-4" d="M287.21,65.67l15.93,275.94a8.8,8.8,0,0,0,.54,2.58l2.26,6h17.23l2.25-6a8.81,8.81,0,0,0,.55-2.58l15.72-276"/><path class="cls-4" d="M293.07,65.67,308.7,330.72A4.27,4.27,0,0,0,309,332l1.15,3.08H319l1.16-3.08a4.57,4.57,0,0,0,.28-1.32L335.9,65.59"/><line class="cls-4" x1="329.07" y1="65.67" x2="315.43" y2="320.96"/><line class="cls-4" x1="323.37" y1="65.35" x2="315.43" y2="209.58"/><line class="cls-4" x1="313.68" y1="320.96" x2="299.9" y2="65.67"/><line class="cls-4" x1="316.09" y1="248.15" x2="306.49" y2="65.35"/><line class="cls-4" x1="314.21" y1="65.59" x2="314.69" y2="156.48"/><circle class="cls-2" cx="362.05" cy="159.87" r="4.2"/><circle class="cls-2" cx="382.79" cy="218.41" r="6.94"/><path class="cls-2" d="M384.46,231.24c5.27-7.41,15.65-13.15,21.13-15.81a6,6,0,0,0,3.32-5.69c-1.4-25.7.37-57,4.23-65.37a1.61,1.61,0,0,0-1-2.22c-3.88-1.09-12.33-4.5-21-14.74a2.46,2.46,0,0,0-3.5-.25c-10,8.89-18.88,11-22.88,11.56a1.62,1.62,0,0,0-1.35,2.05c2.62,8.81-.12,40.07-5.21,65.3a6,6,0,0,0,2.47,6.11c5,3.42,14.48,10.6,18.63,18.69A3,3,0,0,0,384.46,231.24Z"/><circle class="cls-2" cx="388.63" cy="137.7" r="6.94"/><path class="cls-2" d="M404.22,188.12c-.09,1-4.3,1.27-4.56,2.21s3.23,3.33,2.81,4.22-4.47-.29-5,.52,1.9,4.22,1.19,4.92-4.09-1.8-4.91-1.23.35,4.62-.56,5-3.22-3.1-4.19-2.84-1.25,4.45-2.26,4.54-1.95-4-3-4.11-2.71,3.76-3.66,3.5-.5-4.45-1.39-4.87-3.83,2.6-4.64,2,1.06-4.35.36-5.06-4.49,1.15-5.06.33,2.49-3.72,2.07-4.63-4.61-.45-4.86-1.42,3.61-2.63,3.53-3.64-4.18-2-4.08-3,4.3-1.27,4.55-2.21-3.23-3.33-2.81-4.22,4.47.29,5-.52-1.89-4.22-1.19-4.92,4.1,1.8,4.92,1.23-.35-4.62.55-5,3.23,3.1,4.2,2.84,1.25-4.45,2.25-4.54,2,4,3,4.11,2.72-3.76,3.67-3.5.49,4.45,1.39,4.87,3.83-2.6,4.64-2-1.07,4.35-.37,5.06,4.49-1.14,5.06-.33-2.49,3.72-2.07,4.63,4.61.45,4.87,1.43-3.61,2.63-3.53,3.63S404.31,187.11,404.22,188.12Z"/><line class="cls-2" x1="388.81" y1="179.52" x2="388.7" y2="179.65"/><line class="cls-2" x1="391.15" y1="181.77" x2="391.27" y2="181.64"/><path class="cls-2" d="M390.83,191.33a7.62,7.62,0,0,0,.32-9.56l-9.74,11.28A7.63,7.63,0,0,0,390.83,191.33Z"/><path class="cls-2" d="M379.29,181.36a7.64,7.64,0,0,0-.33,9.57l9.74-11.28A7.63,7.63,0,0,0,379.29,181.36Z"/><line class="cls-2" x1="388.7" y1="179.65" x2="378.96" y2="190.93"/><line class="cls-2" x1="381.41" y1="193.05" x2="391.15" y2="181.77"/><circle class="cls-2" cx="382.79" cy="218.41" r="6.94"/><path class="cls-2" d="M387.77,216.73l-3.06.26a.84.84,0,0,1-.91-.76l-.28-3-2.41.22.28,3a.83.83,0,0,1-.75.91l-3.05.32.22,2.4,3.05-.28a.83.83,0,0,1,.92.76l.29,3.05,2.4-.23-.28-3.07a.84.84,0,0,1,.76-.92l3.05-.26Z"/><path class="cls-2" d="M393.73,138.94,391,137.53a.86.86,0,0,1-.37-1.14l1.38-2.7-2.16-1.1-1.37,2.71a.85.85,0,0,1-1.13.37l-2.75-1.36-1.09,2.15,2.73,1.39a.85.85,0,0,1,.37,1.13l-1.39,2.73,2.16,1.1,1.39-2.75a.85.85,0,0,1,1.15-.37l2.71,1.4Z"/><path class="cls-2" d="M484.21,160.57h0a92.14,92.14,0,0,0-1.31-11.25,15.83,15.83,0,0,0-14.48-13h-.12a15.84,15.84,0,0,0-16.19,10.79c-.59,1.82-1.13,3.6-1.6,5.36a7,7,0,0,1-7.26,5.17l-.38,0-1.22,16.88h0a7,7,0,0,1,6.45,6.29c.2,2.06.47,4.17.83,6.33a17.21,17.21,0,0,0,11.7,13.64,11.76,11.76,0,0,0,3,.59h.12a16.07,16.07,0,0,0,16.26-11.19,91.1,91.1,0,0,0,3.19-12.67h0a2,2,0,0,0,2.12-1.84l.92-12.67A2.24,2.24,0,0,0,484.21,160.57Z"/><rect class="cls-2" x="414.12" y="159.57" width="28.14" height="10.17" transform="translate(12.98 -30.44) rotate(4.13)"/><path class="cls-2" d="M412.33,154.82A5.8,5.8,0,0,0,407,151.2a5.92,5.92,0,0,0-5.84,5.57l-.06.83-27.66-2,.06-.83a5.92,5.92,0,0,0-5-6.35,5.81,5.81,0,0,0-6,3.25,4.5,4.5,0,0,1-1.16,1.44,3.78,3.78,0,0,0-1.33,2.61l-.57,8a3.76,3.76,0,0,0,.93,2.78,4.52,4.52,0,0,1,1,1.59,5.81,5.81,0,0,0,5.49,4.09,5.93,5.93,0,0,0,5.86-5.57l.06-.83,27.66,2-.06.83a5.92,5.92,0,0,0,5,6.35,5.81,5.81,0,0,0,5.81-2.82,7,7,0,0,1,1.47-1.86,3.75,3.75,0,0,0,1.32-2.62l.58-8a3.8,3.8,0,0,0-.94-2.78A7.26,7.26,0,0,1,412.33,154.82Z"/><path class="cls-2" d="M388.19,168.53a1.52,1.52,0,0,1-2.87-.79l3.38-12.28a1.52,1.52,0,0,1,2.87.79Q389.88,162.39,388.19,168.53Z"/><ellipse class="cls-2" cx="381.28" cy="161.49" rx="14.05" ry="1.67" transform="translate(124.43 486.27) rotate(-74.62)"/><circle class="cls-2" cx="353.1" cy="428.95" r="4.2"/><circle class="cls-2" cx="373.84" cy="487.49" r="6.94"/><path class="cls-2" d="M375.51,500.32c5.27-7.42,15.65-13.15,21.13-15.82a6,6,0,0,0,3.32-5.69c-1.4-25.7.37-57,4.23-65.37a1.61,1.61,0,0,0-1-2.22c-3.88-1.09-12.34-4.5-21-14.73a2.45,2.45,0,0,0-3.49-.26c-10,8.89-18.88,11-22.88,11.57a1.62,1.62,0,0,0-1.35,2.05c2.62,8.81-.13,40.07-5.21,65.3a6,6,0,0,0,2.47,6.11c5,3.42,14.48,10.59,18.63,18.68A3,3,0,0,0,375.51,500.32Z"/><path class="cls-2" d="M395.27,457.19c-.1,1-4.3,1.27-4.56,2.22s3.23,3.32,2.81,4.22-4.47-.29-5,.51,1.9,4.23,1.19,4.93-4.09-1.8-4.91-1.24.35,4.62-.56,5S381,469.78,380,470s-1.24,4.46-2.25,4.54-2-4-3-4.11-2.72,3.76-3.66,3.51-.5-4.46-1.39-4.88-3.84,2.61-4.65,2,1.07-4.34.37-5.05-4.49,1.14-5.06.32,2.49-3.72,2.07-4.62-4.61-.46-4.87-1.43,3.62-2.63,3.53-3.64-4.17-2-4.08-3,4.3-1.27,4.56-2.22-3.23-3.32-2.81-4.21,4.47.29,5-.52-1.9-4.23-1.19-4.93,4.1,1.81,4.91,1.24-.35-4.62.56-5,3.23,3.09,4.2,2.84,1.24-4.46,2.25-4.54,2,4,3,4.11,2.72-3.76,3.66-3.5.5,4.45,1.39,4.87,3.84-2.6,4.65-2-1.07,4.35-.37,5.05,4.49-1.14,5.06-.32-2.49,3.72-2.07,4.63,4.61.45,4.87,1.42-3.62,2.63-3.53,3.64S395.36,456.18,395.27,457.19Z"/><line class="cls-2" x1="379.86" y1="448.6" x2="379.75" y2="448.73"/><line class="cls-2" x1="382.2" y1="450.85" x2="382.32" y2="450.71"/><path class="cls-2" d="M381.87,460.41a7.62,7.62,0,0,0,.33-9.56l-9.74,11.27A7.63,7.63,0,0,0,381.87,460.41Z"/><path class="cls-2" d="M370.33,450.44A7.64,7.64,0,0,0,370,460l9.74-11.27A7.63,7.63,0,0,0,370.33,450.44Z"/><line class="cls-2" x1="379.75" y1="448.73" x2="370.01" y2="460"/><line class="cls-2" x1="372.46" y1="462.12" x2="382.2" y2="450.85"/><circle class="cls-2" cx="373.84" cy="487.49" r="6.94"/><path class="cls-2" d="M378.82,485.8l-3.06.27a.84.84,0,0,1-.91-.77l-.29-3-2.4.23.28,3a.84.84,0,0,1-.75.92l-3.06.31.23,2.41,3.05-.29a.86.86,0,0,1,.92.76l.29,3.05,2.4-.23-.29-3.07a.85.85,0,0,1,.77-.92l3-.26Z"/><circle class="cls-2" cx="379.67" cy="406.77" r="6.94"/><path class="cls-2" d="M384.78,408l-2.72-1.41a.84.84,0,0,1-.37-1.13l1.38-2.71-2.16-1.09-1.37,2.71a.85.85,0,0,1-1.13.37l-2.75-1.37-1.09,2.16,2.73,1.38a.85.85,0,0,1,.37,1.14l-1.39,2.73,2.16,1.09,1.39-2.75a.85.85,0,0,1,1.14-.37l2.72,1.41Z"/><path class="cls-2" d="M475.26,429.65h0A94.31,94.31,0,0,0,474,418.39a15.83,15.83,0,0,0-14.48-13h-.12a15.83,15.83,0,0,0-16.19,10.79c-.6,1.81-1.13,3.6-1.6,5.35a7,7,0,0,1-7.26,5.18l-.38,0-1.22,16.88h0a7,7,0,0,1,6.44,6.29c.2,2.07.48,4.17.83,6.33a17.26,17.26,0,0,0,11.7,13.65,11.74,11.74,0,0,0,3,.58h.13a16.05,16.05,0,0,0,16.26-11.19,90.9,90.9,0,0,0,3.18-12.66h0a2,2,0,0,0,2.13-1.85l.92-12.66A2.24,2.24,0,0,0,475.26,429.65Z"/><rect class="cls-2" x="405.17" y="428.65" width="28.14" height="10.17" transform="translate(32.36 -29.09) rotate(4.13)"/><path class="cls-2" d="M403.38,423.89a5.81,5.81,0,0,0-5.34-3.62,5.93,5.93,0,0,0-5.84,5.57l-.06.83-27.66-2,.06-.82a5.94,5.94,0,0,0-5-6.36,5.8,5.8,0,0,0-6,3.26,4.46,4.46,0,0,1-1.16,1.43A3.8,3.8,0,0,0,351,424.8l-.58,8a3.82,3.82,0,0,0,.94,2.78,4.32,4.32,0,0,1,.94,1.58,5.81,5.81,0,0,0,5.5,4.09,5.93,5.93,0,0,0,5.86-5.57l.06-.83,27.65,2-.06.83a5.93,5.93,0,0,0,5,6.35,5.79,5.79,0,0,0,5.81-2.81,7,7,0,0,1,1.47-1.87,3.83,3.83,0,0,0,1.32-2.62l.58-8a3.82,3.82,0,0,0-.94-2.78A7,7,0,0,1,403.38,423.89Z"/><path class="cls-2" d="M379.23,437.6a1.52,1.52,0,0,1-2.87-.79l3.38-12.28a1.52,1.52,0,0,1,2.87.79Q380.93,431.46,379.23,437.6Z"/><ellipse class="cls-2" cx="372.33" cy="430.56" rx="14.05" ry="1.67" transform="translate(-141.58 675.33) rotate(-74.62)"/><ellipse class="cls-2" cx="386.78" cy="431.54" rx="14.05" ry="1.67" transform="translate(-131.9 689.97) rotate(-74.62)"/><circle class="cls-2" cx="352.6" cy="296.65" r="4.2"/><circle class="cls-2" cx="373.34" cy="355.19" r="6.94"/><path class="cls-2" d="M375,368c5.27-7.41,15.65-13.15,21.13-15.82a5.94,5.94,0,0,0,3.32-5.69c-1.4-25.7.37-57,4.23-65.37a1.61,1.61,0,0,0-1-2.22c-3.88-1.09-12.33-4.5-21-14.73a2.46,2.46,0,0,0-3.5-.26c-10,8.89-18.88,11.05-22.88,11.57a1.62,1.62,0,0,0-1.35,2.05c2.62,8.81-.12,40.07-5.21,65.3a6,6,0,0,0,2.47,6.11c5,3.42,14.49,10.59,18.63,18.69A3,3,0,0,0,375,368Z"/><path class="cls-2" d="M394.77,324.89c-.09,1-4.3,1.27-4.56,2.22s3.23,3.32,2.81,4.22-4.47-.29-5,.52,1.9,4.22,1.19,4.92-4.09-1.8-4.91-1.23.35,4.61-.56,5-3.22-3.09-4.19-2.84-1.25,4.46-2.26,4.54-1.95-4-3-4.1-2.71,3.75-3.66,3.5-.5-4.46-1.39-4.88-3.83,2.61-4.64,2,1.06-4.34.36-5.05-4.49,1.14-5.06.32,2.49-3.72,2.07-4.62-4.61-.46-4.86-1.43,3.61-2.63,3.53-3.64-4.18-2-4.08-3,4.3-1.27,4.55-2.22-3.23-3.32-2.81-4.21,4.47.29,5-.52-1.89-4.23-1.19-4.93,4.1,1.81,4.92,1.24-.35-4.62.55-5,3.23,3.1,4.2,2.84,1.25-4.46,2.25-4.54,2,4,3,4.11,2.72-3.76,3.67-3.5.49,4.45,1.39,4.87,3.83-2.6,4.64-2-1.07,4.35-.37,5,4.49-1.14,5.06-.32-2.49,3.72-2.06,4.63,4.6.45,4.86,1.42-3.61,2.63-3.53,3.64S394.86,323.88,394.77,324.89Z"/><line class="cls-2" x1="379.36" y1="316.3" x2="379.25" y2="316.43"/><line class="cls-2" x1="381.7" y1="318.55" x2="381.82" y2="318.42"/><path class="cls-2" d="M381.38,328.11a7.62,7.62,0,0,0,.32-9.56L372,329.82A7.63,7.63,0,0,0,381.38,328.11Z"/><path class="cls-2" d="M369.84,318.14a7.62,7.62,0,0,0-.33,9.56l9.74-11.27A7.63,7.63,0,0,0,369.84,318.14Z"/><line class="cls-2" x1="379.25" y1="316.43" x2="369.51" y2="327.7"/><line class="cls-2" x1="371.96" y1="329.82" x2="381.7" y2="318.55"/><circle class="cls-2" cx="373.34" cy="355.19" r="6.94"/><path class="cls-2" d="M378.32,353.5l-3.06.27a.84.84,0,0,1-.91-.77l-.28-3-2.41.23.28,3a.84.84,0,0,1-.75.92l-3.05.31.22,2.41,3.05-.29a.84.84,0,0,1,.92.76l.29,3.05,2.4-.23-.28-3.07a.84.84,0,0,1,.76-.92l3.05-.26Z"/><circle class="cls-2" cx="379.18" cy="274.48" r="6.94"/><path class="cls-2" d="M384.28,275.71l-2.72-1.41a.85.85,0,0,1-.37-1.13l1.38-2.71-2.16-1.09L379,272.08a.85.85,0,0,1-1.13.37l-2.75-1.37-1.09,2.16,2.73,1.38a.85.85,0,0,1,.37,1.14l-1.39,2.73,2.16,1.09,1.39-2.75a.86.86,0,0,1,1.15-.37l2.71,1.41Z"/><path class="cls-2" d="M474.76,297.35h0a92.3,92.3,0,0,0-1.31-11.26,15.83,15.83,0,0,0-14.48-13h-.12a15.83,15.83,0,0,0-16.19,10.79c-.59,1.81-1.13,3.6-1.6,5.35a7,7,0,0,1-7.26,5.18l-.38,0-1.22,16.88h0a7,7,0,0,1,6.45,6.29c.2,2.07.47,4.17.83,6.33a17.23,17.23,0,0,0,11.7,13.65,11.67,11.67,0,0,0,3,.58h.12a16,16,0,0,0,16.26-11.19,91,91,0,0,0,3.19-12.66h0a2,2,0,0,0,2.12-1.85l.92-12.66A2.24,2.24,0,0,0,474.76,297.35Z"/><rect class="cls-2" x="404.67" y="296.35" width="28.14" height="10.17" transform="translate(22.82 -29.4) rotate(4.13)"/><path class="cls-2" d="M402.88,291.59a5.8,5.8,0,0,0-5.34-3.62,5.93,5.93,0,0,0-5.84,5.57l-.06.83-27.66-2,.06-.82a5.93,5.93,0,0,0-5-6.36,5.81,5.81,0,0,0-6,3.26,4.46,4.46,0,0,1-1.16,1.43,3.8,3.8,0,0,0-1.33,2.62l-.57,8a3.77,3.77,0,0,0,.93,2.78,4.57,4.57,0,0,1,.95,1.58,5.8,5.8,0,0,0,5.49,4.09,5.93,5.93,0,0,0,5.86-5.57l.06-.83,27.66,2-.06.83a5.91,5.91,0,0,0,5,6.35,5.78,5.78,0,0,0,5.81-2.81A7,7,0,0,1,403.1,307a3.73,3.73,0,0,0,1.32-2.62l.58-8a3.82,3.82,0,0,0-.94-2.78A7.26,7.26,0,0,1,402.88,291.59Z"/><path class="cls-2" d="M378.74,305.3a1.52,1.52,0,0,1-2.87-.79l3.38-12.28a1.52,1.52,0,0,1,2.87.79Q380.43,299.16,378.74,305.3Z"/><ellipse class="cls-2" cx="371.83" cy="298.26" rx="14.05" ry="1.67" transform="translate(-14.39 577.65) rotate(-74.62)"/><ellipse class="cls-2" cx="386.28" cy="299.24" rx="14.05" ry="1.67" transform="matrix(0.27, -0.96, 0.96, 0.27, -4.71, 592.29)"/><circle class="cls-2" cx="267.19" cy="158.99" r="4.2"/><circle class="cls-2" cx="246.45" cy="217.53" r="6.94"/><circle class="cls-2" cx="240.62" cy="136.82" r="6.94"/><path class="cls-2" d="M244.78,230.36c-5.27-7.41-15.65-13.15-21.12-15.81a6,6,0,0,1-3.33-5.69c1.41-25.7-.37-57-4.23-65.37a1.63,1.63,0,0,1,1-2.23c3.88-1.08,12.34-4.49,21-14.73a2.45,2.45,0,0,1,3.49-.25c10,8.89,18.89,11,22.88,11.56a1.62,1.62,0,0,1,1.35,2c-2.62,8.81.13,40.07,5.21,65.3a5.93,5.93,0,0,1-2.47,6.11c-5,3.42-14.48,10.59-18.63,18.69A3,3,0,0,1,244.78,230.36Z"/><path class="cls-2" d="M225,187.24c.09,1,4.3,1.27,4.55,2.21s-3.23,3.33-2.81,4.22,4.47-.29,5,.52-1.9,4.22-1.19,4.92,4.1-1.8,4.92-1.23-.36,4.62.55,5,3.23-3.1,4.2-2.84,1.24,4.45,2.25,4.54,2-4,3-4.11,2.72,3.76,3.66,3.5.5-4.45,1.4-4.87,3.83,2.6,4.64,2-1.07-4.35-.37-5.06,4.49,1.15,5.06.33-2.49-3.72-2.07-4.63,4.61-.45,4.87-1.42-3.61-2.64-3.53-3.64,4.17-2,4.08-3-4.3-1.27-4.56-2.21,3.23-3.33,2.81-4.22-4.47.29-5-.52,1.9-4.22,1.19-4.92-4.09,1.8-4.91,1.23.35-4.62-.56-5-3.23,3.1-4.2,2.84-1.24-4.45-2.25-4.54-2,4-3,4.11-2.71-3.76-3.66-3.5-.5,4.45-1.39,4.87-3.84-2.6-4.65-2,1.07,4.35.37,5.06-4.49-1.15-5.06-.33,2.49,3.72,2.07,4.63-4.61.45-4.86,1.42,3.61,2.64,3.52,3.64S224.93,186.23,225,187.24Z"/><line class="cls-2" x1="240.43" y1="178.64" x2="240.54" y2="178.77"/><line class="cls-2" x1="238.09" y1="180.89" x2="237.98" y2="180.76"/><path class="cls-2" d="M238.42,190.45a7.62,7.62,0,0,1-.33-9.56l9.74,11.27A7.6,7.6,0,0,1,238.42,190.45Z"/><path class="cls-2" d="M250,180.48a7.64,7.64,0,0,1,.32,9.57l-9.74-11.28A7.64,7.64,0,0,1,250,180.48Z"/><line class="cls-2" x1="240.54" y1="178.77" x2="250.28" y2="190.05"/><line class="cls-2" x1="247.83" y1="192.16" x2="238.09" y2="180.89"/><circle class="cls-2" cx="246.45" cy="217.53" r="6.94"/><path class="cls-2" d="M241.47,215.85l3.06.26a.84.84,0,0,0,.91-.76l.29-3,2.4.22-.28,3a.84.84,0,0,0,.76.92l3,.32-.23,2.4-3.05-.28a.84.84,0,0,0-.92.76l-.28,3.05-2.41-.23.29-3.07a.84.84,0,0,0-.77-.92l-3-.27Z"/><circle class="cls-2" cx="240.62" cy="136.82" r="6.94"/><path class="cls-2" d="M235.51,138.06l2.73-1.41a.85.85,0,0,0,.36-1.14l-1.38-2.7,2.16-1.1,1.38,2.71a.83.83,0,0,0,1.12.37l2.75-1.36,1.1,2.15L243,137a.83.83,0,0,0-.37,1.13l1.38,2.73-2.15,1.1-1.4-2.75a.84.84,0,0,0-1.14-.37l-2.71,1.4Z"/><path class="cls-2" d="M145,159.69h0a94.55,94.55,0,0,1,1.31-11.26,15.84,15.84,0,0,1,14.48-13H161a15.83,15.83,0,0,1,16.18,10.79c.6,1.82,1.13,3.6,1.6,5.36a7,7,0,0,0,7.26,5.17l.39,0,1.22,16.87h0a7,7,0,0,0-6.45,6.3q-.3,3.09-.83,6.33a17.21,17.21,0,0,1-11.7,13.64,11.84,11.84,0,0,1-3,.59h-.13a16.05,16.05,0,0,1-16.26-11.18A92.45,92.45,0,0,1,146,176.59h0a2,2,0,0,1-2.13-1.84L143,162.08A2.24,2.24,0,0,1,145,159.69Z"/><rect class="cls-2" x="186.98" y="158.69" width="28.14" height="10.17" transform="matrix(-1, 0.07, -0.07, -1, 413.38, 312.63)"/><path class="cls-2" d="M216.92,153.94a5.8,5.8,0,0,1,5.34-3.62,5.93,5.93,0,0,1,5.84,5.57l.06.83,27.65-2-.06-.83a5.93,5.93,0,0,1,5-6.35,5.78,5.78,0,0,1,6,3.25,4.4,4.4,0,0,0,1.17,1.44,3.75,3.75,0,0,1,1.32,2.61l.58,8a3.8,3.8,0,0,1-.94,2.78,4.35,4.35,0,0,0-.94,1.59,5.82,5.82,0,0,1-5.5,4.09,5.93,5.93,0,0,1-5.85-5.57l-.06-.83-27.66,2,.06.83a5.93,5.93,0,0,1-5,6.35,5.81,5.81,0,0,1-5.81-2.82,7.15,7.15,0,0,0-1.46-1.86,3.82,3.82,0,0,1-1.33-2.62l-.57-8a3.76,3.76,0,0,1,.93-2.78A7.29,7.29,0,0,0,216.92,153.94Z"/><path class="cls-2" d="M241.06,167.65a1.52,1.52,0,0,0,2.87-.79l-3.38-12.28a1.52,1.52,0,0,0-2.87.78Z"/><ellipse class="cls-2" cx="247.96" cy="160.61" rx="1.67" ry="14.05" transform="translate(-33.72 71.54) rotate(-15.38)"/><ellipse class="cls-2" cx="233.52" cy="161.58" rx="1.67" ry="14.05" transform="translate(-34.5 67.74) rotate(-15.38)"/><circle class="cls-2" cx="276.14" cy="428.07" r="4.2"/><circle class="cls-2" cx="255.4" cy="486.61" r="6.94"/><path class="cls-2" d="M253.73,499.44c-5.27-7.42-15.65-13.15-21.12-15.82a6,6,0,0,1-3.33-5.69c1.41-25.7-.37-57-4.23-65.37a1.62,1.62,0,0,1,1-2.22c3.88-1.09,12.34-4.5,21-14.74a2.47,2.47,0,0,1,3.5-.25c10,8.89,18.88,11,22.87,11.57a1.61,1.61,0,0,1,1.35,2.05c-2.62,8.81.13,40.07,5.22,65.29a6,6,0,0,1-2.48,6.12c-5,3.42-14.48,10.59-18.62,18.68A3,3,0,0,1,253.73,499.44Z"/><path class="cls-2" d="M234,456.31c.09,1,4.3,1.27,4.55,2.22s-3.23,3.32-2.81,4.22,4.47-.3,5.05.51-1.9,4.23-1.2,4.93,4.1-1.81,4.92-1.24-.35,4.62.55,5,3.23-3.09,4.2-2.84,1.25,4.46,2.25,4.54,2-4,3-4.11,2.72,3.76,3.67,3.51.5-4.46,1.39-4.88,3.83,2.61,4.64,2-1.07-4.35-.37-5.05,4.49,1.14,5.06.32-2.48-3.72-2.06-4.63,4.6-.45,4.86-1.42-3.61-2.63-3.53-3.64,4.17-2,4.08-3-4.3-1.27-4.56-2.22,3.23-3.32,2.81-4.22-4.47.3-5-.51,1.9-4.23,1.19-4.93-4.09,1.81-4.91,1.24.35-4.62-.56-5-3.22,3.09-4.19,2.84-1.25-4.46-2.26-4.54-2,4-3,4.11-2.72-3.76-3.67-3.51-.5,4.46-1.39,4.88-3.83-2.61-4.64-2,1.06,4.35.36,5.05-4.48-1.14-5-.32,2.48,3.72,2.06,4.63-4.61.45-4.86,1.42,3.61,2.63,3.53,3.64S233.89,455.3,234,456.31Z"/><line class="cls-2" x1="249.38" y1="447.71" x2="249.5" y2="447.85"/><line class="cls-2" x1="247.04" y1="449.97" x2="246.93" y2="449.83"/><path class="cls-2" d="M247.37,459.53A7.62,7.62,0,0,1,247,450l9.74,11.27A7.63,7.63,0,0,1,247.37,459.53Z"/><path class="cls-2" d="M258.91,449.56a7.62,7.62,0,0,1,.33,9.56l-9.74-11.27A7.62,7.62,0,0,1,258.91,449.56Z"/><line class="cls-2" x1="249.5" y1="447.85" x2="259.24" y2="459.12"/><line class="cls-2" x1="256.78" y1="461.24" x2="247.04" y2="449.97"/><circle class="cls-2" cx="255.4" cy="486.61" r="6.94"/><path class="cls-2" d="M250.43,484.92l3,.27a.86.86,0,0,0,.92-.77l.28-3,2.41.23-.29,3a.86.86,0,0,0,.76.92l3.05.31-.23,2.41-3-.29a.84.84,0,0,0-.92.76l-.29,3.05-2.41-.23.29-3.07a.84.84,0,0,0-.77-.92l-3-.26Z"/><circle class="cls-2" cx="249.57" cy="405.89" r="6.94"/><path class="cls-2" d="M244.46,407.13l2.73-1.41a.84.84,0,0,0,.36-1.13l-1.37-2.71,2.15-1.09,1.38,2.7a.85.85,0,0,0,1.13.38l2.74-1.37,1.1,2.16L252,406a.85.85,0,0,0-.37,1.14l1.38,2.73L250.81,411l-1.4-2.75a.85.85,0,0,0-1.14-.37l-2.71,1.41Z"/><path class="cls-2" d="M154,428.77h0a96.42,96.42,0,0,1,1.31-11.26,15.83,15.83,0,0,1,14.48-13h.13a15.8,15.8,0,0,1,16.18,10.79c.6,1.81,1.13,3.6,1.61,5.35a7,7,0,0,0,7.25,5.18l.39,0,1.22,16.88h0A7,7,0,0,0,190.1,449c-.2,2.07-.48,4.17-.83,6.33a17.24,17.24,0,0,1-11.7,13.65,11.67,11.67,0,0,1-3,.58h-.13a16.05,16.05,0,0,1-16.25-11.19A91,91,0,0,1,155,445.67h0a2,2,0,0,1-2.13-1.85l-.91-12.66A2.23,2.23,0,0,1,154,428.77Z"/><rect class="cls-2" x="195.93" y="427.76" width="28.14" height="10.17" transform="matrix(-1, 0.07, -0.07, -1, 450.66, 849.43)"/><path class="cls-2" d="M225.87,423a5.8,5.8,0,0,1,5.34-3.62,5.93,5.93,0,0,1,5.84,5.57l.06.83,27.66-2-.06-.82a5.92,5.92,0,0,1,5-6.36,5.81,5.81,0,0,1,6,3.26,4.21,4.21,0,0,0,1.16,1.43,3.8,3.8,0,0,1,1.33,2.62l.57,8a3.78,3.78,0,0,1-.94,2.78,4.32,4.32,0,0,0-.94,1.58,5.8,5.8,0,0,1-5.49,4.09,5.92,5.92,0,0,1-5.86-5.57l-.06-.83-27.66,2,.06.83a5.93,5.93,0,0,1-5,6.35,5.78,5.78,0,0,1-5.8-2.81,7.24,7.24,0,0,0-1.47-1.87,3.8,3.8,0,0,1-1.33-2.62l-.57-8a3.81,3.81,0,0,1,.93-2.78A7.06,7.06,0,0,0,225.87,423Z"/><path class="cls-2" d="M250,436.72a1.52,1.52,0,0,0,2.87-.79l-3.38-12.28a1.52,1.52,0,0,0-2.87.79Q248.33,430.57,250,436.72Z"/><ellipse class="cls-2" cx="256.92" cy="429.68" rx="1.67" ry="14.05" transform="translate(-104.78 83.55) rotate(-15.38)"/><ellipse class="cls-2" cx="242.47" cy="430.66" rx="1.67" ry="14.05" transform="translate(-105.56 79.75) rotate(-15.38)"/><circle class="cls-2" cx="276.64" cy="295.77" r="4.2"/><circle class="cls-2" cx="255.9" cy="354.31" r="6.94"/><path class="cls-2" d="M254.23,367.14c-5.27-7.42-15.65-13.15-21.12-15.82a6,6,0,0,1-3.33-5.69c1.41-25.7-.37-57-4.23-65.37a1.62,1.62,0,0,1,1-2.22c3.88-1.09,12.34-4.5,21-14.73a2.45,2.45,0,0,1,3.49-.26c10,8.89,18.89,11.05,22.88,11.57a1.62,1.62,0,0,1,1.35,2.05c-2.62,8.81.13,40.07,5.21,65.3a5.93,5.93,0,0,1-2.47,6.11c-5,3.42-14.48,10.59-18.63,18.68A3,3,0,0,1,254.23,367.14Z"/><circle class="cls-2" cx="250.07" cy="273.59" r="6.94"/><circle class="cls-2" cx="255.9" cy="354.31" r="6.94"/><path class="cls-2" d="M250.92,352.62l3.06.27a.84.84,0,0,0,.91-.77l.29-3,2.4.23-.28,3a.85.85,0,0,0,.76.92l3.05.31-.23,2.41-3.05-.29a.86.86,0,0,0-.92.76l-.28,3.05-2.41-.23.29-3.07a.85.85,0,0,0-.77-.92l-3-.26Z"/><path class="cls-2" d="M245,274.83l2.73-1.41a.84.84,0,0,0,.36-1.13l-1.38-2.71,2.16-1.09,1.38,2.7a.83.83,0,0,0,1.12.38l2.75-1.37,1.1,2.16-2.73,1.38a.84.84,0,0,0-.37,1.14l1.38,2.73-2.15,1.09-1.4-2.75a.85.85,0,0,0-1.14-.37L246.06,277Z"/><path class="cls-2" d="M154.48,296.47h0a94.31,94.31,0,0,1,1.31-11.26,15.83,15.83,0,0,1,14.48-13h.13A15.82,15.82,0,0,1,186.58,283c.6,1.81,1.13,3.6,1.6,5.35a7,7,0,0,0,7.26,5.18l.39,0,1.22,16.88h0a7,7,0,0,0-6.45,6.29c-.2,2.07-.48,4.17-.83,6.33a17.24,17.24,0,0,1-11.7,13.65,11.74,11.74,0,0,1-3,.58h-.13A16.06,16.06,0,0,1,158.64,326a92.33,92.33,0,0,1-3.18-12.66h0a2,2,0,0,1-2.13-1.85l-.92-12.66A2.24,2.24,0,0,1,154.48,296.47Z"/><rect class="cls-2" x="196.43" y="295.47" width="28.14" height="10.17" transform="matrix(-1, 0.07, -0.07, -1, 442.12, 585.14)"/><path class="cls-2" d="M226.36,290.71a5.83,5.83,0,0,1,5.35-3.62,5.94,5.94,0,0,1,5.84,5.57l.06.83,27.65-2-.06-.82a5.94,5.94,0,0,1,5-6.36,5.79,5.79,0,0,1,6,3.26,4.36,4.36,0,0,0,1.17,1.43,3.79,3.79,0,0,1,1.32,2.62l.58,8a3.82,3.82,0,0,1-.94,2.78,4.32,4.32,0,0,0-.94,1.58,5.8,5.8,0,0,1-5.5,4.09,5.92,5.92,0,0,1-5.85-5.57l-.06-.83-27.66,2,.06.83a5.93,5.93,0,0,1-5,6.35,5.79,5.79,0,0,1-5.81-2.81,7.2,7.2,0,0,0-1.46-1.87,3.8,3.8,0,0,1-1.33-2.62l-.57-8a3.77,3.77,0,0,1,.93-2.78A7,7,0,0,0,226.36,290.71Z"/><path class="cls-2" d="M250.51,304.42a1.52,1.52,0,0,0,2.87-.79L250,291.35a1.52,1.52,0,0,0-2.87.79Q248.83,298.28,250.51,304.42Z"/><ellipse class="cls-2" cx="257.41" cy="297.38" rx="1.67" ry="14.05" transform="translate(-69.67 78.94) rotate(-15.38)"/><ellipse class="cls-2" cx="242.97" cy="298.36" rx="1.67" ry="14.05" transform="translate(-70.44 75.15) rotate(-15.38)"/><path class="cls-2" d="M234.48,324c.09,1,4.3,1.27,4.55,2.22s-3.23,3.32-2.81,4.22,4.47-.29,5,.51-1.9,4.23-1.19,4.93,4.1-1.8,4.92-1.24-.36,4.62.55,5,3.23-3.09,4.2-2.84,1.24,4.46,2.25,4.54,2-4,3-4.11,2.72,3.76,3.66,3.51.5-4.46,1.4-4.88,3.83,2.61,4.64,2-1.07-4.34-.37-5.05,4.49,1.14,5.06.32-2.49-3.72-2.07-4.63,4.61-.45,4.87-1.42-3.61-2.63-3.53-3.64,4.17-2,4.08-3-4.3-1.27-4.56-2.22,3.23-3.32,2.81-4.21-4.47.29-5-.52,1.9-4.23,1.19-4.93-4.09,1.81-4.91,1.24.35-4.62-.56-5-3.23,3.09-4.2,2.84-1.24-4.46-2.25-4.54-2,4-3,4.11-2.71-3.76-3.66-3.5-.5,4.45-1.39,4.87-3.84-2.6-4.65-2,1.07,4.35.37,5.05-4.49-1.14-5.06-.32,2.49,3.72,2.07,4.63-4.61.45-4.86,1.42,3.61,2.63,3.52,3.64S234.38,323,234.48,324Z"/><line class="cls-2" x1="249.88" y1="315.42" x2="249.99" y2="315.55"/><line class="cls-2" x1="247.54" y1="317.67" x2="247.43" y2="317.53"/><path class="cls-2" d="M247.87,327.23a7.62,7.62,0,0,1-.33-9.56l9.74,11.27A7.63,7.63,0,0,1,247.87,327.23Z"/><path class="cls-2" d="M259.41,317.26a7.62,7.62,0,0,1,.32,9.56L250,315.55A7.63,7.63,0,0,1,259.41,317.26Z"/><line class="cls-2" x1="249.99" y1="315.55" x2="259.73" y2="326.82"/><line class="cls-2" x1="257.28" y1="328.94" x2="247.54" y2="317.67"/><rect class="cls-5" width="629.24" height="629.24"/></g></g></svg>