<svg xmlns="http://www.w3.org/2000/svg" viewBox="0 0 525.37 525.37"><defs><style>.cls-1,.cls-10,.cls-13,.cls-2,.cls-3,.cls-5,.cls-6{fill:none;}.cls-1{stroke:#ff1d25;}.cls-1,.cls-10,.cls-2,.cls-3,.cls-5,.cls-6{stroke-miterlimit:10;}.cls-1,.cls-2{stroke-width:1.76px;}.cls-2{stroke:#3fa9f5;}.cls-10,.cls-3{stroke:#000;}.cls-3{stroke-linecap:round;stroke-width:2.47px;}.cls-4{fill:#ff931e;}.cls-5,.cls-6{stroke:#29abe2;}.cls-5{stroke-width:0.76px;}.cls-6{stroke-width:0.75px;}.cls-7{fill:#29abe2;}.cls-11,.cls-8{font-size:14.8px;font-family:Helvetica;}.cls-9{letter-spacing:-0.05em;}.cls-10{stroke-width:0.62px;}.cls-11{letter-spacing:-0.04em;}.cls-12{letter-spacing:0em;}</style></defs><title>Waveforms</title><g id="Layer_2" data-name="Layer 2"><g id="Layer_1-2" data-name="Layer 1"><path class="cls-1" d="M115.7,83.51s56-56.93,149.16,0c89.51,54.69,149.17,0,149.17,0"/><path class="cls-1" d="M114.4,234.57s56-56.92,149.17,0c89.5,54.7,149.17,0,149.17,0"/><path class="cls-2" d="M114.4,234.57s59.67,54.7,149.17,0c93.15-56.92,149.17,0,149.17,0"/><line class="cls-3" x1="114.4" y1="234.57" x2="412.74" y2="234.57"/><path class="cls-2" d="M111.33,381.74s39.78,54.7,99.45,0"/><path class="cls-2" d="M310.22,382.29s39.78,54.7,99.45,0"/><path class="cls-2" d="M210.78,381.74s39.78-54.69,99.44,0"/><path class="cls-1" d="M111.33,382.29s39.78-54.69,99.45,0"/><path class="cls-1" d="M310.22,381.74s39.78-54.69,99.45,0"/><path class="cls-1" d="M210.78,382.29s39.78,54.7,99.44,0"/><line class="cls-3" x1="111.33" y1="381.74" x2="409.67" y2="381.74"/><line class="cls-3" x1="115.7" y1="83.51" x2="414.03" y2="83.51"/><circle class="cls-4" cx="263.57" cy="234.57" r="4.97"/><circle class="cls-4" cx="310.22" cy="381.74" r="4.97"/><circle class="cls-4" cx="210.78" cy="381.74" r="4.97"/><line class="cls-5" x1="264.86" y1="58.65" x2="264.86" y2="33.78"/><line class="cls-5" x1="414.03" y1="170.99" x2="414.03" y2="146.13"/><line class="cls-6" x1="126.08" y1="33.78" x2="254.48" y2="33.78"/><polygon class="cls-7" points="127.19 37.55 120.67 33.78 127.19 30.02 127.19 37.55"/><polygon class="cls-7" points="253.38 37.55 259.89 33.78 253.38 30.02 253.38 37.55"/><line class="cls-6" x1="125.7" y1="134.56" x2="403.26" y2="134.56"/><polygon class="cls-7" points="126.8 138.32 120.28 134.56 126.8 130.79 126.8 138.32"/><polygon class="cls-7" points="402.16 138.32 408.68 134.56 402.16 130.79 402.16 138.32"/><text class="cls-8" transform="translate(111.33 466.5)">N = Node</text><text class="cls-8" transform="translate(205.81 332.02)">N</text><text class="cls-8" transform="translate(305.25 332.02)">N</text><text class="cls-8" transform="translate(111.33 502.06)">AN =<tspan class="cls-9" x="33.31" y="0"> </tspan><tspan x="36.61" y="0">Anti-node</tspan></text><text class="cls-8" transform="translate(151.11 436.44)">AN</text><text class="cls-8" transform="translate(250.56 436.44)">AN</text><text class="cls-8" transform="translate(350 436.44)">AN</text><line x1="210.78" y1="336.99" x2="210.78" y2="371.8"/><line class="cls-10" x1="210.78" y1="336.99" x2="210.78" y2="367.37"/><polygon points="207.7 366.47 210.78 371.8 213.85 366.47 207.7 366.47"/><text class="cls-8" transform="translate(258.6 179.88)">N</text><line x1="263.57" y1="184.85" x2="263.57" y2="219.66"/><line class="cls-10" x1="263.57" y1="184.85" x2="263.57" y2="215.23"/><polygon points="260.49 214.33 263.57 219.66 266.64 214.33 260.49 214.33"/><line x1="310.22" y1="336.99" x2="310.22" y2="371.8"/><line class="cls-10" x1="310.22" y1="336.99" x2="310.22" y2="367.37"/><polygon points="307.15 366.47 310.22 371.8 313.3 366.47 307.15 366.47"/><line x1="359.95" y1="412.45" x2="359.95" y2="422.4"/><line class="cls-10" x1="359.95" y1="416.88" x2="359.95" y2="422.4"/><polygon points="356.87 417.78 359.95 412.45 363.02 417.78 356.87 417.78"/><line x1="260.5" y1="411.57" x2="260.5" y2="421.52"/><line class="cls-10" x1="260.5" y1="416" x2="260.5" y2="421.52"/><polygon points="257.43 416.9 260.5 411.57 263.58 416.9 257.43 416.9"/><line x1="161.06" y1="411.57" x2="161.06" y2="421.52"/><line class="cls-10" x1="161.06" y1="416" x2="161.06" y2="421.52"/><polygon points="157.98 416.9 161.06 411.57 164.13 416.9 157.98 416.9"/><text class="cls-8" transform="translate(169.13 296.63)">AN</text><text class="cls-8" transform="translate(331.23 297.49)">AN</text><line x1="341.17" y1="272.63" x2="341.17" y2="282.57"/><line class="cls-10" x1="341.17" y1="277.05" x2="341.17" y2="282.57"/><polygon points="338.1 277.95 341.17 272.63 344.25 277.95 338.1 277.95"/><line x1="179.08" y1="271.77" x2="179.08" y2="281.72"/><line class="cls-10" x1="179.08" y1="276.2" x2="179.08" y2="281.72"/><polygon points="176 277.1 179.08 271.77 182.15 277.1 176 277.1"/><text class="cls-11" transform="translate(230.06 128.26)">W<tspan class="cls-12" x="13.43" y="0">avelength</tspan></text><text class="cls-8" transform="translate(145.53 28.81)">String Length</text><rect class="cls-13" width="525.37" height="525.37"/></g></g></svg>